<svg width="123" height="90" viewBox="0 0 123 90" fill="none" xmlns="http://www.w3.org/2000/svg">
<path d="M45.7806 37.9258C45.8103 37.9023 45.8343 37.8723 45.8508 37.8382C45.8672 37.804 45.8758 37.7666 45.8758 37.7287L45.6107 32.9709L47.9012 31.5707C48.0732 31.4668 48.2229 31.3299 48.3416 31.1679C48.4604 31.0059 48.546 30.822 48.5934 30.6267C48.6408 30.4315 48.6491 30.2288 48.6177 30.0304C48.5864 29.832 48.5162 29.6417 48.411 29.4705L47.5478 28.05C47.3354 27.7036 46.9944 27.4555 46.5995 27.36C46.2046 27.2644 45.788 27.3292 45.4408 27.5402L45.3184 27.6149L44.7815 17.841L55.6565 12.2336C56.2257 11.8871 56.7207 11.4311 57.1126 10.8921C57.5046 10.3532 57.7859 9.74181 57.9402 9.09346L57.981 8.90995L59.4491 6.57863C59.6924 6.18682 59.8213 5.73481 59.8213 5.27362C59.8213 4.81244 59.6924 4.36042 59.4491 3.96861C59.2086 3.57292 58.8621 3.25244 58.4489 3.04344C58.0357 2.83443 57.5723 2.74524 57.111 2.78596L54.3923 3.02386C53.7186 2.83172 53.0122 2.78206 52.3183 2.87802C51.6243 2.97398 50.958 3.21346 50.3617 3.58121L40.3431 10.6568L31.9014 5.70861L32.0237 5.63385C32.3701 5.42145 32.6182 5.08049 32.7137 4.68559C32.8092 4.2907 32.7444 3.87405 32.5335 3.52682L31.6703 2.10627C31.4567 1.76132 31.1157 1.51441 30.7214 1.41899C30.327 1.32358 29.911 1.38736 29.5633 1.59651L27.2727 2.99666L23.1946 0.590584C23.1601 0.572139 23.1216 0.562498 23.0824 0.562498C23.0433 0.562498 23.0048 0.572139 22.9703 0.590584L19.0825 2.59565C19.0456 2.61608 19.0144 2.64548 18.9919 2.68111C18.9693 2.71674 18.956 2.75746 18.9533 2.79955C18.9433 2.83971 18.9433 2.88175 18.9533 2.92191C18.9758 2.95584 19.0061 2.98382 19.0417 3.00347L21.04 4.11814L22.4741 5.91933L21.441 6.55144C21.415 6.56742 21.3925 6.58838 21.3746 6.61312C21.3568 6.63786 21.344 6.6659 21.3371 6.6956C21.3301 6.72529 21.3291 6.75607 21.3341 6.78616C21.3391 6.81624 21.35 6.84504 21.3662 6.87089L21.4818 7.0612L20.5846 7.61175C20.4337 7.70586 20.3257 7.85534 20.2838 8.02815C20.2419 8.20096 20.2693 8.38332 20.3603 8.53611L21.6449 10.6431C21.739 10.794 21.8885 10.902 22.0613 10.9439C22.2341 10.9859 22.4165 10.9584 22.5693 10.8675L23.4665 10.3169L23.582 10.5072C23.6144 10.5595 23.6658 10.5971 23.7253 10.6123C23.7849 10.6275 23.848 10.6191 23.9015 10.5888L25.4308 9.65081L31.3237 17.0662L22.5557 23.3057L16.8123 20.9132L14.3519 22.1774L18.2057 26.4663L16.6288 28.2946L18.2397 30.9386L20.5438 30.3065L22.5829 35.6828L24.8326 34.0788L25.3356 27.8732L35.0891 22.8299L38.7934 31.5639L37.2573 32.5019C37.2056 32.533 37.1681 32.5832 37.1528 32.6416C37.1376 32.7 37.1458 32.7621 37.1758 32.8146L37.2981 33.0117L36.3941 33.5622C36.2462 33.6573 36.1409 33.806 36.1004 33.9771C36.0598 34.1482 36.0871 34.3284 36.1766 34.4798L37.4612 36.5868C37.5553 36.7359 37.7035 36.8426 37.8747 36.8844C38.0459 36.9263 38.2266 36.9 38.3788 36.8111L39.2828 36.2674L39.3983 36.4577C39.4143 36.4837 39.4353 36.5062 39.46 36.524C39.4848 36.5419 39.5128 36.5546 39.5425 36.5616C39.5722 36.5685 39.603 36.5696 39.633 36.5646C39.6631 36.5596 39.6919 36.5486 39.7178 36.5324L40.7509 35.9071L41.6957 38.0006L41.7704 40.2911C41.7745 40.3314 41.786 40.3706 41.8044 40.4067C41.8293 40.4427 41.8618 40.4729 41.8996 40.495C41.936 40.5153 41.9769 40.5259 42.0185 40.5259C42.0602 40.5259 42.1011 40.5153 42.1375 40.495L45.7806 37.9258ZM27.7757 3.26175L29.8147 1.99752C30.0573 1.84919 30.3488 1.8031 30.6253 1.86935C30.9017 1.93561 31.1407 2.10882 31.2897 2.35097L32.1597 3.77152C32.3056 4.01535 32.3496 4.30683 32.2822 4.58288C32.2148 4.85892 32.0413 5.09731 31.7994 5.24643L31.4664 5.45035L29.604 4.35604L27.7757 3.26175ZM22.3857 10.4732C22.3387 10.5012 22.2825 10.5098 22.2292 10.4971C22.176 10.4844 22.1297 10.4515 22.1003 10.4053L20.8157 8.29143C20.8009 8.26837 20.7909 8.24256 20.7864 8.21556C20.7818 8.18856 20.7827 8.16091 20.789 8.13427C20.7954 8.10763 20.807 8.08253 20.8233 8.06049C20.8395 8.03844 20.8601 8.01989 20.8836 8.00596L21.7808 7.45541L23.2897 9.92268L22.3857 10.4732ZM23.9218 10.0722L21.9372 6.82331L22.8208 6.28635L25.2065 9.29058L23.9218 10.0722ZM25.7298 9.20902L23.0587 5.81058L21.441 3.77152C21.4217 3.74769 21.3987 3.72704 21.373 3.71035L19.7078 2.78596L23.1062 1.03236L29.2234 4.60752L31.4052 5.89214L39.9965 10.9286L31.7451 16.7467L25.7298 9.20902ZM45.6787 27.948C45.9212 27.7997 46.2127 27.7536 46.4892 27.8198C46.7656 27.8861 47.0046 28.0593 47.1536 28.3014L48.0168 29.722C48.1651 29.9645 48.2112 30.256 48.1449 30.5325C48.0787 30.809 47.9055 31.0479 47.6633 31.1969L45.5835 32.4611L45.468 30.3065L45.3456 28.1451L45.6787 27.948ZM57.1586 3.24814C57.5348 3.21107 57.9137 3.28222 58.2509 3.4532C58.588 3.62419 58.8693 3.88789 59.0617 4.21331C59.2628 4.53164 59.3696 4.90048 59.3696 5.27702C59.3696 5.65357 59.2628 6.0224 59.0617 6.34074L58.0897 7.89042L58.0897 7.82245C58.0897 7.64495 58.076 7.46771 58.049 7.29229C58.0556 7.24039 58.0556 7.18786 58.049 7.13596C58.0219 6.93625 57.9811 6.73867 57.9266 6.54463L57.9266 6.49027C57.8723 6.31042 57.8087 6.13347 57.7363 5.96011L57.6683 5.81736C57.5868 5.6271 57.4914 5.44309 57.3829 5.26682C57.2741 5.0901 57.1518 4.92018 57.0294 4.75705L56.9275 4.63471C56.8054 4.49004 56.6761 4.35167 56.54 4.22011L56.5061 4.18612C56.3552 4.04982 56.1964 3.92272 56.0303 3.80549L55.9079 3.71713C55.7594 3.61534 55.6051 3.52229 55.4458 3.43846C55.4293 3.42473 55.411 3.4133 55.3914 3.40448L57.1586 3.24814ZM54.2903 3.47924C55.3983 3.80241 56.3445 4.53021 56.9411 5.5183C57.541 6.50547 57.7496 7.68152 57.5256 8.81479L57.4848 9.0051C57.1991 10.1937 56.4536 11.2203 55.4118 11.8598L44.4416 17.5284L35.1775 22.2862L20.8293 29.7084L20.204 28.6821C21.9032 27.6399 23.6024 26.6022 25.3016 25.5691C25.4496 25.475 25.5554 25.3275 25.5972 25.1572C25.6389 24.9869 25.6132 24.8071 25.5254 24.6553C25.4377 24.5036 25.2947 24.3916 25.1264 24.3427C24.958 24.2939 24.7773 24.312 24.6219 24.3932L19.5175 27.4994L18.9126 26.507L40.4994 11.1529L40.5742 11.1053L50.5384 3.96183C51.0911 3.62269 51.7091 3.40382 52.352 3.3195C52.995 3.23518 53.6484 3.2873 54.2699 3.47245L54.2903 3.47924ZM15.1539 22.3134L16.8939 21.4162L22.1003 23.5844L18.6339 26.1332L18.6339 26.0788L18.5999 26.1196L15.1539 22.3134ZM18.5115 30.4017L17.2541 28.3626L18.5387 26.8741L19.0893 27.7849C18.9334 27.8804 18.8218 28.034 18.7791 28.2118C18.7364 28.3896 18.766 28.5771 18.8616 28.733C18.9571 28.889 19.1107 29.0005 19.2885 29.0432C19.4663 29.0859 19.6538 29.0563 19.8097 28.9607L20.3875 29.9055L18.5115 30.4017ZM24.4656 33.8001L22.8751 34.9352L21.0468 30.1774L21.1011 30.1774L21.1011 30.1298L24.9482 28.2131L24.4656 33.8001ZM38.2157 36.3965C38.1678 36.4239 38.1111 36.4314 38.0577 36.4174C38.0043 36.4035 37.9585 36.3691 37.9302 36.3217L36.6388 34.2147C36.6242 34.1907 36.6145 34.164 36.6103 34.1362C36.6062 34.1084 36.6076 34.0801 36.6146 34.0528C36.6216 34.0256 36.6339 34 36.6509 33.9776C36.6679 33.9552 36.6892 33.9365 36.7136 33.9224L37.6108 33.3787L39.1197 35.846L38.2157 36.3965ZM39.745 35.9955L37.7671 32.7466L39.0517 31.9582L39.2012 32.2844L40.6354 35.4585L39.745 35.9955ZM42.2326 37.9122L42.2326 37.8306L41.1655 35.4517L39.3915 31.5367L35.5853 22.626L43.4153 18.5479L44.3397 18.0653L44.8902 28.016L45.0329 30.5036L45.4204 37.6131L42.3074 39.8289L42.2326 37.9122Z" fill="#B5B7BA"/>
<path d="M108.312 65.793C108.342 65.7694 108.366 65.7395 108.382 65.7053C108.398 65.6712 108.407 65.6338 108.407 65.5959L108.142 60.8381L110.432 59.4379C110.604 59.334 110.754 59.1971 110.873 59.0351C110.992 58.8731 111.077 58.6892 111.125 58.4939C111.172 58.2987 111.18 58.096 111.149 57.8976C111.118 57.6991 111.047 57.5088 110.942 57.3377L110.079 55.9171C109.867 55.5708 109.526 55.3227 109.131 55.2272C108.736 55.1316 108.319 55.1964 107.972 55.4074L107.85 55.4821L107.313 45.7082L118.188 40.1008C118.757 39.7542 119.252 39.2983 119.644 38.7593C120.036 38.2203 120.317 37.609 120.471 36.9606L120.512 36.7771L121.98 34.4458C122.224 34.054 122.353 33.602 122.353 33.1408C122.353 32.6796 122.224 32.2276 121.98 31.8358C121.74 31.4401 121.393 31.1196 120.98 30.9106C120.567 30.7016 120.104 30.6124 119.642 30.6531L116.924 30.891C116.25 30.6989 115.543 30.6492 114.85 30.7452C114.156 30.8412 113.489 31.0806 112.893 31.4484L102.874 38.5239L94.4326 33.5758L94.555 33.501C94.9013 33.2886 95.1494 32.9477 95.245 32.5528C95.3405 32.1579 95.2757 31.7412 95.0647 31.394L94.2015 29.9735C93.9879 29.6285 93.647 29.3816 93.2526 29.2862C92.8583 29.1908 92.4422 29.2545 92.0945 29.4637L89.804 30.8639L85.7258 28.4578C85.6913 28.4393 85.6528 28.4297 85.6137 28.4297C85.5746 28.4297 85.536 28.4393 85.5015 28.4578L81.6137 30.4628C81.5768 30.4833 81.5457 30.5127 81.5231 30.5483C81.5005 30.5839 81.4873 30.6246 81.4846 30.6667C81.4745 30.7069 81.4745 30.7489 81.4846 30.7891C81.507 30.823 81.5373 30.851 81.5729 30.8707L83.5712 31.9853L85.0054 33.7865L83.9722 34.4186C83.9463 34.4346 83.9237 34.4556 83.9059 34.4803C83.888 34.5051 83.8753 34.5331 83.8683 34.5628C83.8614 34.5925 83.8604 34.6233 83.8654 34.6533C83.8704 34.6834 83.8813 34.7122 83.8975 34.7381L84.013 34.9284L83.1158 35.4789C82.965 35.573 82.857 35.7225 82.815 35.8953C82.7731 36.0681 82.8006 36.2505 82.8915 36.4033L84.1761 38.5103C84.2703 38.6612 84.4198 38.7692 84.5926 38.8111C84.7654 38.8531 84.9477 38.8256 85.1005 38.7346L85.9977 38.1841L86.1133 38.3744C86.1457 38.4266 86.197 38.4643 86.2566 38.4795C86.3161 38.4947 86.3792 38.4863 86.4327 38.456L87.962 37.518L93.8549 44.9334L85.0869 51.1729L79.3436 48.7804L76.8831 50.0446L80.7369 54.3335L79.16 56.1618L80.7709 58.8058L83.075 58.1737L85.1141 63.55L87.3639 61.946L87.8669 55.7404L97.6204 50.6971L101.325 59.4311L99.7886 60.3691C99.7368 60.4002 99.6993 60.4504 99.6841 60.5088C99.6688 60.5672 99.6771 60.6293 99.707 60.6817L99.8293 60.8789L98.9254 61.4294C98.7775 61.5245 98.6722 61.6732 98.6316 61.8443C98.5911 62.0154 98.6184 62.1956 98.7079 62.347L99.9925 64.454C100.087 64.6031 100.235 64.7098 100.406 64.7516C100.577 64.7935 100.758 64.7672 100.91 64.6783L101.814 64.1346L101.93 64.3249C101.946 64.3508 101.967 64.3734 101.991 64.3912C102.016 64.4091 102.044 64.4218 102.074 64.4288C102.103 64.4357 102.134 64.4367 102.164 64.4317C102.194 64.4267 102.223 64.4158 102.249 64.3996L103.282 63.7743L104.227 65.8678L104.302 68.1583C104.306 68.1986 104.317 68.2378 104.336 68.2739C104.361 68.3099 104.393 68.3401 104.431 68.3622C104.467 68.3825 104.508 68.3931 104.55 68.3931C104.591 68.3931 104.632 68.3825 104.669 68.3622L108.312 65.793ZM90.3069 31.1289L92.346 29.8647C92.5886 29.7164 92.88 29.6703 93.1565 29.7365C93.433 29.8028 93.6719 29.976 93.8209 30.2182L94.6909 31.6387C94.8368 31.8825 94.8809 32.174 94.8134 32.4501C94.746 32.7261 94.5726 32.9645 94.3307 33.1136L93.9976 33.3175L92.1353 32.2232L90.3069 31.1289ZM84.917 38.3404C84.8699 38.3684 84.8138 38.377 84.7605 38.3643C84.7072 38.3516 84.661 38.3187 84.6315 38.2724L83.3469 36.1586C83.3322 36.1356 83.3222 36.1097 83.3176 36.0827C83.313 36.0557 83.3139 36.0281 83.3203 36.0015C83.3266 35.9748 83.3383 35.9497 83.3545 35.9277C83.3708 35.9056 83.3913 35.8871 83.4149 35.8731L84.3121 35.3226L85.821 37.7899L84.917 38.3404ZM86.4531 37.9394L84.4684 34.6905L85.352 34.1535L87.7377 37.1578L86.4531 37.9394ZM88.2611 37.0762L85.5899 33.6778L83.9722 31.6387C83.9529 31.6149 83.93 31.5942 83.9043 31.5775L82.239 30.6531L85.6375 28.8995L91.7547 32.4747L93.9365 33.7593L102.528 38.7958L94.2763 44.6139L88.2611 37.0762ZM108.21 55.8152C108.452 55.6668 108.744 55.6208 109.02 55.687C109.297 55.7533 109.536 55.9265 109.685 56.1686L110.548 57.5892C110.696 57.8317 110.742 58.1232 110.676 58.3997C110.61 58.6762 110.437 58.9151 110.195 59.0641L108.115 60.3283L107.999 58.1737L107.877 56.0123L108.21 55.8152ZM119.69 31.1153C120.066 31.0783 120.445 31.1494 120.782 31.3204C121.119 31.4914 121.401 31.7551 121.593 32.0805C121.794 32.3988 121.901 32.7677 121.901 33.1442C121.901 33.5208 121.794 33.8896 121.593 34.2079L120.621 35.7576L120.621 35.6896C120.621 35.5121 120.607 35.3349 120.58 35.1595C120.587 35.1076 120.587 35.055 120.58 35.0031C120.553 34.8034 120.512 34.6059 120.458 34.4118L120.458 34.3575C120.404 34.1776 120.34 34.0007 120.268 33.8273L120.2 33.6846C120.118 33.4943 120.023 33.3103 119.914 33.134C119.805 32.9573 119.683 32.7874 119.561 32.6242L119.459 32.5019C119.337 32.3572 119.207 32.2189 119.071 32.0873L119.037 32.0533C118.886 31.917 118.728 31.7899 118.562 31.6727L118.439 31.5843C118.291 31.4825 118.136 31.3895 117.977 31.3056C117.961 31.2919 117.942 31.2805 117.923 31.2717L119.69 31.1153ZM116.822 31.3464C117.93 31.6696 118.876 32.3974 119.472 33.3855C120.072 34.3727 120.281 35.5487 120.057 36.682L120.016 36.8723C119.73 38.0608 118.985 39.0875 117.943 39.727L106.973 45.3956L97.7087 50.1534L83.3605 57.5756L82.7352 56.5492C84.4344 55.5071 86.1336 54.4694 87.8329 53.4363C87.9808 53.3422 88.0867 53.1947 88.1284 53.0244C88.1701 52.8541 88.1444 52.6743 88.0567 52.5225C87.9689 52.3707 87.826 52.2588 87.6576 52.2099C87.4892 52.1611 87.3085 52.1792 87.1532 52.2604L82.0487 55.3666L81.4438 54.3742L103.031 39.0201L103.105 38.9725L113.07 31.829C113.622 31.4899 114.24 31.271 114.883 31.1867C115.526 31.1024 116.18 31.1545 116.801 31.3396L116.822 31.3464ZM77.6851 50.1806L79.4251 49.2834L84.6315 51.4516L81.1651 54.0004L81.1651 53.946L81.1312 53.9868L77.6851 50.1806ZM81.0428 58.2689L79.7854 56.2298L81.07 54.7413L81.6205 55.6521C81.4646 55.7476 81.353 55.9012 81.3103 56.079C81.2676 56.2568 81.2973 56.4443 81.3928 56.6002C81.4884 56.7561 81.6419 56.8677 81.8198 56.9104C81.9976 56.9531 82.1851 56.9235 82.341 56.8279L82.9187 57.7727L81.0428 58.2689ZM86.9969 61.6673L85.4064 62.8024L83.578 58.0445L83.6324 58.0445L83.6324 57.997L87.4794 56.0803L86.9969 61.6673ZM100.747 64.2637C100.699 64.2911 100.642 64.2986 100.589 64.2846C100.536 64.2707 100.49 64.2363 100.461 64.1889L99.17 62.0819C99.1554 62.0579 99.1457 62.0312 99.1416 62.0034C99.1374 61.9756 99.1389 61.9473 99.1458 61.92C99.1528 61.8928 99.1652 61.8672 99.1822 61.8448C99.1992 61.8224 99.2205 61.8037 99.2448 61.7896L100.142 61.2459L101.651 63.7132L100.747 64.2637ZM102.276 63.8627L100.298 60.6138L101.583 59.8253L101.732 60.1516L103.167 63.3257L102.276 63.8627ZM104.764 65.7794L104.764 65.6978L103.697 63.3189L101.923 59.4039L98.1165 50.4932L105.947 46.4151L106.871 45.9325L107.421 55.8831L107.564 58.3708L107.952 65.4803L104.839 67.6961L104.764 65.7794Z" fill="#B5B7BA"/>
<path d="M6.88482 62.6113L6.74584 62.0926C6.73829 62.0644 6.73646 62.0351 6.74047 62.0062C6.74449 61.9773 6.75427 61.9496 6.76924 61.9246C6.78419 61.8995 6.80403 61.8778 6.82755 61.8606C6.85109 61.8434 6.87783 61.8311 6.9062 61.8244C6.93435 61.8169 6.96372 61.8151 6.99259 61.8191C7.02145 61.8231 7.04922 61.8329 7.07423 61.8478C7.09924 61.8628 7.121 61.8826 7.13819 61.9062C7.15539 61.9297 7.16768 61.9564 7.17434 61.9848C7.28868 62.4116 7.40127 62.8317 7.51209 63.2453C7.52901 63.3012 7.52347 63.3615 7.49664 63.4134C7.4698 63.4653 7.42379 63.5046 7.36838 63.5231C7.31142 63.5385 7.25073 63.5315 7.19876 63.5035C7.14678 63.4756 7.10748 63.4288 7.08888 63.3728L6.88482 62.6113ZM6.47901 60.8342C6.36466 60.4074 6.32254 59.9613 6.26072 59.5205C6.25653 59.492 6.25808 59.4629 6.26525 59.4349C6.27243 59.407 6.28509 59.3808 6.3025 59.3578C6.31992 59.3348 6.34173 59.3155 6.36667 59.301C6.39162 59.2865 6.4192 59.2771 6.4478 59.2734C6.47635 59.2692 6.50544 59.2707 6.53338 59.2779C6.56132 59.2851 6.58755 59.2977 6.61056 59.3152C6.63356 59.3326 6.65287 59.3544 6.66736 59.3793C6.68185 59.4043 6.69123 59.4318 6.69496 59.4604C6.75503 59.8947 6.82822 60.3254 6.91279 60.7461C6.92286 60.8037 6.90998 60.8631 6.87691 60.9114C6.84383 60.9597 6.79319 60.9931 6.73578 61.0046C6.70772 61.0103 6.67881 61.0105 6.6507 61.005C6.6226 60.9995 6.59586 60.9886 6.57199 60.9727C6.54814 60.9569 6.52765 60.9365 6.51169 60.9127C6.49573 60.8889 6.48462 60.8622 6.47901 60.8342ZM7.50108 64.6486C7.48643 64.5955 7.49183 64.5389 7.51623 64.4895C7.54064 64.4402 7.58236 64.4015 7.63343 64.3809C7.68887 64.3621 7.74947 64.3658 7.80227 64.3911C7.85506 64.4164 7.89586 64.4613 7.91598 64.5163C8.03852 64.8424 8.16412 65.1535 8.30812 65.4808L8.40779 65.7215C8.41986 65.7479 8.42653 65.7764 8.42741 65.8054C8.42828 65.8344 8.42335 65.8633 8.41289 65.8903C8.40244 65.9174 8.38668 65.9421 8.36654 65.963C8.3464 65.9838 8.32228 66.0005 8.29561 66.0119C8.24283 66.0341 8.18342 66.0346 8.13028 66.0133C8.07714 65.9919 8.03456 65.9505 8.01177 65.898L7.90553 65.6591C7.76329 65.3383 7.6377 65.0272 7.50636 64.6683L7.50108 64.6486ZM6.07747 58.2327L6.06867 58.1998C6.03006 57.7669 5.99451 57.319 5.97384 56.8742C5.97193 56.8167 5.99219 56.7606 6.03043 56.7177C6.06868 56.6747 6.12199 56.648 6.17933 56.6432C6.2087 56.6412 6.23819 56.6451 6.26599 56.6547C6.2938 56.6644 6.31936 56.6796 6.34112 56.6994C6.36288 56.7192 6.38039 56.7433 6.39259 56.7701C6.40479 56.7969 6.41141 56.8259 6.41207 56.8553C6.43755 57.2918 6.46303 57.7283 6.50821 58.1595C6.51328 58.2169 6.49537 58.2739 6.45841 58.3181C6.42144 58.3623 6.36843 58.3901 6.31103 58.3952C6.26341 58.3926 6.21796 58.3744 6.18169 58.3435C6.14542 58.3125 6.12034 58.2705 6.1103 58.2239L6.07747 58.2327ZM8.56044 67.0527C8.54812 67.0042 8.55295 66.9528 8.57412 66.9074C8.59529 66.862 8.63149 66.8253 8.6766 66.8035C8.70202 66.7895 8.73007 66.7809 8.75897 66.7782C8.78788 66.7755 8.81702 66.7789 8.84458 66.788C8.87212 66.7972 8.8975 66.8119 8.91909 66.8313C8.94069 66.8507 8.95804 66.8743 8.97006 66.9008C9.16271 67.2784 9.37202 67.6656 9.59446 68.0493C9.60853 68.0742 9.61757 68.1016 9.62104 68.13C9.62451 68.1583 9.62236 68.1871 9.61471 68.2146C9.60705 68.2422 9.59405 68.2679 9.57644 68.2904C9.55883 68.313 9.53696 68.3318 9.51207 68.3458C9.46103 68.3746 9.40073 68.3823 9.34409 68.3673C9.28745 68.3522 9.23895 68.3155 9.20899 68.2652C8.98655 67.8815 8.77549 67.4877 8.57931 67.0969L8.56044 67.0527ZM5.94255 55.6019L5.92847 55.5494C5.93102 55.1124 5.93179 54.6689 5.95227 54.2201C5.95468 54.1626 5.97978 54.1084 6.02208 54.0694C6.06438 54.0304 6.12042 54.0097 6.17793 54.0119C6.2067 54.0121 6.23511 54.0183 6.26142 54.03C6.28772 54.0416 6.31134 54.0586 6.33086 54.0797C6.35036 54.1008 6.36534 54.1258 6.37485 54.1529C6.38436 54.1801 6.38822 54.2089 6.38618 54.2376C6.37707 54.6763 6.36795 55.115 6.37022 55.5436C6.37145 55.5724 6.36674 55.6012 6.3564 55.6281C6.34605 55.6551 6.33029 55.6796 6.31008 55.7002C6.28987 55.7208 6.26564 55.737 6.2389 55.7478C6.21217 55.7587 6.18348 55.7639 6.15464 55.7632C6.11065 55.7574 6.06964 55.7378 6.03745 55.7072C6.00525 55.6767 5.98353 55.6367 5.97536 55.5931L5.94255 55.6019ZM9.86656 69.3274C9.85499 69.2818 9.85809 69.2336 9.87541 69.1899C9.89272 69.1461 9.92337 69.1088 9.96303 69.0834C10.0117 69.0528 10.0706 69.0426 10.1267 69.0553C10.1829 69.0679 10.2317 69.1023 10.2626 69.1509C10.4946 69.518 10.7398 69.8815 10.9964 70.235C11.0283 70.2835 11.0408 70.3422 11.0313 70.3995C11.0219 70.4568 10.9913 70.5084 10.9455 70.5442C10.8966 70.5776 10.8365 70.5903 10.7782 70.5796C10.72 70.5688 10.6683 70.5354 10.6346 70.4867C10.378 70.1333 10.1293 69.7566 9.89729 69.3896L9.86656 69.3274ZM6.03658 52.9591L6.01723 52.8869C6.05435 52.4477 6.09804 52.0068 6.15006 51.5706C6.1532 51.5419 6.16205 51.514 6.17608 51.4887C6.19011 51.4635 6.20905 51.4412 6.23177 51.4233C6.2545 51.4054 6.28056 51.3923 6.30844 51.3846C6.33632 51.3769 6.36546 51.3749 6.39414 51.3786C6.42289 51.3817 6.45072 51.3905 6.47601 51.4046C6.50129 51.4186 6.52353 51.4375 6.54141 51.4603C6.55929 51.483 6.57247 51.509 6.58015 51.5369C6.58784 51.5648 6.5899 51.5939 6.58619 51.6226C6.53242 52.0522 6.48697 52.4866 6.45641 52.924C6.45117 52.9813 6.42341 53.0343 6.37921 53.0712C6.33502 53.1081 6.278 53.1259 6.22065 53.1209C6.18412 53.1104 6.1511 53.0902 6.12509 53.0625C6.09908 53.0348 6.08105 53.0005 6.07291 52.9634L6.03658 52.9591ZM11.3915 71.4731C11.3811 71.4318 11.3823 71.3885 11.395 71.3478C11.4077 71.3071 11.4314 71.2708 11.4634 71.2427C11.4872 71.2147 11.5175 71.1929 11.5517 71.1794C11.5859 71.1658 11.6229 71.1609 11.6595 71.165C11.6961 71.1691 11.731 71.1821 11.7614 71.2029C11.7917 71.2238 11.8164 71.2517 11.8334 71.2843C12.0996 71.6211 12.3741 71.9628 12.6599 72.2943C12.6789 72.316 12.6933 72.3412 12.7024 72.3685C12.7116 72.3958 12.7152 72.4247 12.713 72.4534C12.7109 72.4821 12.7031 72.5101 12.6901 72.5358C12.677 72.5615 12.659 72.5843 12.6371 72.603C12.5926 72.6396 12.5357 72.6576 12.4782 72.6534C12.4207 72.6491 12.3671 72.6229 12.3284 72.5801C12.0408 72.2421 11.758 71.8956 11.4835 71.554L11.3915 71.4731ZM6.35524 50.3405C6.34147 50.3141 6.33367 50.2849 6.33237 50.2552C6.40584 49.8203 6.48589 49.3837 6.57424 48.9519C6.57944 48.9236 6.59022 48.8966 6.60594 48.8724C6.62166 48.8483 6.64201 48.8276 6.66582 48.8114C6.68962 48.7952 6.71641 48.7839 6.74463 48.7781C6.77284 48.7723 6.80191 48.7722 6.83017 48.7778C6.88818 48.7895 6.93922 48.8236 6.97216 48.8728C7.00511 48.922 7.01729 48.9822 7.00604 49.0403C6.91592 49.4655 6.83413 49.8955 6.76546 50.3221C6.76153 50.3504 6.75205 50.3777 6.73756 50.4024C6.72307 50.427 6.70387 50.4486 6.68103 50.4658C6.65819 50.4831 6.63218 50.4956 6.60449 50.5028C6.57679 50.5099 6.54795 50.5116 6.51963 50.5076C6.48678 50.4927 6.458 50.4702 6.43571 50.4419C6.41342 50.4135 6.39829 50.3803 6.39159 50.3449L6.35524 50.3405ZM13.1149 73.4671C13.1046 73.43 13.1044 73.3908 13.1142 73.3536C13.124 73.3164 13.1435 73.2824 13.1707 73.2551C13.1915 73.2348 13.2162 73.2189 13.2432 73.2083C13.2703 73.1976 13.2992 73.1925 13.3283 73.1933C13.3573 73.194 13.3859 73.2006 13.4124 73.2126C13.4389 73.2246 13.4627 73.2417 13.4825 73.2631C13.7845 73.5762 14.0931 73.8876 14.431 74.177C14.4717 74.2189 14.4951 74.2746 14.4964 74.333C14.4977 74.3914 14.4768 74.4482 14.4379 74.4918C14.4181 74.5124 14.3943 74.529 14.3681 74.5404C14.3418 74.5518 14.3136 74.5579 14.2849 74.5584C14.2563 74.5589 14.2278 74.5537 14.2012 74.5432C14.1746 74.5326 14.1503 74.5169 14.1297 74.497C13.8098 74.1957 13.4994 73.8778 13.1741 73.5568C13.1531 73.534 13.1364 73.5074 13.125 73.4785L13.1149 73.4671ZM6.88236 47.7646C6.86332 47.7329 6.85356 47.6965 6.85421 47.6595C6.96404 47.229 7.07561 46.8051 7.21344 46.3741C7.23181 46.3186 7.2705 46.2722 7.32172 46.2441C7.37294 46.216 7.4329 46.2084 7.48954 46.2227C7.54499 46.2411 7.59144 46.2798 7.61953 46.331C7.64761 46.3822 7.65525 46.4422 7.64091 46.4988C7.51445 46.9197 7.40111 47.3371 7.2764 47.7646C7.26999 47.7929 7.25796 47.8197 7.24102 47.8433C7.22408 47.8669 7.20258 47.8869 7.17778 47.9021C7.15298 47.9173 7.1254 47.9273 7.09665 47.9317C7.0679 47.936 7.03856 47.9345 7.0104 47.9273C6.98749 47.9067 6.96923 47.8814 6.95681 47.8532C6.9444 47.825 6.93812 47.7945 6.93841 47.7636L6.88236 47.7646ZM15.0103 75.2884C15.0015 75.2529 15.0016 75.2157 15.0105 75.1802C15.0194 75.1447 15.0368 75.112 15.0613 75.0847C15.1013 75.0431 15.1554 75.018 15.213 75.0143C15.2706 75.0105 15.3275 75.0285 15.3725 75.0647C15.6955 75.3511 16.0383 75.6322 16.3775 75.9002C16.4215 75.9374 16.4495 75.9901 16.4557 76.0474C16.4618 76.1047 16.4457 76.1622 16.4107 76.2079C16.3932 76.2307 16.3715 76.2498 16.3466 76.2641C16.3218 76.2785 16.2944 76.2878 16.2659 76.2914C16.2375 76.2951 16.2086 76.2932 16.1809 76.2857C16.1532 76.2782 16.1273 76.2652 16.1047 76.2477C15.7571 75.9749 15.4127 75.6872 15.0813 75.396C15.0517 75.3709 15.0304 75.3373 15.0204 75.2998L15.0103 75.2884ZM7.65734 45.2208C7.64684 45.1781 7.64953 45.1332 7.66506 45.092C7.80642 44.6742 7.96266 44.2594 8.12066 43.8511C8.13065 43.8233 8.14622 43.7977 8.16642 43.7761C8.18662 43.7544 8.21104 43.7371 8.23817 43.7253C8.26529 43.7134 8.29454 43.7072 8.32416 43.707C8.35376 43.7068 8.3831 43.7127 8.41036 43.7243C8.43691 43.7351 8.46104 43.7511 8.48139 43.7713C8.50173 43.7915 8.51788 43.8156 8.5289 43.842C8.53992 43.8685 8.54559 43.8969 8.54559 43.9256C8.5456 43.9543 8.53993 43.9827 8.52892 44.0091C8.37091 44.4174 8.21243 44.7976 8.08467 45.24C8.06384 45.294 8.02292 45.3379 7.97048 45.3624C7.91804 45.3869 7.85814 45.3903 7.80332 45.3717C7.77111 45.3611 7.74193 45.3428 7.71828 45.3185C7.69462 45.2942 7.67718 45.2646 7.66743 45.2322L7.65734 45.2208ZM17.1133 76.9133C17.1054 76.8817 17.1043 76.8488 17.1103 76.8168C17.1164 76.7848 17.1292 76.7545 17.1481 76.728C17.1651 76.705 17.1864 76.6855 17.2108 76.6707C17.2353 76.6559 17.2624 76.6461 17.2907 76.6418C17.3189 76.6375 17.3477 76.6388 17.3755 76.6457C17.4032 76.6525 17.4294 76.6647 17.4524 76.6817C17.7994 76.9265 18.1732 77.1922 18.5347 77.412C18.5848 77.4419 18.6213 77.4902 18.6364 77.5466C18.6515 77.603 18.6441 77.663 18.6156 77.714C18.6014 77.7395 18.5823 77.7619 18.5593 77.7798C18.5363 77.7978 18.5099 77.8109 18.4818 77.8185C18.4536 77.826 18.4242 77.8278 18.3953 77.8238C18.3664 77.8197 18.3386 77.8099 18.3136 77.7949C17.9403 77.5572 17.5665 77.2915 17.2146 77.055C17.1881 77.0388 17.1653 77.0172 17.1475 76.9917C17.1298 76.9662 17.1175 76.9372 17.1116 76.9067L17.1133 76.9133ZM8.62506 42.766C8.61167 42.7184 8.61547 42.6675 8.63582 42.6224C8.81529 42.2155 9.0114 41.8181 9.20094 41.4225C9.21511 41.397 9.23426 41.3747 9.25725 41.3567C9.28024 41.3388 9.30661 41.3256 9.33479 41.3181C9.36297 41.3105 9.39237 41.3087 9.42126 41.3128C9.45015 41.3168 9.47792 41.3266 9.50294 41.3416C9.55237 41.3705 9.58841 41.4178 9.60323 41.4731C9.61805 41.5284 9.61046 41.5873 9.5821 41.6371C9.3908 42.0261 9.20654 42.4413 9.0218 42.8286C8.99289 42.878 8.94566 42.9141 8.89035 42.9289C8.83504 42.9437 8.77611 42.9361 8.72636 42.9078C8.70216 42.8941 8.681 42.8757 8.66419 42.8536C8.64737 42.8314 8.63525 42.8061 8.62858 42.7792L8.62506 42.766ZM19.355 78.3462C19.3435 78.2888 19.3524 78.2292 19.3802 78.1776C19.4112 78.1288 19.4595 78.0933 19.5154 78.0784C19.5713 78.0634 19.6308 78.0699 19.6822 78.0967C20.0568 78.313 20.4445 78.5257 20.8287 78.7254C20.8781 78.7543 20.9142 78.8015 20.929 78.8568C20.9438 78.9121 20.9362 78.9711 20.9079 79.0208C20.8778 79.0689 20.8306 79.1039 20.7757 79.1186C20.7209 79.1332 20.6626 79.1266 20.6124 79.1C20.2133 78.8973 19.7993 78.6916 19.4427 78.4635C19.4015 78.4349 19.3707 78.3938 19.355 78.3462ZM9.83196 40.4161C9.81769 40.3601 9.82431 40.3008 9.85058 40.2493C10.0699 39.8598 10.2975 39.4751 10.5287 39.1035C10.5586 39.0534 10.6069 39.0169 10.6633 39.0018C10.7197 38.9867 10.7797 38.9941 10.8307 39.0226C10.8801 39.0515 10.9162 39.0988 10.931 39.1541C10.9458 39.2094 10.9382 39.2683 10.9099 39.3181C10.6853 39.6878 10.4624 40.0642 10.2479 40.4454C10.218 40.4955 10.1697 40.532 10.1133 40.5471C10.057 40.5622 9.99689 40.5548 9.94592 40.5263C9.91638 40.5205 9.88849 40.5083 9.86425 40.4904C9.84 40.4726 9.82 40.4496 9.80569 40.4231L9.83196 40.4161ZM21.7228 79.5413C21.7085 79.4917 21.7117 79.4386 21.7319 79.3911C21.7618 79.341 21.8101 79.3045 21.8664 79.2893C21.9228 79.2742 21.9829 79.2817 22.0339 79.3102C22.4259 79.4866 22.8311 79.6595 23.2376 79.8109C23.2908 79.833 23.3335 79.8747 23.3568 79.9274C23.3801 79.9802 23.3822 80.0398 23.3627 80.094C23.3533 80.1216 23.3383 80.1468 23.3187 80.1682C23.299 80.1897 23.2751 80.2068 23.2485 80.2185C23.2219 80.2303 23.1932 80.2364 23.1641 80.2365C23.1351 80.2366 23.1063 80.2307 23.0796 80.2192C22.6648 80.0629 22.2859 79.883 21.8526 79.7106C21.8117 79.7033 21.7735 79.6847 21.7425 79.657C21.7115 79.6293 21.6887 79.5935 21.6769 79.5536L21.7228 79.5413ZM11.25 38.1714C11.2399 38.1408 11.2371 38.1082 11.242 38.0763C11.247 38.0444 11.2594 38.0141 11.2783 37.9879C11.5326 37.6242 11.7888 37.2671 12.0598 36.913C12.0772 36.8902 12.099 36.8711 12.1238 36.8568C12.1487 36.8425 12.1761 36.8332 12.2045 36.8295C12.233 36.8258 12.2618 36.8278 12.2895 36.8353C12.3172 36.8428 12.3431 36.8557 12.3658 36.8732C12.4124 36.9094 12.443 36.9625 12.4507 37.021C12.4585 37.0795 12.4429 37.1387 12.4073 37.1858C12.1459 37.5232 11.8898 37.8804 11.6402 38.2357C11.6103 38.2859 11.562 38.3224 11.5056 38.3375C11.4492 38.3526 11.3892 38.3451 11.3382 38.3167C11.3079 38.3048 11.2804 38.287 11.2574 38.2641C11.2343 38.2412 11.2162 38.2139 11.2041 38.1837L11.25 38.1714ZM24.1789 80.4875C24.1657 80.4483 24.1667 80.4057 24.1818 80.3671C24.2 80.3115 24.2393 80.2652 24.2912 80.2382C24.3431 80.2111 24.4036 80.2054 24.4596 80.2223C24.8692 80.3589 25.2901 80.4853 25.7057 80.5921C25.7336 80.5992 25.7599 80.6119 25.7829 80.6292C25.806 80.6466 25.8253 80.6684 25.8398 80.6933C25.8544 80.7182 25.8638 80.7458 25.8676 80.7744C25.8714 80.803 25.8694 80.832 25.8619 80.8599C25.8459 80.9154 25.8092 80.9626 25.7593 80.9917C25.7094 81.0208 25.6503 81.0295 25.5941 81.0161C25.1684 80.8979 24.7409 80.7732 24.3218 80.6533C24.2815 80.6455 24.2442 80.6265 24.2143 80.5984C24.1843 80.5703 24.163 80.5343 24.1526 80.4946L24.1789 80.4875ZM12.8504 36.0819C12.8405 36.0472 12.8393 36.0106 12.8471 35.9754C12.8548 35.9401 12.8712 35.9074 12.8948 35.8801C13.1777 35.5439 13.4754 35.2108 13.7767 34.8908C13.8159 34.8488 13.8701 34.824 13.9275 34.8218C13.9849 34.8195 14.0409 34.8402 14.0832 34.8791C14.1258 34.9192 14.1511 34.9744 14.1537 35.0329C14.1562 35.0913 14.1357 35.1485 14.0967 35.1921C13.8002 35.5038 13.509 35.8351 13.2244 36.1647C13.206 36.187 13.1833 36.2054 13.1577 36.2189C13.1321 36.2323 13.1041 36.2405 13.0752 36.243C13.0464 36.2455 13.0174 36.2422 12.9898 36.2333C12.9623 36.2245 12.9368 36.2102 12.9149 36.1913C12.87 36.1695 12.8319 36.1359 12.8044 36.0943L12.8504 36.0819ZM26.7195 81.1719C26.7019 81.1421 26.6928 81.108 26.6931 81.0734C26.7051 81.017 26.739 80.9677 26.7873 80.9363C26.8356 80.9049 26.8944 80.8939 26.9508 80.9058C27.3826 80.9942 27.8126 81.076 28.2374 81.1381C28.2657 81.1419 28.293 81.1515 28.3175 81.1662C28.342 81.1808 28.3633 81.2003 28.38 81.2235C28.3967 81.2467 28.4086 81.273 28.4148 81.3009C28.4211 81.3287 28.4216 81.3576 28.4163 81.3857C28.4124 81.414 28.4029 81.4413 28.3884 81.466C28.374 81.4907 28.3547 81.5122 28.3319 81.5295C28.3091 81.5467 28.2831 81.5592 28.2554 81.5664C28.2277 81.5736 28.1988 81.5752 28.1705 81.5712C27.7374 81.5043 27.3008 81.4243 26.8624 81.3377C26.8195 81.333 26.7789 81.316 26.7454 81.2888C26.7119 81.2616 26.6869 81.2252 26.6736 81.1842L26.7195 81.1719ZM14.6497 34.1573C14.6401 34.1202 14.6402 34.0811 14.65 34.044C14.6597 34.0069 14.6789 33.973 14.7055 33.9454C15.028 33.6432 15.356 33.3442 15.6896 33.0484C15.7112 33.0294 15.7365 33.015 15.7638 33.0058C15.7911 32.9967 15.82 32.9932 15.8487 32.9953C15.8774 32.9974 15.9054 33.0052 15.9311 33.0182C15.9568 33.0313 15.9796 33.0493 15.9983 33.0712C16.0172 33.0929 16.0316 33.1181 16.0408 33.1454C16.0499 33.1727 16.0535 33.2016 16.0514 33.2303C16.0492 33.259 16.0414 33.287 16.0284 33.3127C16.0154 33.3384 15.9974 33.3612 15.9754 33.3799C15.6505 33.664 15.3224 33.963 15.0159 34.2632C14.9951 34.2836 14.9704 34.2995 14.9434 34.3102C14.9163 34.3208 14.8874 34.3259 14.8583 34.3251C14.8293 34.3244 14.8007 34.3178 14.7742 34.3058C14.7477 34.2939 14.7239 34.2766 14.7041 34.2553C14.6618 34.2391 14.6264 34.2089 14.6038 34.1696L14.6497 34.1573ZM29.3299 81.5913L29.3105 81.5191C29.317 81.4609 29.346 81.4075 29.3913 81.3704C29.4365 81.3333 29.4945 81.3154 29.5529 81.3204C29.8782 81.3529 30.2083 81.377 30.535 81.388L30.855 81.4007C30.9125 81.4031 30.9668 81.4282 31.0058 81.4705C31.0448 81.5128 31.0655 81.5689 31.0633 81.6264C31.0629 81.6553 31.0568 81.6838 31.0454 81.7103C31.0339 81.7368 31.0172 81.7608 30.9964 81.7808C30.9755 81.8008 30.9509 81.8164 30.924 81.8268C30.897 81.8372 30.8682 81.8421 30.8394 81.8412L30.5193 81.8285C30.1778 81.8144 29.8476 81.7903 29.5092 81.7614C29.4538 81.7629 29.3997 81.7445 29.3567 81.7095C29.3138 81.6746 29.2848 81.6253 29.2751 81.5708L29.3299 81.5913ZM31.9644 81.6805L31.9503 81.628C31.9498 81.5699 31.9717 81.5139 32.0116 81.4718C32.0515 81.4296 32.1062 81.4045 32.1641 81.4018C32.591 81.393 33.0293 81.3741 33.4705 81.3403C33.4988 81.3377 33.5272 81.3409 33.5542 81.3496C33.5811 81.3583 33.6061 81.3724 33.6275 81.391C33.6489 81.4095 33.6663 81.4323 33.6787 81.4577C33.6911 81.4832 33.6983 81.5109 33.6998 81.5392C33.7048 81.5966 33.6869 81.6537 33.65 81.6979C33.613 81.7421 33.56 81.7698 33.5026 81.775C33.0547 81.8105 32.6099 81.8312 32.1765 81.8418C32.147 81.8479 32.1165 81.8481 32.087 81.8422C32.0574 81.8363 32.0294 81.8246 32.0044 81.8076C31.9795 81.7906 31.9583 81.7688 31.942 81.7434C31.9257 81.7181 31.9147 81.6897 31.9096 81.66L31.9644 81.6805ZM34.5924 81.483L34.5836 81.4501C34.5771 81.3932 34.5933 81.3361 34.6286 81.291C34.664 81.246 34.7157 81.2167 34.7725 81.2095C35.2254 81.1492 35.6597 81.0891 36.0752 81.0293C36.1033 81.0244 36.132 81.0252 36.1598 81.0317C36.1875 81.0382 36.2136 81.0503 36.2365 81.0671C36.2595 81.084 36.2787 81.1054 36.2932 81.1299C36.3077 81.1544 36.317 81.1816 36.3206 81.2099C36.3256 81.2382 36.3248 81.2672 36.3185 81.2952C36.3122 81.3232 36.3004 81.3497 36.2838 81.3731C36.2671 81.3965 36.246 81.4164 36.2217 81.4317C36.1973 81.4469 36.1702 81.4571 36.1419 81.4618C35.7028 81.5302 35.2686 81.5903 34.826 81.6456C34.795 81.6579 34.7615 81.6627 34.7284 81.6596C34.6952 81.6565 34.6632 81.6456 34.635 81.6277C34.6069 81.6098 34.5834 81.5855 34.5665 81.5568C34.5495 81.5281 34.5397 81.4957 34.5377 81.4624L34.5924 81.483ZM37.1922 81.0749C37.1872 81.0466 37.188 81.0176 37.1943 80.9896C37.2006 80.9615 37.2124 80.935 37.2291 80.9116C37.2457 80.8882 37.2668 80.8683 37.2911 80.8531C37.3155 80.8378 37.3426 80.8276 37.371 80.8229C37.7911 80.7103 38.2254 80.6503 38.6508 80.5574C38.6792 80.5506 38.7087 80.5497 38.7375 80.5546C38.7662 80.5595 38.7937 80.5701 38.8183 80.5858C38.8428 80.6016 38.864 80.6221 38.8805 80.6462C38.8969 80.6703 38.9084 80.6974 38.9142 80.726C38.9209 80.7544 38.9218 80.7839 38.9169 80.8127C38.912 80.8414 38.9014 80.8689 38.8857 80.8935C38.8699 80.918 38.8494 80.9392 38.8253 80.9557C38.8012 80.9722 38.7741 80.9836 38.7455 80.9894C38.3187 81.1037 37.8797 81.1721 37.4507 81.2519C37.4174 81.2682 37.3804 81.2758 37.3433 81.2738C37.3063 81.2718 37.2703 81.2604 37.2389 81.2406C37.2075 81.2208 37.1817 81.1933 37.1639 81.1607C37.1462 81.1281 37.137 81.0915 37.1374 81.0543L37.1922 81.0749ZM39.7664 80.5188C39.7588 80.491 39.7571 80.4618 39.7613 80.4333C39.7655 80.4048 39.7755 80.3774 39.7907 80.3528C39.8059 80.3283 39.826 80.3072 39.8497 80.2907C39.8734 80.2743 39.9002 80.2629 39.9285 80.2572C40.3552 80.1429 40.7754 80.0303 41.1956 79.9177C41.2513 79.9028 41.3107 79.9106 41.3606 79.9394C41.4106 79.9683 41.447 80.0158 41.462 80.0715C41.4685 80.0993 41.4695 80.1282 41.4649 80.1564C41.4603 80.1846 41.4502 80.2116 41.4351 80.2359C41.4201 80.2602 41.4004 80.2813 41.3772 80.2979C41.3539 80.3146 41.3277 80.3266 41.2998 80.3331C40.8797 80.4457 40.4529 80.56 40.0262 80.6743C39.9944 80.6903 39.9592 80.6983 39.9236 80.6975C39.888 80.6968 39.8532 80.6873 39.8221 80.6699C39.7911 80.6525 39.7648 80.6278 39.7455 80.5979C39.7262 80.5679 39.7146 80.5337 39.7116 80.4983L39.7664 80.5188ZM42.3243 79.8756C42.3093 79.8204 42.3161 79.7616 42.3431 79.7112C42.3702 79.6607 42.4155 79.6226 42.4697 79.6044C42.8702 79.4971 43.2904 79.3846 43.7127 79.201C43.7681 79.1823 43.8287 79.1859 43.8815 79.2112C43.9343 79.2365 43.9751 79.2814 43.9952 79.3364C44.0123 79.3919 44.0078 79.4518 43.9827 79.5042C43.9576 79.5565 43.9138 79.5975 43.8598 79.619C43.424 79.778 42.9959 79.9138 42.5644 80.0365C42.5087 80.0514 42.4493 80.0436 42.3993 80.0147C42.3494 79.9859 42.3129 79.9384 42.298 79.8827L42.3243 79.8756ZM44.8022 78.9865C44.788 78.9352 44.7931 78.8804 44.8166 78.8326C44.8401 78.7848 44.8804 78.7473 44.9297 78.7272C45.3209 78.559 45.7169 78.3825 46.1226 78.1894C46.1756 78.1648 46.2361 78.1619 46.2913 78.1813C46.3464 78.2007 46.3918 78.2409 46.4178 78.2933C46.4423 78.3463 46.4452 78.4068 46.4258 78.462C46.4064 78.5171 46.3663 78.5625 46.3139 78.5885C45.9017 78.7834 45.4991 78.9616 45.1014 79.1315C45.0468 79.1542 44.9856 79.1544 44.9309 79.1322C44.8762 79.1099 44.8325 79.067 44.8092 79.0128L44.8022 78.9865ZM47.1887 77.8615C47.175 77.8129 47.1792 77.7611 47.2005 77.7153C47.2218 77.6696 47.2589 77.633 47.3049 77.6122C47.6807 77.413 48.0679 77.2037 48.4534 76.9878C48.5054 76.959 48.5667 76.952 48.6239 76.9684C48.681 76.9847 48.7294 77.0231 48.7583 77.075C48.7849 77.1266 48.7905 77.1865 48.7739 77.2421C48.7573 77.2977 48.7198 77.3448 48.6693 77.3733C48.2773 77.5909 47.89 77.8003 47.5011 78.003C47.449 78.0275 47.3895 78.0311 47.3349 78.013C47.2803 77.9949 47.2347 77.9565 47.2076 77.9057L47.1887 77.8615ZM49.4901 76.5763C49.4788 76.5298 49.4827 76.4808 49.5012 76.4365C49.5197 76.3923 49.552 76.3552 49.5932 76.3306C49.9637 76.1117 50.3374 75.8779 50.711 75.6441C50.7348 75.628 50.7617 75.6169 50.79 75.6116C50.8182 75.6062 50.8473 75.6067 50.8754 75.6131C50.9034 75.6194 50.9299 75.6314 50.9532 75.6483C50.9764 75.6653 50.9959 75.6868 51.0105 75.7116C51.0267 75.7354 51.0377 75.7623 51.0431 75.7906C51.0484 75.8188 51.0479 75.8479 51.0416 75.876C51.0352 75.904 51.0232 75.9305 51.0063 75.9537C50.9893 75.977 50.9678 75.9965 50.943 76.0111C50.5712 76.2515 50.1976 76.4853 49.8204 76.706C49.7958 76.7212 49.7685 76.7313 49.74 76.7358C49.7114 76.7403 49.6823 76.739 49.6542 76.7321C49.6262 76.7252 49.5998 76.7128 49.5766 76.6956C49.5534 76.6784 49.5338 76.6568 49.5191 76.6319L49.4901 76.5763ZM51.7135 75.1573C51.7006 75.1127 51.7024 75.065 51.7186 75.0214C51.7347 74.9778 51.7645 74.9406 51.8034 74.9151C52.1669 74.6699 52.5221 74.4199 52.8756 74.1634C52.8986 74.1458 52.9248 74.1331 52.9528 74.1258C52.9808 74.1185 53.01 74.1169 53.0386 74.121C53.0672 74.1251 53.0947 74.1349 53.1195 74.1498C53.1443 74.1647 53.1659 74.1844 53.183 74.2077C53.2165 74.2557 53.23 74.3149 53.2205 74.3726C53.211 74.4304 53.1793 74.4821 53.1321 74.5169C52.7787 74.7734 52.4187 75.0317 52.0485 75.2786C52.0014 75.3117 51.9431 75.3247 51.8864 75.3149C51.8296 75.305 51.7791 75.2731 51.7459 75.226L51.7135 75.1573ZM53.8438 73.6014C53.833 73.5592 53.8346 73.5148 53.8486 73.4736C53.8625 73.4324 53.8881 73.3961 53.9223 73.3692C54.2723 73.0995 54.6139 72.8251 54.9406 72.5475C54.9623 72.5278 54.9879 72.5128 55.0158 72.5035C55.0436 72.4942 55.0731 72.4908 55.1024 72.4936C55.1316 72.4963 55.1599 72.5052 55.1855 72.5195C55.2111 72.5339 55.2335 72.5534 55.2511 72.5769C55.2698 72.5982 55.284 72.6229 55.2929 72.6498C55.3018 72.6767 55.3052 72.705 55.3029 72.7332C55.3006 72.7614 55.2926 72.7889 55.2795 72.8139C55.2664 72.839 55.2484 72.8611 55.2265 72.8791C54.8884 73.1667 54.5468 73.4412 54.192 73.7192C54.1695 73.7368 54.1437 73.7498 54.1161 73.7575C54.0886 73.7651 54.0598 73.7672 54.0314 73.7637C54.003 73.7602 53.9756 73.7511 53.9507 73.737C53.9258 73.7229 53.904 73.704 53.8864 73.6815L53.8438 73.6014ZM54.0006 67.4375C53.8863 67.0107 53.8293 66.5616 53.7692 66.1274C53.764 66.0987 53.7648 66.0692 53.7716 66.0409C53.7784 66.0126 53.791 65.986 53.8085 65.9627C53.8261 65.9395 53.8483 65.9202 53.8738 65.906C53.8992 65.8918 53.9273 65.883 53.9563 65.8802C53.9848 65.876 54.0139 65.8776 54.0419 65.8847C54.0698 65.8919 54.096 65.9046 54.119 65.922C54.142 65.9394 54.1613 65.9612 54.1758 65.9861C54.1903 66.0111 54.1997 66.0387 54.2034 66.0673C54.26 66.4884 54.3415 66.9239 54.4326 67.3428C54.4394 67.3712 54.4403 67.4007 54.4354 67.4294C54.4305 67.4582 54.4199 67.4857 54.4041 67.5103C54.3884 67.5348 54.3679 67.556 54.3438 67.5725C54.3197 67.5889 54.2926 67.6004 54.2639 67.6062C54.2309 67.6215 54.1946 67.6285 54.1582 67.6266C54.1218 67.6248 54.0864 67.614 54.055 67.5954C54.0237 67.5768 53.9974 67.5508 53.9784 67.5197C53.9594 67.4886 53.9482 67.4533 53.9459 67.417L54.0006 67.4375ZM54.3419 68.7111C54.3254 68.657 54.3307 68.5986 54.3567 68.5483C54.3826 68.4979 54.4271 68.4597 54.4808 68.4417C54.5367 68.4248 54.597 68.4304 54.6489 68.4572C54.7007 68.484 54.7401 68.53 54.7586 68.5854C54.8729 69.0122 55.0446 69.4165 55.211 69.8012C55.2319 69.8559 55.2312 69.9164 55.2092 69.9707C55.1871 70.0249 55.1453 70.0687 55.0922 70.0933C55.0656 70.1044 55.037 70.1101 55.0082 70.11C54.9793 70.1099 54.9508 70.1041 54.9242 70.0929C54.8976 70.0817 54.8735 70.0653 54.8533 70.0447C54.8332 70.0241 54.8173 69.9996 54.8066 69.9728C54.6367 69.5751 54.4812 69.1523 54.3366 68.6915L54.3419 68.7111ZM53.6468 64.8302L53.6345 64.7843C53.6121 64.3375 53.6167 63.8898 53.6482 63.4436C53.6519 63.3852 53.6782 63.3306 53.7216 63.2914C53.765 63.2522 53.822 63.2314 53.8804 63.2336C53.9092 63.2354 53.9374 63.2429 53.9633 63.2557C53.9892 63.2684 54.0122 63.2862 54.0312 63.308C54.0501 63.3298 54.0645 63.3551 54.0736 63.3825C54.0826 63.4099 54.0861 63.4389 54.0839 63.4676C54.0541 63.8996 54.0504 64.3329 54.0727 64.7654C54.0739 64.7943 54.0692 64.8232 54.0591 64.8504C54.0489 64.8776 54.0334 64.9024 54.0135 64.9235C53.9935 64.9446 53.9696 64.9614 53.9431 64.9731C53.9165 64.9848 53.8879 64.9911 53.8589 64.9915C53.8297 64.9977 53.7994 64.9977 53.7702 64.9917C53.7409 64.9857 53.7132 64.9736 53.6888 64.9564C53.6644 64.9392 53.6437 64.9171 53.6282 64.8916C53.6127 64.866 53.6026 64.8376 53.5986 64.8079L53.6468 64.8302ZM55.3815 71.1206C55.369 71.074 55.3724 71.0245 55.391 70.9801C55.4097 70.9356 55.4426 70.8986 55.4846 70.8748C55.5352 70.8482 55.5941 70.8418 55.6492 70.8572C55.7043 70.8725 55.7515 70.9083 55.7811 70.9572C55.8881 71.1467 56.0083 71.3326 56.125 71.5054C56.3782 71.2687 56.6297 71.0254 56.868 70.7856C56.91 70.7437 56.9669 70.7201 57.0262 70.7201C57.0855 70.72 57.1425 70.7434 57.1846 70.7852C57.2228 70.8279 57.2438 70.8832 57.2435 70.9405C57.2433 70.9978 57.2218 71.0529 57.1832 71.0952C56.9269 71.3468 56.6593 71.6085 56.3767 71.8672L56.5013 72.0168C56.5374 72.0631 56.5538 72.1218 56.5471 72.1802C56.5404 72.2386 56.511 72.292 56.4653 72.329C56.4428 72.3466 56.417 72.3596 56.3894 72.3673C56.3618 72.3749 56.333 72.377 56.3047 72.3735C56.2763 72.37 56.2488 72.361 56.224 72.3468C56.1991 72.3327 56.1772 72.3138 56.1597 72.2913L55.9593 72.0424L55.9124 71.9986C55.8934 71.9645 55.8831 71.9261 55.8825 71.887C55.7237 71.6622 55.5746 71.4207 55.4302 71.1709L55.3815 71.1206ZM53.8451 62.2087C53.8296 62.178 53.8207 62.1445 53.8187 62.1102C53.9144 61.6607 54.0702 61.2261 54.2817 60.8181C54.3116 60.768 54.3598 60.7315 54.4162 60.7164C54.4726 60.7012 54.5327 60.7087 54.5837 60.7372C54.6092 60.7513 54.6316 60.7705 54.6495 60.7935C54.6675 60.8165 54.6806 60.8428 54.6881 60.871C54.6957 60.8992 54.6975 60.9286 54.6935 60.9575C54.6894 60.9864 54.6796 61.0142 54.6646 61.0392C54.4755 61.4144 54.3338 61.8117 54.2426 62.2218C54.2368 62.2498 54.2254 62.2763 54.209 62.2997C54.1926 62.3231 54.1717 62.3429 54.1474 62.3579C54.1232 62.373 54.0961 62.383 54.0679 62.3873C54.0396 62.3915 54.0108 62.39 53.9832 62.3828C53.9345 62.3759 53.8896 62.3528 53.8558 62.3171C53.8219 62.2815 53.8012 62.2354 53.7969 62.1864L53.8451 62.2087ZM57.0429 73.1453C57.0337 73.1122 57.0326 73.0774 57.0395 73.0437C57.0463 73.0101 57.0611 72.9786 57.0825 72.9517C57.1197 72.9077 57.1724 72.8797 57.2297 72.8735C57.287 72.8673 57.3445 72.8834 57.3903 72.9185C57.6317 73.1137 57.8958 73.2792 58.1767 73.4114C58.2731 73.456 58.3713 73.5071 58.4742 73.5499C58.5223 73.58 58.5572 73.6272 58.5719 73.682C58.5866 73.7368 58.58 73.7952 58.5534 73.8453C58.5392 73.8708 58.52 73.8932 58.4971 73.9111C58.4741 73.9291 58.4477 73.9422 58.4195 73.9498C58.3913 73.9573 58.3619 73.9591 58.333 73.9551C58.3042 73.951 58.2764 73.9412 58.2514 73.9262C58.1484 73.8834 58.0503 73.8323 57.9456 73.783C57.6434 73.6284 57.358 73.4432 57.0938 73.2302C57.0506 73.2053 57.0161 73.168 56.9947 73.123L57.0429 73.1453ZM57.7244 70.0425C57.7145 70.0078 57.7133 69.9712 57.7211 69.9359C57.7288 69.9007 57.7452 69.8679 57.7688 69.8406C58.0714 69.4991 58.3542 69.163 58.6043 68.8356C58.6424 68.7909 58.6961 68.7625 58.7545 68.756C58.8129 68.7495 58.8716 68.7655 58.9186 68.8007C58.9411 68.8186 58.9599 68.8408 58.9738 68.866C58.9877 68.8912 58.9964 68.919 58.9995 68.9476C59.0026 68.9762 59 69.0052 58.9918 69.0328C58.9836 69.0604 58.97 69.0861 58.9518 69.1084C58.6969 69.4441 58.429 69.7833 58.1001 70.1318C58.06 70.1744 58.0049 70.1997 57.9464 70.2022C57.8879 70.2048 57.8307 70.1843 57.7871 70.1453C57.7597 70.1352 57.7353 70.1185 57.7159 70.0967C57.6966 70.0749 57.6829 70.0486 57.6762 70.0202L57.7244 70.0425ZM55.1634 60.0119C55.1508 59.9653 55.1542 59.9159 55.1728 59.8714C55.1915 59.8269 55.2244 59.7899 55.2664 59.7661C55.4081 59.6859 55.5594 59.6241 55.7167 59.5821C56.0343 59.5016 56.3657 59.4921 56.6873 59.5543C56.7156 59.5595 56.7426 59.5703 56.7668 59.586C56.7909 59.6017 56.8117 59.622 56.8279 59.6459C56.8441 59.6697 56.8554 59.6965 56.8611 59.7247C56.8669 59.7529 56.867 59.7819 56.8614 59.8102C56.8568 59.8381 56.8467 59.8648 56.8315 59.8887C56.8164 59.9126 56.7966 59.9332 56.7733 59.9493C56.7501 59.9654 56.7238 59.9766 56.6961 59.9823C56.6684 59.9881 56.6398 59.9881 56.6121 59.9826C56.3528 59.9364 56.0867 59.9454 55.831 60.0089C55.7087 60.04 55.5913 60.0881 55.4823 60.1516C55.4574 60.1657 55.43 60.1747 55.4016 60.1782C55.3732 60.1817 55.3445 60.1795 55.3169 60.1719C55.2894 60.1642 55.2636 60.1512 55.2411 60.1336C55.2186 60.116 55.1998 60.0941 55.1858 60.0692L55.1634 60.0119ZM59.3858 74.3259C59.3738 74.2813 59.3759 74.234 59.3918 74.1906C59.4013 74.1633 59.4163 74.1382 59.4357 74.1168C59.4551 74.0953 59.4786 74.0779 59.5048 74.0657C59.531 74.0534 59.5594 74.0465 59.5883 74.0453C59.6172 74.0442 59.646 74.0488 59.6731 74.0589C60.0796 74.2104 60.4957 74.3452 60.9061 74.4322C60.9336 74.4401 60.9594 74.4532 60.9818 74.471C61.0042 74.4888 61.023 74.5109 61.0369 74.5359C61.0508 74.561 61.0596 74.5885 61.0628 74.617C61.066 74.6454 61.0636 74.6742 61.0557 74.7018C61.0479 74.7293 61.0347 74.7551 61.0169 74.7775C60.9991 74.7999 60.977 74.8187 60.952 74.8326C60.927 74.8465 60.8994 74.8553 60.871 74.8585C60.8425 74.8618 60.8137 74.8593 60.7862 74.8514C60.3622 74.7398 59.9378 74.6002 59.5164 74.4457C59.4761 74.4417 59.4378 74.4262 59.4061 74.401C59.3744 74.3758 59.3506 74.342 59.3376 74.3036L59.3858 74.3259ZM59.3331 67.9578C59.3252 67.9279 59.3238 67.8966 59.329 67.8661C59.3342 67.8356 59.3458 67.8065 59.3631 67.7809C59.5955 67.4193 59.805 67.0435 59.9905 66.6558C60.0204 66.6057 60.0686 66.5692 60.125 66.5541C60.1814 66.5389 60.2415 66.5464 60.2925 66.5749C60.3419 66.6038 60.3779 66.651 60.3927 66.7063C60.4076 66.7616 60.4 66.8206 60.3716 66.8703C60.1765 67.2747 59.9574 67.6671 59.7154 68.0454C59.7012 68.0709 59.6821 68.0932 59.6591 68.1112C59.6361 68.1291 59.6097 68.1423 59.5816 68.1498C59.5534 68.1574 59.524 68.1592 59.4951 68.1551C59.4662 68.1511 59.4384 68.1413 59.4134 68.1263C59.3763 68.1097 59.3446 68.083 59.3219 68.0493C59.2992 68.0156 59.2864 67.9762 59.2849 67.9355L59.3331 67.9578ZM57.6659 60.2913C57.6521 60.2384 57.657 60.1825 57.6797 60.1328C57.7107 60.0839 57.759 60.0485 57.8149 60.0335C57.8708 60.0185 57.9304 60.025 57.9817 60.0518C58.3865 60.2542 58.7743 60.4892 59.141 60.7545C59.164 60.7714 59.1835 60.7927 59.1983 60.8172C59.2131 60.8416 59.2229 60.8688 59.2272 60.897C59.2315 60.9253 59.2302 60.9541 59.2234 60.9818C59.2165 61.0096 59.2043 61.0357 59.1873 61.0587C59.1522 61.1059 59.0999 61.1374 59.0418 61.1464C58.9837 61.1554 58.9243 61.1412 58.8765 61.1068C58.5325 60.8566 58.1675 60.6366 57.7856 60.4492C57.7438 60.4373 57.7061 60.4143 57.6765 60.3825C57.6469 60.3508 57.6265 60.3115 57.6177 60.269L57.6659 60.2913ZM61.9216 75.0186C61.9073 74.9899 61.8989 74.9586 61.897 74.9267C61.9022 74.8983 61.913 74.8713 61.9287 74.8472C61.9444 74.8231 61.9648 74.8023 61.9886 74.7861C62.0124 74.7699 62.0392 74.7586 62.0674 74.7529C62.0956 74.7471 62.1247 74.747 62.1529 74.7525C62.5812 74.8278 63.0108 74.8816 63.4434 74.9204C63.5007 74.9257 63.5537 74.9534 63.5906 74.9976C63.6275 75.0418 63.6453 75.0988 63.6403 75.1562C63.6385 75.185 63.631 75.2131 63.6182 75.239C63.6055 75.2649 63.5877 75.288 63.5659 75.3069C63.5441 75.3259 63.5188 75.3403 63.4914 75.3493C63.464 75.3584 63.435 75.3619 63.4063 75.3596C62.9588 75.3177 62.5143 75.2609 62.0777 75.1808C62.0272 75.1797 61.9788 75.1604 61.9413 75.1265C61.9038 75.0927 61.8797 75.0464 61.8734 74.9963L61.9216 75.0186ZM60.437 65.5651C60.4288 65.5274 60.4304 65.4881 60.4417 65.4512C60.5542 65.0487 60.6132 64.633 60.6171 64.215C60.6168 64.1865 60.6222 64.1581 60.6329 64.1316C60.6436 64.1051 60.6594 64.081 60.6794 64.0606C60.6994 64.0402 60.7233 64.0239 60.7496 64.0127C60.7759 64.0016 60.8041 63.9957 60.8327 63.9954C60.8615 63.9942 60.8903 63.9989 60.9172 64.0093C60.9442 64.0196 60.9687 64.0354 60.9893 64.0556C61.0099 64.0758 61.0261 64.1 61.0369 64.1268C61.0478 64.1535 61.053 64.1822 61.0523 64.211C61.05 64.6699 60.9878 65.1265 60.8674 65.5694C60.8505 65.6258 60.8121 65.6733 60.7604 65.7017C60.7088 65.73 60.648 65.7368 60.5913 65.7208C60.5452 65.7172 60.5014 65.6994 60.4657 65.6699C60.4301 65.6404 60.4045 65.6006 60.3924 65.5559L60.437 65.5651ZM59.7513 61.8505C59.7409 61.8092 59.7422 61.7658 59.7549 61.7252C59.7676 61.6845 59.7912 61.6482 59.8233 61.6201C59.8679 61.5843 59.9248 61.5675 59.9816 61.5734C60.0385 61.5792 60.0908 61.6072 60.1272 61.6513C60.4293 62.0143 60.6661 62.4271 60.827 62.8711C60.8371 62.898 60.8418 62.9266 60.8408 62.9553C60.8398 62.984 60.8331 63.0122 60.8211 63.0383C60.8091 63.0645 60.7921 63.0879 60.771 63.1074C60.7499 63.1269 60.7251 63.142 60.6982 63.1519C60.6714 63.163 60.6426 63.1684 60.6136 63.1679C60.5846 63.1674 60.556 63.1608 60.5297 63.1488C60.5033 63.1367 60.4797 63.1193 60.4604 63.0976C60.4411 63.076 60.4264 63.0506 60.4174 63.0231C60.2704 62.6346 60.0616 62.2723 59.7992 61.9503C59.7566 61.9259 59.7239 61.8873 59.7067 61.8414L59.7513 61.8505ZM64.5383 75.2252L64.5243 75.1726C64.525 75.114 64.5487 75.0581 64.5902 75.0167C64.6317 74.9753 64.6878 74.9518 64.7464 74.9513C65.175 74.949 65.6115 74.9235 66.0362 74.8801C66.065 74.8767 66.0942 74.879 66.122 74.887C66.1499 74.8951 66.1759 74.9086 66.1985 74.9268C66.2211 74.945 66.2398 74.9675 66.2535 74.9931C66.2673 75.0186 66.2758 75.0467 66.2785 75.0755C66.2836 75.1334 66.2661 75.1909 66.2297 75.2361C66.1932 75.2813 66.1407 75.3107 66.0831 75.3179C65.6453 75.3648 65.1939 75.3872 64.7522 75.393C64.6945 75.4031 64.6352 75.3902 64.5869 75.3572C64.5386 75.3241 64.5051 75.2734 64.4937 75.216L64.5383 75.2252ZM67.1601 74.9519C67.1534 74.9235 67.1525 74.894 67.1574 74.8653C67.1623 74.8365 67.1729 74.809 67.1886 74.7844C67.2044 74.7599 67.2249 74.7387 67.249 74.7223C67.2731 74.7058 67.3002 74.6943 67.3288 74.6886C67.598 74.6164 67.8606 74.5461 68.1298 74.4739C68.2808 74.4335 68.4318 74.393 68.5828 74.3526C68.6102 74.3443 68.6389 74.3415 68.6673 74.3443C68.6957 74.3472 68.7234 74.3556 68.7485 74.3691C68.7737 74.3826 68.796 74.4009 68.8141 74.4231C68.8322 74.4452 68.8457 74.4707 68.854 74.498C68.8633 74.5257 68.8669 74.5549 68.8647 74.584C68.8625 74.6131 68.8544 74.6415 68.841 74.6674C68.8276 74.6933 68.8091 74.7162 68.7867 74.7349C68.7642 74.7535 68.7382 74.7674 68.7103 74.7758C68.5527 74.818 68.4017 74.8585 68.2441 74.9007C67.9684 74.9746 67.6927 75.0484 67.4169 75.1223C67.3854 75.1357 67.3513 75.1414 67.3172 75.1391C67.2831 75.1368 67.25 75.1264 67.2207 75.1089C67.1913 75.0915 67.1665 75.0673 67.1482 75.0384C67.1299 75.0096 67.1187 74.9768 67.1155 74.9428L67.1601 74.9519ZM69.678 74.1857C69.6638 74.1344 69.669 74.0796 69.6925 74.0318C69.716 73.984 69.7562 73.9465 69.8056 73.9264C70.1985 73.7648 70.5928 73.5818 70.9818 73.379C71.0074 73.366 71.0354 73.3582 71.064 73.356C71.0927 73.3539 71.1215 73.3574 71.1488 73.3664C71.1761 73.3755 71.2013 73.3899 71.223 73.4087C71.2447 73.4276 71.2625 73.4505 71.2753 73.4763C71.3015 73.5271 71.3067 73.5862 71.2897 73.6408C71.2727 73.6954 71.235 73.7411 71.1845 73.768C70.7824 73.9743 70.3768 74.1674 69.9707 74.3325C69.944 74.3436 69.9155 74.3492 69.8866 74.3492C69.8578 74.3491 69.8292 74.3433 69.8026 74.3321C69.7761 74.3209 69.752 74.3045 69.7318 74.2838C69.7116 74.2632 69.6957 74.2388 69.6851 74.212L69.678 74.1857ZM72.0137 72.9759C71.9944 72.9394 71.9862 72.898 71.9902 72.8569C71.9942 72.8158 72.0102 72.7768 72.0362 72.7447C72.3967 72.5144 72.7585 72.2626 73.1036 72.0013C73.1261 71.9837 73.1519 71.9706 73.1795 71.963C73.207 71.9553 73.2358 71.9532 73.2642 71.9567C73.2926 71.9602 73.3201 71.9693 73.3449 71.9834C73.3698 71.9975 73.3917 72.0164 73.4092 72.039C73.4435 72.0869 73.4582 72.1461 73.4503 72.2044C73.4424 72.2628 73.4125 72.3159 73.3667 72.353C73.0168 72.6227 72.6419 72.8779 72.2766 73.1165C72.2261 73.1476 72.1654 73.1574 72.1077 73.1439C72.05 73.1303 72.0001 73.0945 71.9687 73.0442L72.0137 72.9759ZM74.1037 71.3744C74.0931 71.3365 74.0933 71.2964 74.1044 71.2587C74.1154 71.2209 74.1368 71.1869 74.1661 71.1607C74.4893 70.87 74.7941 70.5632 75.0888 70.245C75.1298 70.2027 75.1858 70.1783 75.2447 70.177C75.3036 70.1757 75.3607 70.1976 75.4036 70.238C75.425 70.2574 75.4423 70.281 75.4543 70.3073C75.4663 70.3336 75.4727 70.3621 75.4732 70.391C75.4737 70.4199 75.4682 70.4486 75.4571 70.4753C75.446 70.502 75.4296 70.5262 75.4088 70.5463C75.1092 70.8728 74.7913 71.1832 74.4686 71.5018C74.4248 71.5409 74.3675 71.5613 74.3089 71.5585C74.2503 71.5558 74.195 71.5303 74.1551 71.4873L74.1037 71.3744ZM75.8965 69.4515C75.8892 69.4193 75.8891 69.3857 75.8962 69.3534C75.9034 69.3211 75.9176 69.2907 75.9379 69.2645C76.2058 68.9253 76.4554 68.57 76.6967 68.2098C76.7266 68.1596 76.7748 68.1231 76.8312 68.108C76.8876 68.0929 76.9477 68.1004 76.9987 68.1289C77.0242 68.143 77.0466 68.1622 77.0645 68.1852C77.0825 68.2082 77.0956 68.2345 77.1031 68.2627C77.1107 68.2909 77.1125 68.3203 77.1085 68.3492C77.1044 68.3781 77.0946 68.4059 77.0796 68.4309C76.8335 68.7994 76.5708 69.1583 76.2981 69.5058C76.2619 69.5524 76.2088 69.583 76.1503 69.5907C76.0918 69.5985 76.0326 69.5829 75.9855 69.5473C75.9298 69.5294 75.8824 69.4922 75.8518 69.4424L75.8965 69.4515ZM77.3501 67.2607C77.3428 67.2339 77.3408 67.206 77.3443 67.1785C77.3478 67.151 77.3567 67.1245 77.3705 67.1004C77.5784 66.721 77.7763 66.3302 77.9527 65.9381C77.9642 65.912 77.9807 65.8883 78.0013 65.8685C78.0219 65.8487 78.0462 65.8332 78.0728 65.8228C78.0994 65.8124 78.1278 65.8073 78.1564 65.8079C78.185 65.8085 78.2132 65.8147 78.2393 65.8262C78.2655 65.8376 78.2892 65.8541 78.309 65.8747C78.3288 65.8953 78.3443 65.9196 78.3547 65.9463C78.3651 65.9729 78.3702 66.0013 78.3696 66.0299C78.369 66.0585 78.3628 66.0866 78.3513 66.1128C78.1719 66.5198 77.9692 66.9189 77.7582 67.3132C77.7283 67.3633 77.68 67.3998 77.6236 67.4149C77.5672 67.43 77.5072 67.4225 77.4562 67.3941C77.4224 67.3824 77.3914 67.3637 77.3654 67.3391C77.3394 67.3145 77.319 67.2847 77.3054 67.2515L77.3501 67.2607ZM78.4243 64.8619C78.4149 64.82 78.4153 64.7765 78.4254 64.7349C78.5685 64.3236 78.6968 63.9093 78.797 63.4954C78.8034 63.467 78.8154 63.4403 78.8323 63.4166C78.8493 63.393 78.8708 63.373 78.8956 63.3578C78.9204 63.3427 78.948 63.3326 78.9767 63.3283C79.0055 63.324 79.0348 63.3254 79.063 63.3326C79.1193 63.3472 79.1678 63.3831 79.1981 63.4327C79.2285 63.4824 79.2384 63.5418 79.2257 63.5986C79.1159 64.0292 78.9912 64.4566 78.863 64.871C78.8541 64.8986 78.8397 64.9243 78.8207 64.9463C78.8017 64.9683 78.7785 64.9863 78.7524 64.9992C78.7263 65.0121 78.6979 65.0196 78.6689 65.0213C78.6399 65.023 78.6108 65.0189 78.5834 65.0092C78.5343 65.0112 78.4859 64.9966 78.4462 64.9676C78.4065 64.9386 78.3778 64.8971 78.3647 64.8497L78.4243 64.8619ZM79.0556 62.3073L79.0345 62.2285C79.1017 61.7996 79.1456 61.3673 79.1661 60.9337C79.1714 60.8761 79.1987 60.8229 79.2422 60.785C79.2858 60.7471 79.3424 60.7275 79.4001 60.7302C79.4584 60.7339 79.513 60.7603 79.5523 60.8037C79.5915 60.847 79.6122 60.904 79.61 60.9625C79.5795 61.3999 79.5375 61.8474 79.4724 62.2871C79.4632 62.3451 79.4317 62.3973 79.3845 62.4323C79.3373 62.4673 79.2782 62.4824 79.22 62.4743C79.169 62.4734 79.12 62.4546 79.0814 62.4212C79.0429 62.3878 79.0173 62.3419 79.0092 62.2915L79.0556 62.3073Z" fill="#B5B7BA"/>
</svg>
