<svg width="497" height="163" viewBox="0 0 497 163" fill="none" xmlns="http://www.w3.org/2000/svg">
<g clip-path="url(#clip0_52_476)">
<path d="M6.03089 32.9388C7.84297 32.0779 9.97247 32.2557 11.6158 33.3996L28.4107 45.0852C29.5759 45.8977 31.0826 46.027 32.3683 45.4328L39.4439 42.1547C41.2077 41.3382 43.1283 40.93 45.069 40.9663L46.3306 40.9906C47.3351 41.0068 47.8855 42.179 47.2587 42.9712L46.4752 43.9656C45.2698 45.4935 43.735 46.7303 41.9872 47.5792L34.976 50.9907C33.6983 51.6131 32.8424 52.8662 32.7259 54.2849L31.0223 74.7579C30.8536 76.7668 29.6361 78.5292 27.8281 79.3901C28.3142 70.6027 26.3615 60.8411 25.4414 56.8193C25.3169 56.2696 24.7142 55.9826 24.212 56.2292L24.5294 57.9026C24.6861 58.7191 24.1878 59.5153 23.3883 59.7296L21.2467 60.3076C20.9574 60.3844 20.6481 60.3642 20.3748 60.247C20.0856 60.1257 19.7641 60.1095 19.4668 60.1985L18.7034 60.4289L19.4347 59.9115C19.6637 59.7498 19.8324 59.5234 19.9289 59.2607L20.0856 58.8161L20.3507 58.1087L18.8641 58.8322C17.9078 59.2971 16.8994 59.6366 15.8587 59.8468L10.6234 60.8977L11.1336 66.8719C11.2421 68.1532 10.4627 69.3375 9.24522 69.7377L7.40904 70.34L6.68983 61.6859L5.23133 61.977C4.99427 62.0255 4.84962 61.7183 5.03847 61.5647L6.18759 60.6188L0 54.5557L1.64333 53.5048C2.71611 52.8176 4.11435 52.9591 5.02641 53.8484L9.33362 58.0279L13.4198 54.6649C14.2395 53.9899 15.1435 53.4199 16.1078 52.9753L17.6065 52.2801L16.8953 52.0375L16.4534 51.8799C16.1922 51.7869 15.9069 51.7748 15.6377 51.8476L14.7739 52.086L15.4368 51.6374C15.698 51.4636 15.8868 51.2008 15.9752 50.9017C16.0596 50.6147 16.2404 50.3601 16.4855 50.1863L18.2896 48.8888C18.9605 48.4078 19.8887 48.525 20.419 49.1636L21.5039 50.4733C22.0142 50.2388 22.1749 49.5881 21.8334 49.1434C19.3382 45.8653 13.0863 38.145 6.03089 32.9388Z" fill="#E8EAEB"/>
<path d="M66.463 27.9347C66.2299 27.9347 65.9969 28.0034 65.792 28.1409C64.675 28.8967 63.558 29.6769 62.4652 30.457C61.9227 30.845 61.7982 31.6009 62.1839 32.1466C62.5696 32.6922 63.321 32.8175 63.8634 32.4295C64.9402 31.6575 66.0411 30.8895 67.138 30.1498C67.6884 29.7779 67.8371 29.0221 67.4634 28.4683C67.2304 28.1207 66.8487 27.9347 66.463 27.9347Z" fill="#E8EAEB"/>
<path d="M157.71 -1.52588e-05C157.71 -1.52588e-05 157.706 -1.52588e-05 157.702 -1.52588e-05C156.886 0.00402832 156.071 0.0161591 155.259 0.0323181C153.379 0.0727386 151.47 0.145493 149.586 0.254623C148.923 0.291016 148.413 0.86499 148.449 1.53192C148.485 2.19887 149.067 2.70816 149.718 2.67581C151.575 2.57072 153.455 2.49797 155.311 2.45755C156.111 2.44139 156.914 2.42926 157.714 2.42522C158.381 2.42117 158.915 1.8755 158.911 1.20451C158.911 0.537582 158.373 -1.52588e-05 157.71 -1.52588e-05ZM165.766 0.210175C165.135 0.210175 164.601 0.707336 164.565 1.35002C164.524 2.01697 165.031 2.59499 165.694 2.63136C168.442 2.79709 171.106 3.0679 173.613 3.43573C174.272 3.53273 174.883 3.07195 174.979 2.40906C175.075 1.74615 174.617 1.13176 173.958 1.03474C171.387 0.658829 168.655 0.379944 165.838 0.210175C165.814 0.210175 165.79 0.210175 165.766 0.210175ZM241.058 0.869034C241.054 0.869034 241.054 0.869034 241.058 0.869034C238.354 0.873077 235.617 0.957947 232.929 1.11559C232.266 1.15601 231.756 1.73 231.796 2.39693C231.837 3.06387 232.415 3.58124 233.07 3.53677C235.714 3.38318 238.402 3.29831 241.058 3.29427C241.725 3.29427 242.263 2.74858 242.259 2.07761C242.259 1.41066 241.721 0.869034 241.058 0.869034ZM141.622 0.897324C141.582 0.897324 141.538 0.897324 141.498 0.905411C138.822 1.18431 136.114 1.53596 133.446 1.94421C132.787 2.04526 132.337 2.6637 132.437 3.3266C132.538 3.98949 133.152 4.44221 133.811 4.34116C136.439 3.93695 139.111 3.59338 141.751 3.31851C142.414 3.2498 142.892 2.65158 142.824 1.98868C142.751 1.36215 142.229 0.897324 141.622 0.897324ZM249.114 1.07921C248.479 1.07921 247.944 1.58043 247.912 2.22716C247.876 2.89409 248.386 3.46806 249.049 3.50444C251.697 3.64996 254.377 3.87228 257.017 4.1633C257.68 4.23607 258.274 3.75911 258.347 3.09216C258.419 2.42522 257.945 1.82698 257.282 1.75423C254.602 1.45512 251.874 1.22878 249.182 1.08327C249.158 1.07922 249.134 1.07921 249.114 1.07921ZM224.97 1.81487C224.922 1.81487 224.877 1.81891 224.829 1.82295C222.141 2.13823 219.433 2.53435 216.785 2.99919C216.13 3.11641 215.693 3.74294 215.805 4.40178C215.922 5.06064 216.548 5.50122 217.199 5.38805C219.803 4.92725 222.463 4.53922 225.107 4.23201C225.769 4.15521 226.244 3.55295 226.163 2.88602C226.095 2.27162 225.577 1.81487 224.97 1.81487ZM181.693 2.60712C181.155 2.60712 180.668 2.9709 180.528 3.51657C180.363 4.1633 180.749 4.8262 181.396 4.99193C184.027 5.67503 186.551 6.50769 188.893 7.46971C189.508 7.72435 190.211 7.42523 190.464 6.80681C190.717 6.18837 190.42 5.47697 189.805 5.22636C187.362 4.22394 184.734 3.35489 181.998 2.64349C181.894 2.61923 181.789 2.60712 181.693 2.60712ZM265.129 2.86176C264.55 2.86176 264.04 3.28214 263.94 3.87228C263.831 4.53113 264.273 5.15765 264.928 5.27083C267.552 5.71545 270.188 6.24092 272.767 6.83107C273.418 6.98062 274.061 6.57237 274.209 5.91756C274.358 5.26274 273.952 4.61601 273.301 4.46646C270.678 3.8642 267.994 3.33064 265.326 2.88197C265.262 2.86984 265.197 2.86176 265.129 2.86176ZM125.687 3.33871C125.607 3.33871 125.526 3.3468 125.45 3.36298C122.806 3.89653 120.142 4.50284 117.531 5.1617C116.884 5.32338 116.494 5.98222 116.655 6.633C116.816 7.28377 117.471 7.67584 118.117 7.51416C120.693 6.86339 123.317 6.26517 125.924 5.7397C126.575 5.60632 127.001 4.96767 126.868 4.31287C126.752 3.73889 126.25 3.33871 125.687 3.33871ZM209.099 4.62006C209.007 4.62006 208.914 4.63219 208.818 4.65239C207.721 4.91513 206.616 5.19402 205.527 5.481C203.956 5.89734 202.417 6.34198 200.959 6.80276C200.324 7.00082 199.97 7.68393 200.167 8.32257C200.364 8.96121 201.043 9.31693 201.678 9.11887C203.104 8.6702 204.607 8.23366 206.146 7.82541C207.215 7.54247 208.3 7.26759 209.376 7.00891C210.023 6.8553 210.425 6.2005 210.272 5.54973C210.14 4.99597 209.646 4.62006 209.099 4.62006ZM280.843 6.4592C280.321 6.4592 279.839 6.80276 279.686 7.33632C279.501 7.979 279.871 8.64998 280.51 8.83995C283.069 9.58369 285.624 10.4123 288.115 11.3016C288.742 11.5239 289.433 11.1965 289.654 10.5659C289.875 9.93536 289.55 9.24013 288.923 9.01781C286.392 8.11238 283.784 7.26761 281.181 6.51173C281.068 6.47536 280.956 6.4592 280.843 6.4592ZM110.058 7.28781C109.941 7.28781 109.824 7.30397 109.708 7.34036C107.124 8.12451 104.533 8.98145 101.998 9.88686C101.371 10.1092 101.041 10.8044 101.266 11.435C101.487 12.0655 102.178 12.397 102.805 12.1706C105.304 11.2773 107.864 10.4325 110.407 9.66051C111.046 9.46649 111.404 8.79146 111.211 8.14877C111.054 7.62733 110.576 7.28781 110.058 7.28781ZM196.535 8.78337C196.133 8.78337 195.74 8.98549 195.511 9.35735C195.161 9.92728 195.334 10.675 195.9 11.0267C198.114 12.4091 200.187 14.0259 202.064 15.8368C202.546 16.3016 203.305 16.2854 203.767 15.8004C204.229 15.3153 204.209 14.5473 203.731 14.0865C201.734 12.1625 199.528 10.4406 197.174 8.9693C196.973 8.84399 196.752 8.78337 196.535 8.78337ZM193.747 9.52307C193.59 9.52307 193.429 9.5554 193.277 9.62009C190.629 10.7478 188.154 11.9928 185.928 13.3145C185.353 13.6541 185.164 14.3978 185.502 14.9758C185.839 15.5498 186.579 15.7438 187.153 15.4043C189.287 14.1351 191.665 12.9427 194.213 11.8553C194.827 11.5926 195.113 10.8812 194.852 10.2668C194.663 9.80197 194.217 9.52307 193.747 9.52307ZM296.027 11.8917C295.557 11.8917 295.111 12.1666 294.918 12.6314C294.657 13.2458 294.942 13.9612 295.557 14.224C296.726 14.7252 297.899 15.2466 299.048 15.7802C300.306 16.3622 301.571 16.9766 302.805 17.5991C303.4 17.8982 304.123 17.6597 304.424 17.0575C304.721 16.4592 304.484 15.7317 303.89 15.4285C302.632 14.7939 301.342 14.1674 300.061 13.5732C298.892 13.0316 297.694 12.498 296.505 11.9887C296.344 11.92 296.183 11.8917 296.027 11.8917ZM94.8738 12.7122C94.7211 12.7122 94.5644 12.7406 94.4158 12.8052C91.9166 13.836 89.4175 14.9435 86.9826 16.0914C86.3799 16.3743 86.1188 17.0979 86.4041 17.7042C86.6853 18.3105 87.4045 18.5692 88.0072 18.2863C90.4059 17.1545 92.8689 16.0672 95.3319 15.0486C95.9466 14.7939 96.2399 14.0865 95.9908 13.4681C95.7979 12.9992 95.3479 12.7122 94.8738 12.7122ZM180.001 17.8578C179.72 17.8578 179.439 17.9548 179.21 18.1569C177.04 20.0648 175.16 22.1545 173.621 24.3695C173.239 24.9193 173.372 25.6751 173.918 26.0591C174.465 26.4431 175.216 26.3097 175.598 25.76C177.024 23.7066 178.772 21.7624 180.797 19.9839C181.299 19.5433 181.351 18.7753 180.909 18.2741C180.668 17.9993 180.335 17.8578 180.001 17.8578ZM310.431 19.1674C310.017 19.1674 309.611 19.3816 309.39 19.7697C309.053 20.3477 309.25 21.0914 309.824 21.4269C312.114 22.7729 314.393 24.2079 316.59 25.6953C317.145 26.0672 317.892 25.9217 318.262 25.3639C318.632 24.8061 318.487 24.0543 317.932 23.6824C315.69 22.1666 313.368 20.7034 311.038 19.3331C310.845 19.22 310.636 19.1674 310.431 19.1674ZM80.2848 19.5999C80.0959 19.5999 79.899 19.6444 79.7182 19.7414C77.3276 21.0187 74.949 22.3687 72.6467 23.7592C72.0762 24.1028 71.8913 24.8465 72.2329 25.4245C72.5744 25.9985 73.3137 26.1844 73.8882 25.8409C76.1544 24.4746 78.4968 23.1448 80.8513 21.8837C81.4379 21.5684 81.6629 20.8368 81.3495 20.2426C81.1326 19.8344 80.7147 19.5999 80.2848 19.5999ZM208.067 19.9475C207.837 19.9475 207.608 20.0122 207.404 20.1496C206.849 20.5215 206.696 21.2733 207.066 21.8311C208.545 24.0785 209.694 26.4229 210.477 28.7996C210.686 29.4342 211.369 29.7778 212 29.5676C212.631 29.3575 212.972 28.6703 212.763 28.0357C211.912 25.4569 210.67 22.9184 209.075 20.4932C208.838 20.1375 208.456 19.9475 208.067 19.9475ZM323.811 28.2055C323.449 28.2055 323.091 28.3671 322.854 28.6784C322.449 29.2079 322.549 29.9718 323.075 30.3801C325.181 32.005 327.258 33.7188 329.255 35.4731C329.757 35.9137 330.517 35.8611 330.954 35.3559C331.392 34.8506 331.34 34.0867 330.838 33.6461C328.805 31.8595 326.687 30.1133 324.542 28.4561C324.325 28.2863 324.068 28.2055 323.811 28.2055ZM171.214 31.1683C170.684 31.1683 170.198 31.524 170.053 32.0616C169.454 34.2645 169.149 36.5281 169.149 38.7876C169.149 39.3615 169.169 39.9355 169.209 40.4974C169.257 41.1643 169.82 41.6695 170.495 41.621C171.158 41.5766 171.66 40.9945 171.616 40.3276C171.58 39.8223 171.564 39.3009 171.564 38.7835C171.564 36.7423 171.837 34.693 172.379 32.7002C172.556 32.0535 172.179 31.3866 171.536 31.2127C171.423 31.1804 171.319 31.1683 171.214 31.1683ZM212.912 35.1659C212.249 35.1659 211.711 35.7035 211.707 36.3704C211.695 38.1166 211.466 39.8425 211.028 41.5079C210.827 42.2759 210.562 43.0479 210.24 43.8037C209.979 44.4181 210.26 45.1336 210.871 45.3963C211.482 45.6631 212.193 45.3761 212.454 44.7617C212.824 43.9008 213.125 43.0115 213.358 42.1263C213.844 40.267 214.101 38.3389 214.113 36.3906C214.117 35.7196 213.583 35.174 212.916 35.1699C212.92 35.1659 212.916 35.1659 212.912 35.1659ZM335.945 38.8765C335.635 38.8765 335.326 38.9937 335.089 39.2322C334.619 39.7051 334.623 40.4731 335.093 40.946C336.977 42.8296 338.818 44.7981 340.565 46.7949C341.007 47.2961 341.767 47.3446 342.265 46.904C342.763 46.4594 342.811 45.6954 342.373 45.1942C340.589 43.1611 338.713 41.1522 336.792 39.2322C336.559 38.9937 336.254 38.8765 335.945 38.8765ZM172.432 46.997C172.255 46.997 172.074 47.0374 171.905 47.1182C171.307 47.4133 171.058 48.1368 171.351 48.7391C172.637 51.3988 174.429 53.6542 176.675 55.4408C177.197 55.8572 177.956 55.7682 178.366 55.2428C178.776 54.7173 178.692 53.9534 178.169 53.5411C176.208 51.9808 174.646 50.0083 173.516 47.6801C173.308 47.2476 172.878 46.997 172.432 46.997ZM206.789 49.693C206.483 49.693 206.174 49.8102 205.937 50.0447C204.149 51.8353 202.056 53.3511 199.725 54.5475C199.131 54.8507 198.898 55.5823 199.199 56.1805C199.5 56.7788 200.228 57.0132 200.822 56.71C203.378 55.3964 205.672 53.7351 207.641 51.7666C208.111 51.2937 208.115 50.5257 207.645 50.0528C207.408 49.8103 207.098 49.693 206.789 49.693ZM346.6 51.0431C346.343 51.0431 346.086 51.1239 345.865 51.2937C345.339 51.7019 345.238 52.4618 345.644 52.9954C347.267 55.1175 348.826 57.3164 350.285 59.5233C350.654 60.0811 351.402 60.2347 351.956 59.8628C352.511 59.491 352.663 58.7392 352.294 58.1814C350.803 55.9259 349.212 53.6825 347.556 51.516C347.319 51.2088 346.958 51.0431 346.6 51.0431ZM184.634 56.7383C184.084 56.7383 183.585 57.1183 183.461 57.6842C183.312 58.339 183.722 58.9857 184.369 59.1353C187.037 59.7456 189.93 59.8184 192.835 59.3535C193.494 59.2485 193.94 58.626 193.835 57.9671C193.731 57.3042 193.112 56.8556 192.457 56.9607C189.853 57.377 187.274 57.3123 184.903 56.7747C184.815 56.7464 184.722 56.7383 184.634 56.7383ZM355.508 64.5516C355.307 64.5516 355.102 64.6042 354.917 64.7093C354.339 65.0407 354.134 65.7804 354.463 66.3625C355.773 68.6947 357.011 71.0876 358.136 73.4805C358.421 74.0868 359.14 74.3455 359.739 74.0586C360.341 73.7716 360.599 73.048 360.313 72.4458C359.164 70.0003 357.903 67.5508 356.561 65.1701C356.336 64.7739 355.93 64.5516 355.508 64.5516ZM362.391 79.2041C362.246 79.2041 362.101 79.2283 361.961 79.2849C361.338 79.5234 361.029 80.2267 361.266 80.8492C362.222 83.3674 363.07 85.922 363.789 88.4402C363.974 89.0829 364.645 89.4548 365.28 89.2729C365.918 89.0869 366.288 88.4159 366.107 87.7733C365.372 85.1904 364.5 82.5671 363.52 79.9842C363.331 79.5032 362.873 79.2041 362.391 79.2041ZM366.806 94.7822C366.734 94.7822 366.658 94.7903 366.585 94.8024C365.93 94.9237 365.5 95.5583 365.621 96.2171C366.115 98.8768 366.469 101.536 366.67 104.123C366.722 104.79 367.305 105.287 367.967 105.235C368.63 105.182 369.129 104.6 369.072 103.929C368.863 101.258 368.498 98.509 367.988 95.7684C367.883 95.1904 367.377 94.7822 366.806 94.7822ZM368.028 110.922C367.385 110.922 366.851 111.431 366.822 112.086C366.71 114.774 366.425 117.43 365.975 119.98C365.858 120.639 366.296 121.27 366.951 121.387C367.606 121.504 368.233 121.064 368.349 120.405C368.819 117.745 369.117 114.98 369.229 112.187C369.257 111.516 368.739 110.954 368.076 110.926C368.064 110.922 368.048 110.922 368.028 110.922ZM365.183 126.832C364.681 126.832 364.211 127.151 364.042 127.66C363.604 128.974 363.11 130.28 362.571 131.545C362.089 132.681 361.547 133.816 360.96 134.924C360.647 135.514 360.872 136.25 361.458 136.565C362.045 136.88 362.776 136.654 363.09 136.064C363.709 134.896 364.279 133.695 364.789 132.499C365.352 131.173 365.87 129.807 366.328 128.432C366.541 127.798 366.2 127.111 365.569 126.896C365.44 126.852 365.308 126.832 365.183 126.832ZM285.122 137.086C284.998 137.086 284.873 137.107 284.748 137.147C284.114 137.353 283.768 138.036 283.973 138.675C284.809 141.27 286.058 143.808 287.682 146.225C288.055 146.779 288.803 146.925 289.357 146.549C289.907 146.173 290.052 145.421 289.678 144.863C288.18 142.636 287.031 140.3 286.267 137.923C286.102 137.414 285.628 137.086 285.122 137.086ZM357.662 141.084C357.3 141.084 356.942 141.246 356.705 141.557C355.118 143.634 353.35 145.611 351.442 147.434C350.96 147.895 350.94 148.663 351.398 149.148C351.856 149.633 352.619 149.653 353.101 149.192C355.102 147.284 356.958 145.211 358.618 143.032C359.024 142.503 358.923 141.739 358.397 141.331C358.176 141.169 357.919 141.084 357.662 141.084ZM293.949 150.449C293.624 150.449 293.299 150.583 293.061 150.841C292.611 151.335 292.644 152.103 293.134 152.555C295.151 154.423 297.393 156.096 299.796 157.535C300.366 157.879 301.105 157.689 301.447 157.111C301.788 156.537 301.6 155.789 301.025 155.449C298.763 154.099 296.658 152.523 294.765 150.773C294.532 150.554 294.239 150.449 293.949 150.449ZM346.018 152.208C345.781 152.208 345.544 152.276 345.335 152.422C343.161 153.93 340.875 155.263 338.532 156.379C337.93 156.666 337.676 157.39 337.962 157.996C338.247 158.602 338.966 158.857 339.569 158.57C342.028 157.394 344.431 155.999 346.705 154.419C347.251 154.039 347.392 153.283 347.01 152.733C346.777 152.394 346.399 152.208 346.018 152.208ZM307.711 158.687C307.213 158.687 306.743 159.002 306.57 159.504C306.353 160.138 306.686 160.825 307.317 161.044C309.973 161.965 312.697 162.596 315.413 162.915C316.08 162.996 316.675 162.519 316.751 161.852C316.827 161.185 316.357 160.583 315.694 160.506C313.151 160.207 310.596 159.617 308.105 158.748C307.976 158.711 307.839 158.687 307.711 158.687ZM331.513 159.107C331.404 159.107 331.296 159.124 331.188 159.152C328.652 159.863 326.061 160.344 323.493 160.579C322.83 160.639 322.34 161.23 322.4 161.896C322.461 162.563 323.059 163.057 323.71 162.996C326.426 162.749 329.162 162.244 331.838 161.492C332.481 161.31 332.855 160.643 332.674 159.997C332.521 159.459 332.039 159.107 331.513 159.107Z" fill="#E8EAEB"/>
<path d="M284.423 125.025C284.017 125.025 283.627 125.231 283.402 125.591C282.735 126.658 281.96 127.673 281.092 128.61C280.638 129.099 280.666 129.867 281.152 130.324C281.602 130.745 282.281 130.753 282.739 130.373C282.799 130.967 283.294 131.44 283.904 131.456C284.571 131.476 285.126 130.951 285.146 130.28C285.182 129.011 285.335 127.733 285.6 126.488C285.72 125.914 285.415 125.332 284.873 125.114C284.728 125.053 284.575 125.025 284.423 125.025Z" fill="#E8EAEB"/>
<path d="M406.266 4.55127C403.623 4.55936 400.943 4.60381 398.299 4.68869C397.632 4.70891 397.11 5.27075 397.134 5.93768C397.154 6.60867 397.708 7.13414 398.375 7.10988C400.995 7.02904 403.655 6.98055 406.27 6.97246C406.937 6.97246 407.476 6.42679 407.472 5.7558C407.468 5.08887 406.929 4.55127 406.266 4.55127ZM414.198 4.6402C413.547 4.6402 413.008 5.16162 412.992 5.82048C412.976 6.49146 413.503 7.04521 414.166 7.06543C416.785 7.13414 419.441 7.23923 422.057 7.38071C422.724 7.41708 423.29 6.90375 423.326 6.2368C423.363 5.56987 422.852 4.9959 422.189 4.95952C419.55 4.81804 416.874 4.70891 414.23 4.6402C414.218 4.6402 414.206 4.6402 414.198 4.6402ZM390.412 5.04845C390.388 5.04845 390.364 5.04843 390.339 5.05247C387.7 5.21011 385.028 5.40819 382.396 5.64262C381.733 5.69922 381.243 6.28935 381.299 6.9563C381.355 7.62323 381.946 8.11636 382.605 8.05977C385.213 7.82938 387.864 7.63132 390.48 7.47368C391.143 7.43326 391.649 6.85928 391.613 6.19234C391.577 5.54561 391.047 5.04845 390.412 5.04845ZM430.032 5.50114C429.414 5.50114 428.883 5.97812 428.831 6.61272C428.775 7.27966 429.269 7.86575 429.932 7.92233C432.544 8.14061 435.187 8.39931 437.791 8.69438C438.454 8.76714 439.049 8.29018 439.125 7.62323C439.197 6.9563 438.723 6.35806 438.06 6.28127C435.437 5.98619 432.769 5.72346 430.133 5.50114C430.101 5.50114 430.065 5.50114 430.032 5.50114ZM374.613 6.44699C374.565 6.44699 374.521 6.45103 374.473 6.45508C371.849 6.76227 369.193 7.11392 366.573 7.49388C365.915 7.5909 365.456 8.20528 365.553 8.86818C365.649 9.53108 366.256 9.99188 366.919 9.89487C369.515 9.51491 372.146 9.1673 374.75 8.86415C375.413 8.78735 375.887 8.18507 375.807 7.51813C375.738 6.8997 375.216 6.44699 374.613 6.44699ZM445.795 7.28371C445.204 7.28371 444.69 7.72023 444.601 8.32654C444.509 8.98944 444.967 9.60384 445.626 9.69681C448.226 10.0687 450.849 10.485 453.425 10.9296C454.076 11.0428 454.702 10.6022 454.819 9.93932C454.931 9.28047 454.493 8.6499 453.835 8.53673C451.235 8.08401 448.587 7.66769 445.963 7.29178C445.907 7.28773 445.851 7.28371 445.795 7.28371ZM358.919 8.73883C358.851 8.73883 358.783 8.74287 358.71 8.75905C356.099 9.21581 353.467 9.71701 350.883 10.2506C350.233 10.384 349.811 11.0266 349.943 11.6815C350.076 12.3363 350.711 12.7607 351.366 12.6273C353.925 12.1018 356.537 11.6047 359.124 11.1519C359.779 11.0347 360.217 10.4082 360.105 9.74934C360.004 9.15517 359.494 8.73883 358.919 8.73883ZM461.424 9.99591C460.862 9.99591 460.36 10.392 460.243 10.966C460.111 11.6208 460.532 12.2635 461.183 12.3969C463.755 12.9224 466.35 13.4963 468.894 14.0986C469.537 14.2522 470.191 13.848 470.344 13.1972C470.497 12.5465 470.095 11.8916 469.448 11.738C466.881 11.1277 464.261 10.5497 461.665 10.0202C461.585 10.004 461.505 9.99591 461.424 9.99591ZM343.382 11.9321C343.29 11.9321 343.197 11.9442 343.105 11.9644C340.529 12.5707 337.93 13.2255 335.378 13.9046C334.735 14.0744 334.35 14.7413 334.523 15.388C334.691 16.0348 335.354 16.4228 335.997 16.249C338.524 15.574 341.104 14.9272 343.659 14.325C344.306 14.1714 344.708 13.5206 344.559 12.8658C344.423 12.308 343.928 11.9321 343.382 11.9321ZM476.865 13.654C476.335 13.654 475.845 14.0097 475.7 14.5513C475.527 15.198 475.909 15.865 476.552 16.0388C479.091 16.7259 481.643 17.4576 484.142 18.2175C484.776 18.4115 485.452 18.0477 485.644 17.409C485.837 16.7664 485.476 16.0913 484.841 15.8973C482.318 15.1293 479.738 14.3896 477.175 13.6984C477.074 13.6661 476.97 13.654 476.865 13.654ZM328.05 16.0226C327.937 16.0226 327.821 16.0388 327.708 16.0711C325.169 16.831 322.609 17.6354 320.106 18.4681C319.475 18.6783 319.13 19.3614 319.339 20C319.548 20.6346 320.231 20.9822 320.862 20.772C323.345 19.9475 325.88 19.1512 328.395 18.3994C329.034 18.2094 329.396 17.5344 329.207 16.8917C329.05 16.3622 328.572 16.0226 328.05 16.0226ZM312.991 21.0186C312.854 21.0186 312.713 21.0429 312.577 21.0914C310.082 22.0049 307.578 22.9628 305.132 23.9451C304.513 24.1916 304.211 24.899 304.457 25.5215C304.702 26.1439 305.405 26.4471 306.023 26.2005C308.446 25.2304 310.929 24.2765 313.4 23.3751C314.027 23.1447 314.349 22.4495 314.12 21.823C313.943 21.3218 313.481 21.0186 312.991 21.0186ZM298.257 26.9241C298.096 26.9241 297.931 26.9564 297.775 27.0251C295.34 28.0922 292.901 29.2038 290.518 30.3396C289.916 30.6266 289.659 31.3501 289.944 31.9524C290.229 32.5587 290.948 32.8174 291.551 32.5304C293.909 31.4067 296.324 30.3032 298.735 29.2482C299.346 28.9815 299.623 28.266 299.358 27.6516C299.165 27.1989 298.723 26.9241 298.257 26.9241ZM283.925 33.7511C283.74 33.7511 283.551 33.7956 283.374 33.8845C281.016 35.1052 278.649 36.3744 276.347 37.6638C275.765 37.9872 275.556 38.7269 275.877 39.313C276.199 39.899 276.934 40.1092 277.516 39.7859C279.799 38.5126 282.137 37.2515 284.475 36.047C285.066 35.7398 285.303 35.0082 284.998 34.414C284.785 33.9896 284.363 33.7511 283.925 33.7511ZM270.063 41.4997C269.85 41.4997 269.637 41.5563 269.444 41.6735C268.52 42.2313 267.596 42.7972 266.68 43.3712C265.306 44.2281 263.96 45.085 262.682 45.9258C262.124 46.2895 261.967 47.0414 262.329 47.6032C262.69 48.1651 263.438 48.3227 263.996 47.9589C265.258 47.1303 266.588 46.2815 267.946 45.4367C268.854 44.8708 269.766 44.313 270.682 43.7592C271.252 43.4156 271.437 42.6679 271.096 42.0939C270.875 41.7099 270.473 41.4997 270.063 41.4997ZM256.792 50.2306C256.547 50.2306 256.302 50.3033 256.089 50.4609C253.855 52.0818 251.717 53.7269 249.737 55.3559C249.222 55.7803 249.142 56.5442 249.564 57.0616C249.986 57.579 250.745 57.6599 251.259 57.2354C253.204 55.6388 255.301 54.022 257.499 52.4294C258.038 52.0374 258.162 51.2815 257.772 50.7358C257.535 50.4084 257.17 50.2306 256.792 50.2306ZM244.537 60.3438C244.24 60.3438 243.943 60.4529 243.71 60.6752C241.709 62.5831 239.832 64.5435 238.129 66.4918C237.691 66.997 237.739 67.761 238.241 68.2015C238.739 68.6421 239.503 68.5936 239.941 68.0884C241.596 66.1926 243.42 64.2888 245.369 62.4295C245.851 61.9687 245.871 61.2007 245.413 60.7156C245.176 60.4691 244.859 60.3438 244.537 60.3438ZM234.135 72.3446C233.753 72.3446 233.38 72.5265 233.147 72.862C231.576 75.1256 230.161 77.4659 228.952 79.8103C228.646 80.4045 228.876 81.1361 229.466 81.4474C230.057 81.7586 230.784 81.5242 231.093 80.93C232.259 78.6786 233.613 76.4312 235.127 74.2525C235.509 73.7028 235.376 72.9469 234.83 72.5629C234.617 72.4174 234.376 72.3446 234.135 72.3446ZM226.943 86.4999C226.437 86.4999 225.963 86.8273 225.798 87.3366C224.958 89.9357 224.335 92.6115 223.942 95.2954C223.845 95.9583 224.299 96.5727 224.958 96.6697C225.617 96.7668 226.228 96.31 226.324 95.6471C226.694 93.0966 227.288 90.5541 228.084 88.0885C228.289 87.4498 227.943 86.7667 227.313 86.5606C227.192 86.5201 227.067 86.4999 226.943 86.4999ZM224.681 102.215C224.669 102.215 224.653 102.215 224.641 102.215C223.974 102.236 223.451 102.798 223.475 103.464C223.564 106.241 223.913 108.978 224.512 111.597C224.661 112.248 225.312 112.656 225.959 112.507C226.609 112.357 227.011 111.706 226.863 111.051C226.3 108.582 225.971 106.003 225.886 103.384C225.866 102.733 225.332 102.215 224.681 102.215ZM228.261 117.648C228.088 117.648 227.915 117.684 227.746 117.765C227.144 118.052 226.887 118.772 227.172 119.378C228.349 121.888 229.8 124.241 231.491 126.379C231.905 126.904 232.664 126.989 233.187 126.573C233.709 126.157 233.793 125.393 233.38 124.867C231.805 122.878 230.451 120.68 229.354 118.343C229.149 117.903 228.715 117.648 228.261 117.648ZM238.073 129.997C237.707 129.997 237.345 130.162 237.108 130.478C236.706 131.011 236.815 131.771 237.345 132.175C239.471 133.784 241.869 135.158 244.485 136.254C245.1 136.512 245.807 136.221 246.06 135.603C246.317 134.984 246.024 134.273 245.413 134.018C242.986 133 240.756 131.727 238.796 130.239C238.579 130.077 238.326 129.997 238.073 129.997ZM275.696 133.044C275.503 133.044 275.307 133.093 275.126 133.19C272.976 134.354 270.581 135.255 268.014 135.874C267.367 136.027 266.965 136.682 267.122 137.333C267.275 137.984 267.93 138.384 268.573 138.23C271.345 137.563 273.936 136.585 276.267 135.324C276.853 135.005 277.07 134.273 276.757 133.683C276.54 133.275 276.126 133.044 275.696 133.044ZM252.545 136.177C251.974 136.177 251.468 136.585 251.36 137.171C251.239 137.83 251.673 138.461 252.328 138.582C255.004 139.079 257.74 139.305 260.46 139.253C261.127 139.241 261.654 138.687 261.642 138.02C261.63 137.357 261.091 136.832 260.436 136.832C260.428 136.832 260.42 136.832 260.412 136.832C257.853 136.876 255.277 136.666 252.762 136.201C252.69 136.181 252.617 136.177 252.545 136.177Z" fill="#E8EAEB"/>
<path d="M492.093 18.2905C491.59 18.2905 491.12 18.6099 490.951 19.1151C490.739 19.7497 491.076 20.4369 491.707 20.6511C492.968 21.0796 494.238 21.5242 495.484 21.9688C496.11 22.1952 496.802 21.8637 497.023 21.2332C497.248 20.6026 496.918 19.9074 496.291 19.6851C495.034 19.2323 493.748 18.7877 492.478 18.3552C492.35 18.3108 492.217 18.2905 492.093 18.2905Z" fill="#E8EAEB"/>
</g>
<defs>
<clipPath id="clip0_52_476">
<rect width="497" height="163" fill="white" transform="matrix(1 0 0 -1 0 163)"/>
</clipPath>
</defs>
</svg>
