<svg width="29" height="34" viewBox="0 0 29 34" fill="none" xmlns="http://www.w3.org/2000/svg">
<path d="M12.6743 0.836178C8.55315 1.25084 4.75736 3.55383 2.40334 7.0753C1.29331 8.74035 0.457599 11.0433 0.20242 13.1358C0.106728 13.9332 0.125866 15.4388 0.234317 16.0831C0.9233 20.0065 4.8084 25.5439 11.0475 31.4895C12.3298 32.708 12.6169 32.9504 13.0188 33.1546C13.4717 33.3779 13.5291 33.3906 14.1097 33.3906C14.6902 33.3906 14.7476 33.3779 15.2006 33.1546C15.6025 32.9504 15.8895 32.708 17.1718 31.4895C21.2228 27.63 24.4827 23.6938 26.2817 20.4722C27.1685 18.8773 27.6979 17.5313 27.9595 16.1916C28.0999 15.4707 28.1254 14.0353 28.0169 13.1358C27.7809 11.1773 27.0536 9.07846 26.0584 7.45807C25.2865 6.2077 24.017 4.77231 22.8751 3.84729C20.0298 1.56344 16.3297 0.466171 12.6743 0.836178ZM16.1511 1.87603C19.5258 2.43743 22.537 4.26196 24.5529 6.97323C25.8989 8.77862 26.7027 10.7371 27.0345 13.0082C27.1876 14.0991 27.1366 15.694 26.9069 16.5488C25.9117 20.3255 22.3519 25.193 16.4127 30.8899C15.6216 31.6426 14.9837 32.204 14.8178 32.287C14.435 32.472 14.0076 32.5039 13.6121 32.3699C13.2293 32.2487 12.3745 31.4832 10.4798 29.5885C6.44792 25.563 3.80682 22.1691 2.30765 19.1006C1.37624 17.2059 1.09555 16.1469 1.09555 14.5712C1.09555 8.7531 5.21031 3.55383 10.9582 2.10569C11.4431 1.98448 12.4638 1.80586 12.9933 1.75482C13.5291 1.70379 15.5706 1.78034 16.1511 1.87603Z" fill="#FFB60A"/>
<path d="M13.0251 4.33815C10.6456 4.61247 8.59774 5.56301 6.87528 7.20253C5.32507 8.68257 4.29798 10.5262 3.8259 12.708C3.70469 13.2694 3.68555 13.5501 3.68555 14.7622C3.68555 15.9743 3.70469 16.255 3.8259 16.81C4.13849 18.239 4.7573 19.6744 5.54197 20.7908C6.16078 21.6648 7.34736 22.8259 8.20221 23.4C10.5562 24.9694 13.0889 25.5308 15.864 25.0906C16.2148 25.0332 16.5912 24.9502 16.706 24.9056C17.0378 24.7652 17.0824 24.3187 16.7826 24.0954C16.6231 23.9742 16.6104 23.9742 15.8895 24.1145C14.9389 24.3059 13.3632 24.3187 12.4509 24.1464C10.4924 23.77 8.78274 22.8705 7.37926 21.4607C6.47976 20.5675 5.46542 19.0811 5.66318 18.9535C5.70146 18.928 6.45424 18.3092 7.32823 17.5819C8.36808 16.7207 8.94223 16.204 8.96775 16.1019C9.05706 15.7574 8.66153 15.4002 8.34894 15.5469C8.27239 15.5788 7.53237 16.1721 6.70942 16.8547L5.21024 18.0987L5.12093 17.9009C4.98058 17.5692 4.74454 16.5676 4.66161 15.9615C4.54678 15.1003 4.62333 13.5182 4.81471 12.6889C5.62491 9.27586 8.081 6.64114 11.3856 5.64594C12.3616 5.35249 12.9804 5.26317 14.1096 5.26317C15.3472 5.26317 16.0234 5.37163 17.1143 5.73525C18.403 6.16268 19.5513 6.83252 20.5018 7.70651C21.076 8.24239 21.2929 8.31894 21.5353 8.07652C21.8351 7.77669 21.7713 7.59806 21.1717 7.03029C19.0728 5.04627 15.9278 4.00642 13.0251 4.33815Z" fill="#FFB60A"/>
<path d="M16.4066 8.71479C15.9919 8.8679 15.4369 9.43567 15.2902 9.87585C15.035 10.6478 15.2966 11.5154 15.9282 12.0002C16.8978 12.7402 18.2439 12.4213 18.818 11.3176C19.0605 10.8455 19.0605 10.1821 18.8117 9.67809C18.5948 9.23791 18.1673 8.84238 17.7654 8.70841C17.3954 8.58082 16.783 8.5872 16.4066 8.71479ZM17.5549 9.65895C18.1354 9.95879 18.2184 10.769 17.7144 11.2092C17.2997 11.5792 16.6427 11.5026 16.3173 11.0497C16.1323 10.7945 16.1132 10.2841 16.2726 10.0226C16.5406 9.60154 17.1211 9.43567 17.5549 9.65895Z" fill="#FFB60A"/>
<path d="M22.154 9.0271C21.9881 9.23762 21.9881 9.34608 22.1476 9.62677C22.4793 10.2073 22.9131 11.1068 23.0726 11.5406C23.4298 12.5422 23.5574 13.2631 23.5957 14.5517C23.6149 15.2152 23.6149 15.7511 23.5893 15.7511C23.5638 15.7511 22.9641 15.2854 22.256 14.7176C21.5479 14.1434 20.8653 13.6267 20.7441 13.5693C20.4634 13.4226 20.0806 13.4289 19.7553 13.5757C19.6149 13.6458 18.9578 14.1434 18.3008 14.6985C17.4714 15.3811 17.0759 15.6745 17.0249 15.6362C16.9802 15.6043 16.0807 14.8898 15.0281 14.0414C13.9691 13.1993 13.0377 12.4912 12.9611 12.4656C12.6677 12.3699 12.202 12.4146 11.9659 12.5549C11.5066 12.8293 9.65657 14.4114 9.61829 14.5709C9.52898 14.9154 9.92451 15.2726 10.2371 15.1323C10.3137 15.094 10.824 14.6921 11.3663 14.2391C11.9085 13.7862 12.3997 13.397 12.4572 13.3779C12.5146 13.3524 12.6294 13.3843 12.7187 13.4417C13.0887 13.6905 21.6372 20.5548 21.6372 20.6058C21.6372 20.6314 21.331 20.9695 20.9546 21.3522C20.1955 22.1242 19.5894 22.5962 18.7665 23.0619C18.4666 23.2278 18.1732 23.4064 18.1157 23.4575C17.9563 23.5914 17.969 23.9487 18.1285 24.1082C18.3071 24.2868 18.5177 24.2677 18.977 24.038C21.2608 22.8897 23.2129 20.5867 24.055 18.0604C24.4569 16.8547 24.5335 16.3125 24.5335 14.7622C24.5335 13.2184 24.4569 12.6762 24.055 11.4641C23.819 10.7368 23.181 9.42263 22.9131 9.09728C22.6579 8.79744 22.3581 8.76554 22.154 9.0271ZM21.8669 15.6235C23.13 16.6314 23.3852 16.8611 23.3724 16.9823C23.2959 17.5054 22.5686 19.2534 22.2624 19.6617C22.1859 19.7638 21.9881 19.617 20.0232 18.0413C18.8366 17.0908 17.8797 16.2997 17.8988 16.2806C18.1795 15.9935 20.1636 14.4114 20.2401 14.4114C20.2975 14.4114 21.0248 14.96 21.8669 15.6235Z" fill="#FFB60A"/>
</svg>
