<svg width="17" height="17" viewBox="0 0 17 17" fill="none" xmlns="http://www.w3.org/2000/svg">
<g clip-path="url(#clip0_52_731)">
<path d="M14.2008 0.223389H2.78182C1.47747 0.223389 0.416016 1.28485 0.416016 2.58919V14.0081C0.416016 15.3128 1.47747 16.3739 2.78182 16.3739H14.2008C15.5054 16.3739 16.5666 15.3128 16.5666 14.0081V2.58919C16.5666 1.28485 15.5054 0.223389 14.2008 0.223389ZM15.6203 14.0081C15.6203 14.7907 14.9834 15.4276 14.2008 15.4276H2.78182C1.99921 15.4276 1.36234 14.7907 1.36234 14.0081V2.58919C1.36234 1.80658 1.99921 1.16971 2.78182 1.16971H14.2008C14.9834 1.16971 15.6203 1.80658 15.6203 2.58919V14.0081Z" fill="white"/>
<path d="M13.6963 2.14734C13.1746 2.14734 12.75 2.57192 12.75 3.09366C12.75 3.6154 13.1746 4.03998 13.6963 4.03998C14.2181 4.03998 14.6426 3.6154 14.6426 3.09366C14.6426 2.57192 14.2181 2.14734 13.6963 2.14734Z" fill="white"/>
<path d="M8.49136 4.03992C6.14322 4.03992 4.23291 5.95022 4.23291 8.29836C4.23291 10.6465 6.14322 12.5568 8.49136 12.5568C10.8395 12.5568 12.7498 10.6465 12.7498 8.29836C12.7498 5.95022 10.8395 4.03992 8.49136 4.03992ZM8.49136 11.6105C6.66496 11.6105 5.17923 10.1248 5.17923 8.29836C5.17923 6.47196 6.66496 4.98624 8.49136 4.98624C10.3178 4.98624 11.8035 6.47196 11.8035 8.29836C11.8035 10.1248 10.3178 11.6105 8.49136 11.6105Z" fill="white"/>
</g>
<defs>
<clipPath id="clip0_52_731">
<rect width="16.1506" height="16.1506" fill="white" transform="translate(0.416016 0.223389)"/>
</clipPath>
</defs>
</svg>
