<svg width="13" height="16" viewBox="0 0 13 16" fill="none" xmlns="http://www.w3.org/2000/svg">
<path d="M6.79057 0.0222168C5.16113 0.0241391 3.59898 0.672283 2.44679 1.82447C1.2946 2.97666 0.64646 4.53881 0.644538 6.16825C0.642586 7.49983 1.07754 8.79528 1.88268 9.85587C1.88268 9.85587 2.0503 10.0766 2.07768 10.1084L6.79057 15.6667L11.5057 10.1056C11.5303 10.076 11.6985 9.85587 11.6985 9.85587L11.699 9.85419C12.5038 8.79406 12.9385 7.49922 12.9366 6.16825C12.9347 4.53881 12.2865 2.97666 11.1343 1.82447C9.98216 0.672283 8.42001 0.0241391 6.79057 0.0222168ZM6.79057 8.40317C6.34854 8.40317 5.91644 8.27209 5.54891 8.02652C5.18138 7.78094 4.89493 7.43189 4.72577 7.02352C4.55662 6.61514 4.51236 6.16577 4.59859 5.73224C4.68483 5.29871 4.89768 4.90048 5.21024 4.58792C5.5228 4.27536 5.92103 4.06251 6.35456 3.97627C6.78809 3.89004 7.23746 3.9343 7.64584 4.10345C8.05421 4.27261 8.40326 4.55906 8.64884 4.92659C8.89441 5.29412 9.02549 5.72622 9.02549 6.16825C9.02475 6.76076 8.78905 7.32879 8.37008 7.74776C7.95111 8.16673 7.38308 8.40243 6.79057 8.40317Z" fill="#999999"/>
</svg>
