<svg width="381" height="256" viewBox="0 0 381 256" fill="none" xmlns="http://www.w3.org/2000/svg">
<path d="M245.129 231.955C245.129 298.364 191.37 352.197 125.057 352.197C58.7437 352.197 4.98534 298.364 4.98535 231.955C4.9855 165.547 58.7438 111.713 125.057 111.713C191.37 111.713 245.129 165.547 245.129 231.955Z" stroke="#E5E5E5" stroke-width="0.924242"/>
<path d="M272.09 222.425C272.09 296.728 211.94 356.961 137.744 356.961C63.5479 356.961 3.39843 296.728 3.39843 222.425C3.39857 148.122 63.548 87.889 137.744 87.8889C211.94 87.8889 272.09 148.122 272.09 222.425Z" stroke="#E5E5E5" stroke-width="0.924242"/>
<path d="M295.087 214.485C295.087 295.805 229.257 361.727 148.054 361.727C66.8502 361.727 1.02055 295.805 1.0205 214.485C1.0205 133.165 66.8502 67.2429 148.054 67.2429C229.257 67.243 295.087 133.165 295.087 214.485Z" stroke="#E5E5E5" stroke-width="0.924242"/>
<path d="M321.256 206.543C321.256 294.003 250.456 364.903 163.121 364.903C75.7862 364.903 4.98534 294.004 4.98534 206.543C4.98547 119.083 75.7863 48.1841 163.121 48.1841C250.456 48.1843 321.256 119.084 321.256 206.543Z" stroke="#E5E5E5" stroke-width="0.924242"/>
<path d="M346.631 199C346.631 292.38 271.037 368.08 177.79 368.08C84.5429 368.079 8.95019 292.38 8.95019 198.999C8.95019 105.619 84.5429 29.9196 177.79 29.9194C271.037 29.9194 346.631 105.619 346.631 199Z" stroke="#E5E5E5" stroke-width="0.924242"/>
<path d="M379.937 186.294C379.937 288.885 296.888 372.051 194.443 372.051C91.999 372.051 8.95018 288.885 8.95019 186.294C8.95045 83.703 91.9992 0.537837 194.443 0.537834C296.888 0.537838 379.936 83.703 379.937 186.294Z" stroke="#E5E5E5" stroke-width="0.924242"/>
</svg>
