<svg width="34" height="34" viewBox="0 0 34 34" fill="none" xmlns="http://www.w3.org/2000/svg">
<path d="M1.59508 0.876209C1.41459 0.942524 1.16056 1.12157 0.960006 1.32052C0.338297 1.93725 0.391777 0.683895 0.391777 14.4576C0.391777 28.2379 0.344982 27.0509 0.946636 27.6477C1.55497 28.2512 0.939951 28.2048 9.77757 28.2644L17.5322 28.3175L17.9534 29.9356C18.1807 30.8242 18.4414 31.6863 18.5216 31.8521C18.7355 32.2699 19.1634 32.7208 19.5845 32.9728C20.2664 33.3774 20.4135 33.3906 23.8563 33.3906C27.1721 33.3906 27.3793 33.3707 28.0144 33.0524C28.3754 32.8667 28.9102 32.3694 29.1174 32.0113C29.4717 31.4144 29.5386 31.0364 29.5386 29.6107V28.2976L30.4611 28.2578C31.6644 28.1981 32.012 28.092 32.4599 27.6477C33.0616 27.0509 33.0148 28.2313 33.0148 14.4907C33.0148 0.75021 33.0616 1.93062 32.4599 1.32715C31.8315 0.703789 33.4292 0.763474 16.6765 0.770103C3.39336 0.770103 1.86249 0.783367 1.59508 0.876209ZM31.7179 1.73168C31.8182 1.80462 31.9652 1.95052 32.0388 2.04999C32.1725 2.22241 32.1791 2.32851 32.1992 4.41745L32.2193 6.59922H16.7033H1.19398V4.51692C1.19398 2.35504 1.21404 2.18925 1.48144 1.89746C1.80901 1.54599 0.906525 1.56589 16.7835 1.57915L31.5374 1.59241L31.7179 1.73168ZM32.2126 16.9709C32.2126 23.5826 32.1925 26.6066 32.139 26.7392C32.0388 26.9978 31.758 27.2763 31.5173 27.3493C31.4037 27.3825 30.909 27.4355 30.4277 27.4554L29.5386 27.5018V26.6198C29.5386 25.5787 29.4583 25.3333 29.0038 24.9553C28.6227 24.6304 28.2149 24.5375 27.7069 24.6702L27.3392 24.7696L27.0183 24.4513C26.6172 24.0534 26.2027 23.9142 25.7348 24.0203C25.5676 24.0534 25.3805 24.1065 25.327 24.133C25.2601 24.1595 25.1933 24.1065 25.1131 23.9805C25.0529 23.8744 24.8791 23.702 24.7186 23.5958C24.4847 23.4433 24.3643 23.4102 24.0301 23.4102C23.8028 23.4102 23.5554 23.4367 23.4685 23.4632L23.3215 23.5163V20.6514C23.3215 17.8795 23.3148 17.7734 23.1811 17.4948C22.8869 16.8847 22.1382 16.5266 21.4764 16.6725C20.9951 16.7786 20.6341 17.0572 20.4202 17.4816L20.2463 17.833V21.9579V26.0827L19.8386 25.6649C19.2436 25.0482 18.5751 24.7298 17.6058 24.6105C17.2314 24.5641 16.9038 24.6967 16.7233 24.9619C16.5295 25.2405 16.5295 25.4659 16.71 25.8771C16.8637 26.2352 17.3049 27.409 17.3049 27.4687C17.3049 27.5416 2.06304 27.4222 1.86917 27.3493C1.62851 27.2565 1.39453 27.031 1.28757 26.779C1.20735 26.5999 1.19398 24.9487 1.19398 16.9776V7.39501H16.7033H32.2126V16.9709ZM22.0781 17.5015C22.5393 17.6938 22.5193 17.5545 22.5193 21.1289C22.5193 25.2803 22.5727 27.1371 22.6998 27.2631C22.8468 27.409 23.161 27.3758 23.2814 27.21C23.3683 27.0907 23.3883 26.832 23.3883 25.7776C23.3883 24.5044 23.3883 24.4977 23.5554 24.3386C23.7293 24.1595 24.0368 24.1197 24.2641 24.2457C24.5315 24.385 24.5783 24.6436 24.5381 25.8705C24.5114 26.8785 24.5181 27.0376 24.6184 27.1901C24.712 27.336 24.7788 27.3626 24.9794 27.3427C25.3403 27.3161 25.3938 27.1636 25.3938 26.0495V25.1145L25.6011 24.942C25.8752 24.7099 26.1359 24.7166 26.41 24.9619L26.6306 25.1543L26.664 26.401C26.6974 27.6411 26.6974 27.6543 26.8579 27.7273C27.0584 27.8268 27.2723 27.7538 27.3793 27.5482C27.4328 27.4488 27.4662 27.0907 27.4662 26.5933C27.4662 25.698 27.5197 25.5588 27.894 25.4328C28.1681 25.3466 28.3954 25.4195 28.596 25.6715C28.743 25.8572 28.743 25.8705 28.723 28.4767L28.7029 31.1027L28.5224 31.4343C28.2951 31.8654 27.8472 32.2765 27.4261 32.4357C27.1186 32.5551 26.8846 32.5617 23.8228 32.5617C20.6207 32.5617 20.5405 32.5617 20.2397 32.4224C19.8252 32.2301 19.4174 31.8521 19.2436 31.5073C19.1701 31.3481 18.8692 30.2937 18.5751 29.1597C18.1005 27.3228 17.7328 26.1357 17.4654 25.6251C17.4186 25.5256 17.3918 25.4328 17.4119 25.4195C17.4787 25.3532 18.1272 25.4991 18.4949 25.6649C18.9829 25.8837 19.3572 26.2485 19.8519 26.9713L20.2463 27.5482V28.3507C20.2463 29.0602 20.2597 29.1597 20.38 29.2791C20.5472 29.4449 20.6541 29.4449 20.8747 29.2724L21.0486 29.1398V23.5693C21.0486 17.5612 21.0419 17.7336 21.3962 17.5612C21.7438 17.3887 21.7973 17.3887 22.0781 17.5015Z" fill="#FA7436"/>
<path d="M3.4675 2.54727C3.11319 2.62021 2.8391 2.786 2.57839 3.09105C2.17728 3.55526 2.10375 4.17862 2.39789 4.74231C2.95275 5.80998 4.53042 5.81661 5.08528 4.74894C5.68025 3.62158 4.71091 2.3019 3.4675 2.54727ZM4.18948 3.416C4.25633 3.416 4.47025 3.88021 4.47025 4.03273C4.47025 4.66936 3.7349 4.98104 3.25358 4.54999C2.69203 4.05263 3.23352 3.15737 3.96887 3.36295C4.07584 3.38947 4.17611 3.416 4.18948 3.416Z" fill="#FA7436"/>
<path d="M7.47755 2.56702C6.34778 2.7726 5.88651 4.23816 6.68872 5.087C7.23689 5.66394 8.2597 5.6971 8.83461 5.15332C9.42958 4.58964 9.48975 3.69438 8.96832 3.09091C8.5739 2.63333 8.07252 2.45428 7.47755 2.56702ZM8.31318 3.55512C8.48031 3.71427 8.51373 3.80048 8.51373 4.05248C8.51373 4.31111 8.48031 4.38406 8.29313 4.54985C7.8118 4.9809 7.07645 4.66921 7.07645 4.03259C7.07645 3.74743 7.30374 3.42912 7.55777 3.3628C7.86528 3.27659 8.07921 3.32964 8.31318 3.55512Z" fill="#FA7436"/>
<path d="M11.5755 2.56082C10.0848 2.83935 9.87754 4.8686 11.2881 5.45881C11.6558 5.61133 12.3443 5.54502 12.6853 5.31954C13.1131 5.03439 13.3203 4.67628 13.3471 4.13913C13.3671 3.7744 13.3471 3.6285 13.2267 3.38977C12.9259 2.7664 12.2574 2.43483 11.5755 2.56082ZM12.4112 3.58208C12.6385 3.84734 12.6184 4.29829 12.3644 4.55029C12.2039 4.70281 12.1103 4.7426 11.8697 4.7426C11.3616 4.7426 11.0274 4.33144 11.1611 3.85397C11.3215 3.29692 12.0234 3.1444 12.4112 3.58208Z" fill="#FA7436"/>
<path d="M17.7065 3.59512C17.4391 3.68796 17.3522 4.05269 17.5594 4.23175C17.673 4.33785 18.2413 4.34448 24.3781 4.34448H31.0766L31.1835 4.17869C31.3239 3.96648 31.2637 3.72775 31.0431 3.62828C30.9161 3.56859 29.1981 3.5487 24.338 3.55533C20.7482 3.55533 17.76 3.57522 17.7065 3.59512Z" fill="#FA7436"/>
<path d="M8.23991 11.4864C7.69842 12.1363 7.24384 12.68 7.23715 12.6933C7.22378 12.7066 7.04997 12.5739 6.84273 12.4081C6.6355 12.2424 6.42158 12.1031 6.37478 12.1031C6.3213 12.1031 6.20097 12.1694 6.10069 12.2556C5.82661 12.4877 5.91351 12.68 6.51517 13.1575C7.00986 13.5554 7.2171 13.6283 7.50455 13.5222C7.69173 13.4493 9.81758 10.8696 9.81758 10.7105C9.81758 10.4452 9.69725 10.3126 9.45658 10.3126C9.24266 10.3126 9.16244 10.3922 8.23991 11.4864Z" fill="#FA7436"/>
<path d="M4.66346 10.6781C4.34926 10.8505 4.32921 10.9964 4.34926 13.1914L4.36932 15.2339L4.5565 15.3931L4.74368 15.5522H6.88289H9.0221L9.18255 15.3865C9.34299 15.2339 9.34967 15.1941 9.34967 14.3718C9.34967 13.6291 9.3363 13.5031 9.22934 13.4103C9.06222 13.2577 8.84161 13.271 8.68117 13.4302C8.56752 13.5429 8.54747 13.649 8.54747 14.1596V14.7565H6.84278H5.1381L5.15147 13.0787L5.17152 11.4075L6.10743 11.3876C6.96311 11.3744 7.05002 11.3611 7.16366 11.2351C7.31742 11.0428 7.31073 10.9367 7.11018 10.7444C6.94974 10.5852 6.92969 10.5786 5.8935 10.5786C5.11136 10.5852 4.79047 10.6051 4.66346 10.6781Z" fill="#FA7436"/>
<path d="M13.4275 10.89C13.0999 11.0094 12.9929 11.3344 13.2135 11.5267C13.3272 11.6328 13.989 11.6394 21.3359 11.6394C28.5156 11.6394 29.3379 11.6261 29.4315 11.5333C29.5451 11.4272 29.5718 11.1951 29.4849 11.0625C29.4582 11.0227 29.3512 10.9497 29.251 10.9166C29.0504 10.8436 13.628 10.8171 13.4275 10.89Z" fill="#FA7436"/>
<path d="M13.2273 14.2917C13.0602 14.4575 13.0535 14.7028 13.2139 14.8421C13.3276 14.9482 13.9894 14.9548 21.3296 14.9548C28.9839 14.9548 29.3249 14.9482 29.4252 14.8355C29.5789 14.6697 29.5655 14.4508 29.4051 14.2917C29.2714 14.159 29.1845 14.159 21.3162 14.159C13.4479 14.159 13.361 14.159 13.2273 14.2917Z" fill="#FA7436"/>
<path d="M8.3069 19.8427C7.79883 20.4528 7.34425 20.9965 7.30414 21.0496C7.23729 21.1358 7.18381 21.1159 6.93646 20.917C6.43508 20.5124 6.24122 20.4793 6.01393 20.7512C5.85349 20.9435 5.98719 21.1756 6.5153 21.5868C7.11027 22.0576 7.35093 22.104 7.67182 21.799C7.78546 21.6995 8.3069 21.096 8.8417 20.4594C9.85114 19.2591 9.95142 19.0734 9.71076 18.8413C9.65727 18.7816 9.52357 18.7352 9.4233 18.7352C9.26286 18.7352 9.10242 18.8944 8.3069 19.8427Z" fill="#FA7436"/>
<path d="M4.83041 19.0464C4.75019 19.0597 4.61649 19.1459 4.52958 19.2387L4.36914 19.4111V21.52V23.6288L4.52958 23.8012L4.69002 23.9736H6.85598H9.02193L9.18237 23.8078C9.34281 23.6553 9.3495 23.6155 9.3495 22.7866C9.3495 21.9709 9.34281 21.9179 9.20243 21.825C8.99519 21.6791 8.84143 21.6924 8.68099 21.8648C8.56735 21.9842 8.54729 22.0969 8.54729 22.5943V23.1778H6.84261H5.13792L5.15129 21.5001L5.17135 19.8289L6.12062 19.809C7.05653 19.7958 7.07658 19.7891 7.18354 19.6233C7.32393 19.4178 7.23034 19.1591 6.96962 19.0663C6.80918 19 5.12455 18.9867 4.83041 19.0464Z" fill="#FA7436"/>
<path d="M13.2072 19.4511C13.0668 19.6036 13.0602 19.7959 13.1872 19.9683C13.2808 20.0877 13.4011 20.0943 15.8813 20.1142C17.3052 20.1208 18.5419 20.1142 18.6221 20.0943C18.9631 20.0147 19.0901 19.65 18.8561 19.4444C18.7424 19.345 18.4483 19.3317 16.0216 19.3317C13.4813 19.3317 13.3075 19.3383 13.2072 19.4511Z" fill="#FA7436"/>
<path d="M25.5543 19.4974C25.4272 19.6897 25.4807 19.8953 25.6947 20.0345C25.8217 20.1207 26.1225 20.1274 27.5999 20.1141C29.2444 20.0942 29.3581 20.0876 29.445 19.9682C29.572 19.7892 29.5653 19.5703 29.4182 19.4443C29.3113 19.3448 29.0773 19.3316 27.4796 19.3316H25.6612L25.5543 19.4974Z" fill="#FA7436"/>
<path d="M13.3608 22.6278C13.0934 22.7207 13.0065 23.0854 13.2137 23.2645C13.314 23.3573 13.4945 23.3772 14.2031 23.3772C15.159 23.3772 15.2326 23.3507 15.2326 23.0058C15.2326 22.6477 15.0588 22.5814 14.1964 22.588C13.7953 22.588 13.4142 22.6079 13.3608 22.6278Z" fill="#FA7436"/>
</svg>
