<svg width="108" height="109" viewBox="0 0 108 109" fill="none" xmlns="http://www.w3.org/2000/svg">
<path d="M102.193 16.3999C93.338 11.1114 78.735 23.8496 75.0245 27.321C75.773 25.1195 77.0697 23.1448 78.7924 21.5831C78.8328 21.5514 78.8651 21.5107 78.8867 21.4641C78.9083 21.4176 78.9186 21.3666 78.9167 21.3153C78.9168 21.266 78.9047 21.2175 78.8813 21.174C78.8579 21.1306 78.824 21.0937 78.7828 21.0667C77.9625 20.5122 76.9994 20.2067 76.0095 20.1869C76.5189 19.5593 77.1734 19.065 77.9165 18.7468C78.6596 18.4286 79.4689 18.2959 80.2747 18.3603C80.3341 18.3691 80.3949 18.3602 80.4493 18.3347C80.5037 18.3092 80.5494 18.2682 80.5807 18.2169C80.6109 18.1645 80.6268 18.1052 80.6268 18.0447C80.6268 17.9843 80.6109 17.9249 80.5807 17.8726C80.1898 17.2812 79.6497 16.8035 79.0149 16.4878C78.3802 16.1721 77.6733 16.0296 76.9658 16.0747C78.2186 15.1184 81.0589 14.7741 82.2064 14.7359C82.2677 14.7353 82.3274 14.7168 82.3783 14.6829C82.4293 14.6489 82.4692 14.6009 82.4933 14.5446C82.5168 14.4898 82.5248 14.4296 82.5164 14.3705C82.5079 14.3115 82.4834 14.2559 82.4455 14.2099C81.3381 12.9218 79.7681 12.1214 78.0751 11.9817C79.6626 10.069 84.3677 9.49524 84.4155 9.48567C84.4827 9.48052 84.5463 9.45338 84.5964 9.40842C84.6465 9.36347 84.6805 9.30324 84.6929 9.23705C84.7086 9.20001 84.7169 9.16021 84.7173 9.11996C84.7176 9.07971 84.71 9.03981 84.6949 9.0025C84.6798 8.96519 84.6575 8.93121 84.6293 8.90254C84.601 8.87387 84.5674 8.85104 84.5303 8.83539C83.0377 7.88495 81.3456 7.29254 79.5861 7.10445C81.4988 4.73278 87.581 3.27918 87.6479 3.27918C87.7128 3.26399 87.7714 3.22923 87.8159 3.17963C87.8603 3.13003 87.8885 3.06797 87.8965 3.00184C87.904 2.9366 87.8916 2.87062 87.8609 2.81258C87.8302 2.75454 87.7826 2.70717 87.7244 2.67669C83.6505 0.553668 78.6776 2.61932 78.4481 2.67669C72.7102 5.54565 72.452 15.061 73.0545 21.65C70.7976 13.6457 65.8917 1.10835 57.2179 0.448486C56.931 0.448486 50.1698 0.448464 46.4593 4.81884C46.4218 4.87203 46.4017 4.93549 46.4017 5.00054C46.4017 5.06559 46.4218 5.12906 46.4593 5.18224C46.4927 5.23942 46.5423 5.28539 46.6019 5.31433C46.6615 5.34327 46.7283 5.35389 46.794 5.34483C46.88 5.34483 54.9609 4.03466 58.2698 6.04292C56.2513 7.08954 54.5157 8.60861 53.2109 10.4707C53.1718 10.5268 53.1508 10.5936 53.1508 10.662C53.1508 10.7303 53.1718 10.7971 53.2109 10.8532C53.2498 10.9079 53.3047 10.9493 53.3681 10.9715C53.4314 10.9938 53.5001 10.9959 53.5647 10.9775C53.6317 10.9775 59.6278 9.30398 62.382 10.9297C61.4123 11.3998 60.5464 12.059 59.8352 12.8687C59.1241 13.6784 58.5821 14.6221 58.2411 15.6444C58.2214 15.7025 58.219 15.7651 58.2343 15.8246C58.2495 15.884 58.2818 15.9377 58.3272 15.9791C58.37 16.0222 58.4247 16.0516 58.4843 16.0635C58.544 16.0755 58.6058 16.0694 58.6619 16.046C60.0868 15.5201 63.7973 14.4777 65.71 15.1854C64.8294 15.4416 64.0354 15.9331 63.4136 16.6072C62.7917 17.2813 62.3656 18.1123 62.1811 19.0106C62.1719 19.0705 62.1795 19.1317 62.2031 19.1875C62.2268 19.2432 62.2655 19.2913 62.315 19.3262C62.3674 19.3564 62.4267 19.3723 62.4872 19.3723C62.5476 19.3723 62.607 19.3564 62.6593 19.3262C63.6052 18.8392 64.659 18.5995 65.7225 18.6296C66.7861 18.6597 67.8246 18.9586 68.7415 19.4983C67.5475 19.9818 66.5251 20.811 65.8056 21.8796C65.7822 21.9238 65.7699 21.973 65.7699 22.023C65.7699 22.073 65.7822 22.1223 65.8056 22.1665C65.8233 22.2136 65.8514 22.2562 65.8878 22.2909C65.9243 22.3257 65.9681 22.3518 66.016 22.3673C68.8308 23.3771 71.3352 25.1005 73.284 27.3688C68.5598 25.5423 52.5319 20.0434 46.9087 27.3688C46.7748 27.5697 43.6094 32.3417 44.9961 37.0181C45.0152 37.0808 45.0528 37.1363 45.104 37.1773C45.1552 37.2182 45.2176 37.2427 45.283 37.2476H45.3308C45.3882 37.2415 45.4429 37.2207 45.4898 37.1871C45.5367 37.1536 45.5742 37.1086 45.5986 37.0563C45.5986 36.9894 48.391 30.8307 51.2791 29.4058C51.1069 31.2921 51.3821 33.1925 52.0824 34.9524C52.1046 35.0153 52.1462 35.0696 52.2012 35.1074C52.2562 35.1452 52.3218 35.1646 52.3885 35.1628C52.4572 35.1618 52.5238 35.1391 52.5788 35.0978C52.6338 35.0566 52.6743 34.999 52.6945 34.9333C52.6945 34.8855 54.2724 30.0274 56.6249 28.7746C56.5202 29.6693 56.5929 30.5757 56.8391 31.4422C57.0852 32.3087 57.4999 33.1181 58.0594 33.824C58.0978 33.8709 58.1488 33.9058 58.2065 33.9244C58.2642 33.9431 58.326 33.9447 58.3846 33.9292C58.4435 33.9172 58.4976 33.8882 58.5401 33.8456C58.5826 33.8031 58.6117 33.749 58.6236 33.6901C58.901 32.4851 59.8286 29.5205 61.1388 28.4303C60.9389 29.1644 60.938 29.9384 61.1364 30.6729C61.3347 31.4074 61.725 32.0758 62.2672 32.6094C62.3119 32.6496 62.3665 32.677 62.4254 32.6888C62.4843 32.7006 62.5453 32.6963 62.6019 32.6764C62.6591 32.6539 62.7089 32.6162 62.746 32.5672C62.7831 32.5183 62.8061 32.4602 62.8123 32.3991C62.913 31.5348 63.2225 30.7079 63.714 29.9899C64.2055 29.2718 64.8642 28.6841 65.6334 28.2773C65.443 29.3216 65.5627 30.3988 65.9777 31.3758C65.9969 31.4217 66.0269 31.4622 66.0652 31.4939C66.1035 31.5255 66.149 31.5474 66.1977 31.5575C66.2459 31.5682 66.296 31.5677 66.3441 31.5561C66.3921 31.5445 66.4369 31.5221 66.475 31.4906C67.2306 30.8979 68.056 30.4001 68.9328 30.0083C68.5498 30.3616 68.2525 30.7976 68.0636 31.2832C67.8747 31.7688 67.7991 32.2911 67.8425 32.8103C67.9204 33.7219 68.357 34.5653 69.0563 35.1552C69.7556 35.7452 70.6605 36.0334 71.5722 35.9566C72.3217 35.8908 73.0281 35.578 73.5804 35.0672C74.3933 37.1902 77.5014 47.3654 72.2416 67.582C65.1457 69.7146 64.0173 71.9524 63.0323 73.932C62.7128 74.6512 62.2873 75.3185 61.7699 75.9116C61.27 76.6183 60.9743 77.4491 60.9152 78.3127C60.8562 79.1764 61.0361 80.0397 61.4352 80.8079C62.7454 83.543 67.0584 86.5458 80.1217 85.446C89.1111 84.681 94.6481 82.5771 96.5799 79.1917C96.972 78.5433 97.2073 77.8122 97.2671 77.0568C97.3269 76.3014 97.2094 75.5425 96.9242 74.8404C95.0115 70.2692 90.1152 66.5683 85.4484 66.1188C84.7024 58.7456 82.4168 41.465 77.0041 34.5603C77.233 34.5842 77.4637 34.5842 77.6926 34.5603C78.605 34.4801 79.4484 34.0415 80.0382 33.3407C80.6279 32.6398 80.9158 31.7338 80.8389 30.8211C80.7794 30.1352 80.5151 29.483 80.0802 28.9492C79.6454 28.4155 79.06 28.0247 78.4003 27.8278C80.2425 27.6678 82.0984 27.8395 83.88 28.3347C83.9232 28.3558 83.9706 28.3668 84.0187 28.3668C84.0667 28.3668 84.1141 28.3558 84.1573 28.3347C84.1997 28.3082 84.235 28.2716 84.26 28.2283C84.285 28.1849 84.299 28.1361 84.3008 28.0861C84.3248 26.8967 83.9917 25.7275 83.3445 24.7294C84.3162 24.8211 85.2499 25.1532 86.0613 25.6958C86.8726 26.2384 87.5362 26.9744 87.9922 27.8374C88.0186 27.8912 88.0594 27.9366 88.11 27.9687C88.1606 28.0008 88.2192 28.0182 88.2791 28.0191C88.339 28.0182 88.3975 28.0008 88.4481 27.9687C88.4987 27.9366 88.5395 27.8912 88.566 27.8374C88.913 27.0633 89.043 26.2094 88.9419 25.3671C88.8408 24.5248 88.5125 23.7258 87.9922 23.0558C89.79 23.5818 92.0087 26.3073 92.7738 27.4549C92.8066 27.5023 92.8512 27.5405 92.9031 27.5656C92.9551 27.5907 93.0126 27.602 93.0702 27.5983C93.1309 27.5893 93.1877 27.5628 93.2335 27.5221C93.2794 27.4813 93.3124 27.4281 93.3284 27.3688C93.6118 26.4204 93.7052 25.4254 93.6035 24.4408C93.5018 23.4562 93.2068 22.5014 92.7355 21.6309C95.6714 21.9178 99.2863 26.3264 99.3245 26.4125C99.3674 26.4647 99.4251 26.5026 99.49 26.5214C99.5548 26.5401 99.6238 26.5389 99.6879 26.5177C99.7534 26.4964 99.8098 26.4537 99.8479 26.3964C99.8861 26.3392 99.9039 26.2707 99.8983 26.2021C99.9064 24.1053 99.4146 22.0367 98.4639 20.1678C102.012 20.4355 107.396 25.6953 107.453 25.7527C107.5 25.799 107.561 25.8295 107.626 25.8398C107.691 25.8501 107.758 25.8397 107.817 25.81C107.876 25.7826 107.925 25.7376 107.958 25.6811C107.99 25.6246 108.004 25.5594 107.998 25.4945C107.587 20.1678 102.433 16.5624 102.193 16.3999ZM85.0849 69.5807C84.9598 70.5855 84.5478 71.533 83.8982 72.3097C83.2487 73.0865 82.3891 73.6597 81.4223 73.9607C78.7063 74.917 74.8715 74.2858 73.0545 72.5835C72.6844 72.283 72.4077 71.8831 72.257 71.4309C72.1062 70.9786 72.0876 70.4927 72.2033 70.0302L72.4329 69.1886C74.785 70.0628 77.2902 70.45 79.7965 70.3266C81.7487 70.248 83.5951 69.419 84.9511 68.0124C85.0371 68.8826 85.0754 69.4372 85.0849 69.5807ZM84.865 67.0943C81.5848 71.5029 74.0969 69.1026 72.5954 68.5575C73.0353 66.9317 73.4211 65.3697 73.7526 63.8715C75.4427 64.9149 77.4271 65.3783 79.4044 65.1912C81.1967 65.001 82.9261 64.4235 84.4729 63.4985C84.6355 64.8948 84.7694 66.1189 84.865 67.0943ZM84.3869 62.8004C78.6489 66.2432 74.7089 63.7567 73.8674 63.1925C74.1925 61.6911 74.4603 60.2566 74.6993 58.8891C76.2412 59.3869 77.8655 59.5786 79.4809 59.4533C80.9581 59.3362 82.3914 58.8954 83.6792 58.1623C83.9947 59.8167 84.2052 61.4329 84.3869 62.8004ZM74.8237 58.2388C75.0628 56.8043 75.254 55.4272 75.3975 54.1362C76.6628 54.599 78.0143 54.7786 79.3566 54.6622C80.6108 54.5558 81.8274 54.1807 82.9237 53.5624C83.1819 54.8917 83.4018 56.2018 83.6027 57.4737C82.2761 58.2036 80.8118 58.6486 79.3034 58.7804C77.7951 58.9121 76.2758 58.7276 74.8428 58.2388H74.8237ZM75.4644 53.4572C75.5887 52.2331 75.6843 51.0664 75.7417 49.9666C76.8221 50.3254 77.9639 50.462 79.0984 50.3683C80.1486 50.2747 81.1647 49.948 82.0726 49.412C82.3308 50.55 82.5794 51.7071 82.7994 52.8451C81.7027 53.4856 80.477 53.8737 79.2116 53.9813C77.9461 54.0888 76.6726 53.913 75.4835 53.4668L75.4644 53.4572ZM75.78 49.2876C75.78 48.2644 75.8374 47.2985 75.8278 46.4187C76.5342 46.5472 77.2544 46.5826 77.97 46.5239C79.0741 46.4494 80.1348 46.0649 81.0302 45.4146C81.3458 46.5239 81.6422 47.6619 81.91 48.8095C80.9878 49.3292 79.9635 49.642 78.9082 49.7262C77.853 49.8104 76.7921 49.664 75.7991 49.2972L75.78 49.2876ZM75.8278 45.7206C75.8278 44.5826 75.7513 43.5402 75.6652 42.5839C76.1794 42.7003 76.7085 42.7357 77.2336 42.689C78.1812 42.6036 79.0906 42.2741 79.873 41.7327C80.2077 42.689 80.5329 43.6454 80.8293 44.6877C80.1178 45.2 79.3068 45.5574 78.4486 45.737C77.5904 45.9165 76.7042 45.9142 75.8469 45.7301L75.8278 45.7206ZM75.6079 41.8953C75.525 41.092 75.4293 40.3556 75.3209 39.6862C75.6231 39.7158 75.9273 39.7158 76.2295 39.6862C77.1124 39.6246 77.9544 39.2905 78.6394 38.7299C78.9932 39.4854 79.3184 40.2887 79.6435 41.1207C79.0786 41.5499 78.4227 41.8438 77.7264 41.9797C77.0301 42.1157 76.3119 42.09 75.627 41.9049L75.6079 41.8953ZM75.2158 39.0264C75.0723 38.2613 74.9289 37.6014 74.7854 37.0372C74.9826 37.0564 75.1812 37.0564 75.3783 37.0372C76.1001 36.9878 76.7795 36.6786 77.291 36.1669C77.6901 36.7834 78.0541 37.422 78.3812 38.0796C77.9608 38.4629 77.4603 38.7477 76.916 38.9131C76.3717 39.0785 75.7974 39.1205 75.2349 39.0359L75.2158 39.0264ZM74.5941 36.3486C74.4124 35.7175 74.2499 35.2489 74.1256 34.9237H74.5368C75.044 34.8771 75.5343 34.717 75.9712 34.4552C76.3123 34.8219 76.6316 35.2083 76.9276 35.6123C76.642 35.9298 76.2774 36.1661 75.8709 36.2971C75.4645 36.4281 75.0305 36.4492 74.6133 36.3582L74.5941 36.3486ZM75.8469 33.7761C75.533 33.9913 75.1794 34.1419 74.8067 34.2191C74.434 34.2962 74.0497 34.2984 73.6761 34.2256C73.0842 34.1041 72.5474 33.7945 72.1458 33.3429C71.7443 32.8914 71.4995 32.3221 71.4479 31.7201C71.415 31.3587 71.4538 30.9945 71.5621 30.6482C71.6704 30.3019 71.8461 29.9804 72.079 29.7023C72.3125 29.4125 72.6024 29.1731 72.9312 28.9989C73.26 28.8246 73.6208 28.719 73.9917 28.6886H74.4029C74.7577 28.7064 75.1054 28.7941 75.4262 28.9468C75.87 29.156 76.2512 29.4781 76.5314 29.8809C76.8117 30.2837 76.9813 30.753 77.0232 31.2419C77.0718 31.7303 76.9903 32.2229 76.7871 32.6696C76.5839 33.1164 76.2661 33.5014 75.8661 33.7857L75.8469 33.7761ZM78.7159 3.33656C79.9427 2.86123 81.2305 2.56181 82.5412 2.44719C83.9108 2.30484 85.2949 2.46479 86.5959 2.91577C84.5972 3.47044 79.9017 4.98144 78.7159 7.29573C78.6853 7.34445 78.6691 7.40078 78.6691 7.45828C78.6691 7.51579 78.6853 7.57215 78.7159 7.62087C78.7458 7.66899 78.7884 7.70785 78.839 7.73317C78.8897 7.7585 78.9464 7.76929 79.0028 7.76431C80.5322 7.80089 82.0293 8.2113 83.3636 8.95971C81.6613 9.2753 78.1708 10.136 77.1571 12.106C77.1294 12.154 77.1148 12.2084 77.1148 12.2638C77.1148 12.3192 77.1294 12.3736 77.1571 12.4216C77.1865 12.4707 77.2288 12.5109 77.2793 12.5379C77.3299 12.5648 77.3868 12.5775 77.444 12.5746C78.9153 12.5814 80.3336 13.1255 81.4318 14.1047C79.9782 14.229 76.698 14.6976 75.8565 16.2947C75.8243 16.3463 75.8072 16.406 75.8072 16.4668C75.8072 16.5277 75.8243 16.5873 75.8565 16.6389C75.8906 16.6913 75.9405 16.7315 75.9989 16.7538C76.0573 16.7762 76.1212 16.7795 76.1816 16.7633C76.7783 16.6434 77.3951 16.6676 77.9805 16.8339C78.566 17.0003 79.1033 17.3039 79.5479 17.7196C78.6275 17.7358 77.7269 17.9889 76.9329 18.4546C76.1389 18.9203 75.4783 19.5828 75.0149 20.3782C74.9846 20.4287 74.9685 20.4865 74.9685 20.5455C74.9685 20.6045 74.9846 20.6623 75.0149 20.7129C75.0479 20.7625 75.0939 20.8022 75.1478 20.8275C75.2018 20.8528 75.2617 20.8627 75.3209 20.8563C76.2247 20.7939 77.1288 20.972 77.9412 21.3727C76.3169 22.9436 75.0823 24.8725 74.3359 27.0054C73.657 22.4151 71.5339 6.97057 78.7924 3.34613L78.7159 3.33656ZM66.5037 21.9848C67.2771 21.0667 68.2901 20.3814 69.43 20.0052C69.4874 19.9888 69.5392 19.9569 69.5797 19.9131C69.6202 19.8692 69.6478 19.8151 69.6596 19.7565C69.6688 19.6976 69.6622 19.6373 69.6403 19.5818C69.6185 19.5263 69.5822 19.4777 69.5352 19.4409C68.5887 18.7314 67.4741 18.2798 66.3006 18.1306C65.1271 17.9814 63.935 18.1397 62.841 18.5898C63.6156 16.199 66.3411 15.7209 66.4654 15.6635C66.5266 15.6557 66.584 15.6296 66.63 15.5887C66.6761 15.5477 66.7087 15.4938 66.7237 15.434C66.7377 15.3739 66.7354 15.3111 66.7169 15.2522C66.6984 15.1933 66.6644 15.1405 66.6184 15.0993C64.8397 13.6074 60.6032 14.7646 58.9679 15.2905C59.7685 13.5166 61.2151 12.1145 63.0131 11.3696C63.0675 11.3512 63.1158 11.3184 63.1529 11.2745C63.19 11.2307 63.2144 11.1777 63.2235 11.121C63.2333 11.0653 63.2288 11.0079 63.2104 10.9544C63.192 10.9009 63.1603 10.8529 63.1183 10.815C60.9379 8.95015 56.1946 9.7439 54.1863 10.1934C55.4222 8.57956 57.0478 7.30608 58.9105 6.49239C58.9644 6.47311 59.0122 6.43997 59.0491 6.39632C59.086 6.35266 59.1108 6.30006 59.1209 6.24377C59.1326 6.18802 59.129 6.13013 59.1105 6.07625C59.092 6.02237 59.0593 5.97451 59.0157 5.93774C56.4241 3.75734 49.9307 4.34068 47.5399 4.63714C51.1548 1.13701 57.1031 1.15615 57.1605 1.15615C67.6035 1.95946 72.5476 21.8031 73.6761 27.0915C71.7498 24.8355 69.3004 23.0856 66.542 21.9943L66.5037 21.9848ZM66.3603 30.8307C66.1064 29.8912 66.1064 28.9012 66.3603 27.9617C66.378 27.9049 66.3794 27.8443 66.3641 27.7868C66.3489 27.7292 66.3177 27.6772 66.2742 27.6366C66.2326 27.5947 66.1801 27.5653 66.1226 27.5518C66.0651 27.5383 66.005 27.5411 65.949 27.5601C65.0221 27.8904 64.1957 28.4536 63.5493 29.1956C62.9028 29.9375 62.458 30.8332 62.2576 31.7966C61.9036 31.2394 61.69 30.6046 61.635 29.9467C61.58 29.2888 61.6854 28.6274 61.9421 28.0191C61.9746 27.9694 61.9919 27.9112 61.9919 27.8518C61.9919 27.7923 61.9746 27.7342 61.9421 27.6844C61.9011 27.6384 61.8478 27.605 61.7886 27.588C61.7293 27.5711 61.6665 27.5713 61.6074 27.5888C59.7521 28.1339 58.6045 31.5288 58.1933 32.992C57.3649 31.6359 57.0717 30.0197 57.3709 28.459C57.3827 28.4041 57.3802 28.3471 57.3634 28.2934C57.3466 28.2398 57.3163 28.1914 57.2752 28.153C57.2358 28.111 57.1849 28.0813 57.1288 28.0677C57.0728 28.0541 57.014 28.0572 56.9597 28.0765C54.6836 28.7364 53.0674 32.2843 52.4171 33.977C51.8909 32.4075 51.7563 30.7332 52.0251 29.0998C52.0409 29.0443 52.0413 28.9856 52.0261 28.9299C52.0109 28.8743 51.9808 28.8239 51.939 28.7842C51.8983 28.744 51.8474 28.7157 51.7918 28.7022C51.7362 28.6887 51.678 28.6906 51.6234 28.7077C48.9361 29.511 46.3923 34.1587 45.4264 36.1C44.7283 31.9974 47.4251 27.9235 47.4443 27.8948C49.07 25.7909 51.6808 24.8442 54.6645 24.5859C61.4065 24.0122 69.9656 26.9959 73.131 28.1913C70.6957 28.5179 68.3741 29.4229 66.3603 30.8307ZM71.9069 29.0615L71.7443 29.2145H71.4574L71.9069 29.0615ZM68.4355 32.8868C68.404 32.5193 68.4454 32.1492 68.5573 31.7978C68.6692 31.4464 68.8494 31.1205 69.0875 30.8389C69.3256 30.5572 69.617 30.3254 69.9449 30.1566C70.2728 29.9878 70.6308 29.8854 70.9984 29.8553H71.2853V29.9031C71.2853 29.9509 71.2375 30.0083 71.2088 30.0561C71.1434 30.1864 71.0859 30.3205 71.0367 30.4577L70.9793 30.6586C70.9406 30.7934 70.9118 30.9308 70.8932 31.0698V31.2515C70.8741 31.4582 70.8741 31.6663 70.8932 31.8731C70.9079 32.0473 70.9367 32.22 70.9793 32.3895C70.9793 32.4469 70.9793 32.5043 71.0271 32.5616L71.1418 32.8868L71.2279 33.0685C71.2732 33.164 71.3243 33.2566 71.3809 33.3458L71.4957 33.5275C71.5508 33.6112 71.6115 33.6911 71.6774 33.7666L71.8208 33.9292C71.8893 34.0072 71.9628 34.0807 72.0408 34.1491L72.2033 34.283C72.2853 34.3521 72.3716 34.416 72.4616 34.4743L72.6241 34.5795C72.762 34.6578 72.9059 34.725 73.0545 34.7803C72.6125 35.1557 72.064 35.3831 71.4861 35.4306C71.1114 35.4659 70.7333 35.4257 70.3745 35.3122C70.0156 35.1987 69.6832 35.0143 69.3969 34.7699C69.1106 34.5255 68.8763 34.2261 68.7078 33.8895C68.5394 33.5529 68.4403 33.1859 68.4163 32.8103L68.4355 32.8868ZM96.3121 75.2421C96.5563 75.8621 96.6532 76.5303 96.5951 77.1942C96.537 77.858 96.3256 78.4992 95.9774 79.0674C94.7246 81.2478 90.9376 84.0498 80.0356 84.987C66.6471 86.125 62.9845 82.797 61.9803 80.7027C61.6438 80.0502 61.4876 79.3197 61.528 78.5867C61.5683 77.8537 61.8037 77.1447 62.2098 76.5331C62.7718 75.8943 63.2358 75.1756 63.5869 74.4006C64.5433 72.4879 65.5474 70.5179 72.0121 68.5001C71.8878 68.9878 71.7539 69.4564 71.62 69.9728C71.4622 70.5479 71.4759 71.1566 71.6594 71.7241C71.8429 72.2916 72.1881 72.793 72.6528 73.1669C73.6088 73.929 74.7055 74.4952 75.8804 74.8332C77.0553 75.1713 78.2853 75.2745 79.5001 75.1369C80.2429 75.0737 80.9752 74.9195 81.6805 74.6779C82.7638 74.337 83.726 73.6912 84.4518 72.8178C85.1777 71.9444 85.6366 70.8803 85.7735 69.7529V69.6859C85.7735 69.4851 85.6874 68.4905 85.5344 66.9508C87.8653 67.3288 90.0668 68.2764 91.9436 69.7094C93.8204 71.1424 95.3144 73.0166 96.293 75.1656L96.3121 75.2421ZM80.1886 31.0602C80.2201 31.4269 80.179 31.7963 80.0677 32.1471C79.9564 32.498 79.7771 32.8234 79.54 33.105C79.3029 33.3865 79.0126 33.6185 78.6858 33.7878C78.359 33.9572 78.002 34.0604 77.6353 34.0918C77.3145 34.1228 76.9907 34.0969 76.6789 34.0152C76.7363 33.9674 76.7746 33.91 76.8319 33.8527L76.9084 33.7666C76.9945 33.6614 77.0806 33.5466 77.1571 33.4319C77.224 33.3267 77.2814 33.2119 77.3388 33.1067L77.3962 32.9824C77.3962 32.8963 77.4631 32.8103 77.4918 32.7146C77.5205 32.619 77.4918 32.619 77.5396 32.5712C77.5675 32.4834 77.5899 32.394 77.6066 32.3034V32.16V31.8731C77.611 31.8286 77.611 31.7837 77.6066 31.7392C77.6161 31.5959 77.6161 31.4521 77.6066 31.3089C77.6066 31.1654 77.6066 31.0315 77.5396 30.8881C77.4727 30.7446 77.5396 30.802 77.5396 30.7542C77.5396 30.7064 77.4918 30.5725 77.4631 30.4864L77.4057 30.3334C77.3747 30.252 77.3396 30.1722 77.3005 30.0943C77.2788 30.0446 77.2532 29.9966 77.224 29.9509C77.224 29.8744 77.138 29.7979 77.0901 29.7214L77.0041 29.597C76.9454 29.5078 76.8782 29.4245 76.8033 29.3484L76.7458 29.2719C76.655 29.1747 76.5592 29.0821 76.459 28.9946L76.3442 28.9085L76.1816 28.7746C76.4668 28.6499 76.7705 28.5723 77.0806 28.5451C77.8126 28.464 78.5471 28.6745 79.1252 29.1308C79.7033 29.5872 80.0784 30.2529 80.1695 30.9837L80.1886 31.0602ZM97.9187 19.5844C97.8624 19.5896 97.8083 19.609 97.7614 19.6407C97.7146 19.6725 97.6766 19.7156 97.651 19.7661C97.6233 19.8158 97.6088 19.8718 97.6088 19.9287C97.6088 19.9856 97.6233 20.0415 97.651 20.0912C98.6076 21.686 99.1531 23.4933 99.2385 25.351C97.9283 23.9165 94.8107 20.8563 92.1904 21.0858C92.1349 21.0898 92.0816 21.1088 92.0361 21.1408C91.9906 21.1728 91.9546 21.2166 91.9322 21.2675C91.9046 21.3173 91.8901 21.3732 91.8901 21.4301C91.8901 21.487 91.9046 21.5429 91.9322 21.5927C92.871 23.1041 93.2121 24.9115 92.8885 26.6612C91.9322 25.3606 89.331 22.2717 87.1984 22.4629C87.1363 22.4657 87.0765 22.4873 87.0269 22.5248C86.9774 22.5624 86.9405 22.6142 86.9211 22.6733C86.8975 22.7301 86.8922 22.7929 86.9059 22.8529C86.9197 22.9128 86.9517 22.9671 86.9976 23.008C87.5162 23.5384 87.8958 24.1886 88.1027 24.901C88.3096 25.6134 88.3373 26.3658 88.1834 27.0915C87.5895 26.1844 86.7732 25.4446 85.8123 24.9423C84.8514 24.4401 83.7779 24.1923 82.6942 24.2225C82.6337 24.2264 82.5754 24.2461 82.5251 24.2797C82.4747 24.3133 82.4341 24.3595 82.4073 24.4138C82.3838 24.4686 82.3758 24.5288 82.3842 24.5879C82.3927 24.6469 82.4172 24.7025 82.4551 24.7485C83.1101 25.6301 83.5074 26.6763 83.6027 27.7705C81.8219 27.3266 79.9794 27.1843 78.1516 27.3497C77.266 27.4314 76.3872 27.5752 75.5218 27.78C79.347 24.2895 93.5484 12.0677 101.811 17.0119C101.859 17.0119 106.344 20.1773 107.233 24.7294C105.569 23.1036 101.008 19.2688 97.9187 19.5366V19.5844Z" fill="#E5E5E5"/>
<path d="M58.2033 39.3515C49.3478 34.0631 34.7448 46.8012 31.0343 50.2727C31.7827 48.0712 33.0794 46.0965 34.8022 44.5348C34.8425 44.5031 34.8748 44.4623 34.8964 44.4158C34.9181 44.3693 34.9284 44.3183 34.9265 44.267C34.9266 44.2177 34.9144 44.1691 34.891 44.1257C34.8677 44.0823 34.8338 44.0454 34.7926 44.0184C33.9723 43.4639 33.0092 43.1583 32.0193 43.1385C32.5287 42.5109 33.1832 42.0167 33.9263 41.6985C34.6693 41.3803 35.4787 41.2476 36.2844 41.312C36.3439 41.3207 36.4046 41.3119 36.459 41.2863C36.5135 41.2608 36.5592 41.2198 36.5905 41.1685C36.6207 41.1162 36.6366 41.0568 36.6366 40.9964C36.6366 40.936 36.6207 40.8766 36.5905 40.8243C36.1996 40.2329 35.6594 39.7552 35.0247 39.4395C34.3899 39.1238 33.6831 38.9813 32.9756 39.0264C34.2284 38.0701 37.0686 37.7258 38.2162 37.6875C38.2774 37.6869 38.3371 37.6685 38.3881 37.6345C38.439 37.6006 38.479 37.5525 38.5031 37.4963C38.5266 37.4415 38.5346 37.3812 38.5261 37.3222C38.5177 37.2632 38.4932 37.2076 38.4553 37.1615C37.3478 35.8735 35.7779 35.073 34.0849 34.9333C35.6724 33.0207 40.3775 32.4469 40.4253 32.4373C40.4925 32.4322 40.556 32.405 40.6062 32.3601C40.6563 32.3151 40.6902 32.2549 40.7026 32.1887C40.7184 32.1517 40.7267 32.1119 40.727 32.0716C40.7274 32.0314 40.7198 31.9915 40.7047 31.9542C40.6896 31.9168 40.6673 31.8829 40.639 31.8542C40.6108 31.8255 40.5771 31.8027 40.5401 31.787C39.0475 30.8366 37.3553 30.2442 35.5959 30.0561C37.5085 27.6844 43.5907 26.2308 43.6577 26.2308C43.7225 26.2157 43.7812 26.1809 43.8256 26.1313C43.8701 26.0817 43.8982 26.0196 43.9063 25.9535C43.9138 25.8883 43.9014 25.8223 43.8707 25.7642C43.8399 25.7062 43.7923 25.6588 43.7342 25.6284C39.6602 23.5053 34.6874 25.571 34.4579 25.6284C28.72 28.4973 28.4618 38.0127 29.0642 44.6017C26.8073 36.5973 21.9014 24.06 13.2276 23.4001C12.9407 23.4001 6.17955 23.4001 2.46904 27.7705C2.43159 27.8237 2.41149 27.8871 2.41149 27.9522C2.41149 28.0173 2.43159 28.0807 2.46904 28.1339C2.50248 28.1911 2.55211 28.2371 2.61169 28.266C2.67128 28.2949 2.73811 28.3056 2.80373 28.2965C2.8898 28.2965 10.9707 26.9863 14.2796 28.9946C12.2611 30.0412 10.5254 31.5603 9.22064 33.4223C9.18156 33.4785 9.16061 33.5452 9.16061 33.6136C9.16061 33.682 9.18156 33.7487 9.22064 33.8049C9.25956 33.8596 9.31448 33.9009 9.37783 33.9232C9.44119 33.9455 9.50988 33.9475 9.57448 33.9292C9.64142 33.9292 15.6375 32.2556 18.3917 33.8814C17.422 34.3514 16.5561 35.0107 15.845 35.8204C15.1339 36.63 14.5919 37.5738 14.2509 38.596C14.2311 38.6541 14.2287 38.7168 14.244 38.7762C14.2593 38.8357 14.2916 38.8894 14.337 38.9307C14.3798 38.9739 14.4345 39.0033 14.4941 39.0152C14.5537 39.0271 14.6155 39.021 14.6717 38.9977C16.0966 38.4717 19.8071 37.4293 21.7197 38.137C20.8392 38.3932 20.0452 38.8848 19.4233 39.5589C18.8015 40.233 18.3754 41.0639 18.1909 41.9623C18.1816 42.0221 18.1892 42.0834 18.2129 42.1391C18.2365 42.1949 18.2753 42.2429 18.3248 42.2779C18.3771 42.3081 18.4365 42.324 18.4969 42.324C18.5574 42.324 18.6167 42.3081 18.6691 42.2779C19.615 41.7908 20.6688 41.5512 21.7323 41.5813C22.7958 41.6114 23.8344 41.9102 24.7512 42.45C23.5572 42.9335 22.5349 43.7627 21.8154 44.8312C21.7919 44.8754 21.7796 44.9247 21.7796 44.9747C21.7796 45.0247 21.7919 45.0739 21.8154 45.1181C21.8331 45.1653 21.8612 45.2078 21.8976 45.2426C21.934 45.2774 21.9778 45.3034 22.0258 45.3189C24.8406 46.3288 27.3449 48.0522 29.2938 50.3205C24.5695 48.4939 8.54163 42.9951 2.91848 50.3205C2.7846 50.5213 -0.380815 55.2933 1.00585 59.9697C1.02495 60.0325 1.06257 60.088 1.11377 60.1289C1.16497 60.1699 1.2274 60.1944 1.29279 60.1992H1.34059C1.39792 60.1931 1.45268 60.1723 1.49959 60.1388C1.5465 60.1053 1.58395 60.0602 1.60833 60.008C1.60833 59.9411 4.40081 53.7824 7.28889 52.3575C7.11662 54.2438 7.39185 56.1441 8.0922 57.9041C8.11441 57.967 8.15599 58.0213 8.21098 58.0591C8.26596 58.0969 8.33152 58.1163 8.39822 58.1145C8.46694 58.1135 8.53356 58.0907 8.58854 58.0495C8.64352 58.0083 8.68402 57.9507 8.70422 57.885C8.70422 57.8372 10.2822 52.9791 12.6347 51.7263C12.5299 52.6209 12.6027 53.5274 12.8489 54.3939C13.095 55.2603 13.5097 56.0697 14.0692 56.7756C14.1076 56.8225 14.1586 56.8574 14.2163 56.8761C14.2739 56.8947 14.3358 56.8964 14.3943 56.8808C14.4533 56.8689 14.5074 56.8398 14.5499 56.7973C14.5924 56.7548 14.6215 56.7007 14.6334 56.6417C14.9107 55.4368 15.8384 52.4722 17.1485 51.382C16.9486 52.116 16.9478 52.8901 17.1461 53.6246C17.3445 54.359 17.7348 55.0274 18.277 55.5611C18.3216 55.6013 18.3763 55.6287 18.4352 55.6405C18.494 55.6522 18.555 55.6479 18.6117 55.628C18.6688 55.6056 18.7187 55.5678 18.7558 55.5189C18.7929 55.47 18.8158 55.4118 18.8221 55.3507C18.9228 54.4864 19.2323 53.6596 19.7237 52.9415C20.2152 52.2235 20.874 51.6357 21.6432 51.229C21.4527 52.2733 21.5725 53.3505 21.9875 54.3275C22.0066 54.3733 22.0367 54.4139 22.075 54.4455C22.1133 54.4772 22.1588 54.499 22.2074 54.5092C22.2557 54.5198 22.3058 54.5193 22.3538 54.5077C22.4019 54.4961 22.4467 54.4737 22.4848 54.4422C23.2404 53.8496 24.0658 53.3518 24.9425 52.9599C24.5596 53.3132 24.2623 53.7493 24.0734 54.2349C23.8844 54.7204 23.8088 55.2427 23.8523 55.7619C23.9302 56.6735 24.3667 57.517 25.0661 58.1069C25.7654 58.6968 26.6703 58.985 27.582 58.9082C28.3314 58.8425 29.0378 58.5296 29.5902 58.0188C30.4031 60.1419 33.5111 70.3171 28.2514 90.5337C21.1555 92.6662 20.027 94.904 19.042 96.8836C18.7226 97.6029 18.2971 98.2702 17.7797 98.8632C17.2798 99.57 16.984 100.401 16.925 101.264C16.866 102.128 17.0459 102.991 17.445 103.76C18.7551 106.495 23.0681 109.497 36.1314 108.398C45.1208 107.633 50.6579 105.529 52.5897 102.143C52.9818 101.495 53.2171 100.764 53.2769 100.008C53.3366 99.2531 53.2192 98.4941 52.9339 97.7921C51.0213 93.2209 46.125 89.52 41.4581 89.0705C40.7122 81.6973 38.4266 64.4166 33.0138 57.512C33.2427 57.5359 33.4735 57.5359 33.7024 57.512C34.6148 57.4317 35.4582 56.9932 36.0479 56.2923C36.6376 55.5915 36.9256 54.6855 36.8487 53.7728C36.7892 53.0869 36.5249 52.4347 36.09 51.9009C35.6551 51.3671 35.0698 50.9764 34.4101 50.7795C36.2522 50.6195 38.1082 50.7912 39.8898 51.2864C39.9329 51.3075 39.9804 51.3185 40.0284 51.3185C40.0765 51.3185 40.1239 51.3075 40.1671 51.2864C40.2095 51.2598 40.2448 51.2233 40.2698 51.1799C40.2948 51.1366 40.3088 51.0877 40.3106 51.0377C40.3346 49.8484 40.0015 48.6791 39.3542 47.681C40.326 47.7727 41.2596 48.1049 42.071 48.6475C42.8824 49.1901 43.546 49.926 44.0019 50.7891C44.0284 50.8429 44.0691 50.8883 44.1198 50.9204C44.1704 50.9524 44.2289 50.9699 44.2888 50.9708C44.3488 50.9699 44.4072 50.9524 44.4579 50.9204C44.5085 50.8883 44.5493 50.8429 44.5757 50.7891C44.9228 50.015 45.0528 49.1611 44.9517 48.3188C44.8506 47.4765 44.5223 46.6775 44.0019 46.0075C45.7998 46.5335 48.0185 49.259 48.7835 50.4066C48.8164 50.454 48.8609 50.4921 48.9129 50.5173C48.9648 50.5424 49.0224 50.5537 49.08 50.55C49.1407 50.541 49.1974 50.5145 49.2433 50.4737C49.2892 50.4329 49.3221 50.3797 49.3382 50.3205C49.6215 49.3721 49.715 48.3771 49.6133 47.3925C49.5115 46.4079 49.2166 45.453 48.7453 44.5826C51.6812 44.8695 55.2961 49.2781 55.3343 49.3642C55.3772 49.4163 55.4349 49.4543 55.4997 49.473C55.5646 49.4918 55.6336 49.4905 55.6977 49.4694C55.7632 49.4481 55.8195 49.4054 55.8577 49.3481C55.8959 49.2908 55.9136 49.2224 55.9081 49.1538C55.9161 47.0569 55.4244 44.9884 54.4736 43.1194C58.0216 43.3872 63.4056 48.6469 63.463 48.7043C63.51 48.7507 63.5703 48.7811 63.6355 48.7914C63.7007 48.8017 63.7674 48.7913 63.8264 48.7617C63.8856 48.7343 63.9348 48.6893 63.9674 48.6328C63.9999 48.5762 64.0141 48.511 64.0081 48.4461C63.5969 43.1194 58.4423 39.5141 58.2033 39.3515ZM41.0947 92.5324C40.9696 93.5372 40.5576 94.4846 39.908 95.2614C39.2584 96.0382 38.3988 96.6113 37.432 96.9123C34.7161 97.8686 30.8812 97.2375 29.0642 95.5352C28.6942 95.2347 28.4175 94.8348 28.2667 94.3825C28.116 93.9302 28.0974 93.4443 28.2131 92.9818L28.4426 92.1403C30.7948 93.0144 33.3 93.4016 35.8063 93.2783C37.7584 93.1996 39.6049 92.3706 40.9608 90.964C41.0469 91.8343 41.0851 92.3889 41.0947 92.5324ZM40.8748 90.046C37.5946 94.4546 30.1066 92.0542 28.6052 91.5091C29.0451 89.8834 29.4308 88.3214 29.7624 86.8231C31.4524 87.8665 33.4368 88.3299 35.4142 88.1429C37.2064 87.9527 38.9359 87.3751 40.4827 86.4502C40.6453 87.8464 40.7791 89.0705 40.8748 90.046ZM40.3966 85.7521C34.6587 89.1948 30.7187 86.7084 29.8771 86.1442C30.2023 84.6427 30.47 83.2083 30.7091 81.8407C32.251 82.3386 33.8753 82.5303 35.4907 82.405C36.9679 82.2878 38.4012 81.8471 39.6889 81.1139C40.0045 82.7683 40.2149 84.3845 40.3966 85.7521ZM30.8334 81.1904C31.0725 79.756 31.2638 78.3789 31.4072 77.0878C32.6726 77.5507 34.0241 77.7302 35.3664 77.6138C36.6205 77.5075 37.8371 77.1324 38.9335 76.514C39.1917 77.8433 39.4116 79.1535 39.6124 80.4254C38.2859 81.1552 36.8216 81.6003 35.3132 81.732C33.8048 81.8638 32.2856 81.6793 30.8526 81.1904H30.8334ZM31.4742 76.4089C31.5985 75.1848 31.6941 74.0181 31.7515 72.9183C32.8319 73.2771 33.9737 73.4137 35.1082 73.3199C36.1584 73.2264 37.1744 72.8997 38.0823 72.3636C38.3405 73.5016 38.5892 74.6588 38.8091 75.7968C37.7124 76.4373 36.4868 76.8254 35.2213 76.9329C33.9559 77.0404 32.6823 76.8647 31.4933 76.4184L31.4742 76.4089ZM31.7898 72.2393C31.7898 71.216 31.8471 70.2501 31.8376 69.3703C32.5439 69.4989 33.2642 69.5342 33.9797 69.4755C35.0839 69.401 36.1445 69.0165 37.0399 68.3662C37.3555 69.4755 37.652 70.6135 37.9198 71.7611C36.9975 72.2808 35.9732 72.5937 34.918 72.6779C33.8628 72.7621 32.8019 72.6157 31.8089 72.2489L31.7898 72.2393ZM31.8376 68.6722C31.8376 67.5342 31.7611 66.4918 31.675 65.5355C32.1891 65.6519 32.7183 65.6874 33.2433 65.6407C34.191 65.5552 35.1003 65.2258 35.8828 64.6844C36.2175 65.6407 36.5427 66.597 36.8391 67.6394C36.1276 68.1517 35.3166 68.5091 34.4584 68.6886C33.6002 68.8682 32.7139 68.8658 31.8567 68.6818L31.8376 68.6722ZM31.6176 64.847C31.5347 64.0437 31.4391 63.3073 31.3307 62.6379C31.6328 62.6674 31.9371 62.6674 32.2392 62.6379C33.1222 62.5763 33.9642 62.2421 34.6491 61.6816C35.003 62.437 35.3281 63.2404 35.6533 64.0724C35.0884 64.5016 34.4325 64.7954 33.7362 64.9314C33.0398 65.0673 32.3216 65.0417 31.6367 64.8565L31.6176 64.847ZM31.2255 61.978C31.0821 61.213 30.9386 60.5531 30.7952 59.9889C30.9924 60.008 31.1909 60.008 31.3881 59.9889C32.1099 59.9394 32.7893 59.6303 33.3007 59.1186C33.6999 59.7351 34.0639 60.3737 34.3909 61.0312C33.9706 61.4146 33.4701 61.6993 32.9258 61.8647C32.3815 62.0302 31.8072 62.0721 31.2446 61.9876L31.2255 61.978ZM30.6039 59.3003C30.4222 58.6691 30.2596 58.2006 30.1353 57.8754H30.5465C31.0538 57.8288 31.5441 57.6687 31.981 57.4068C32.322 57.7736 32.6414 58.1599 32.9373 58.564C32.6517 58.8815 32.2872 59.1178 31.8807 59.2488C31.4742 59.3798 31.0403 59.4009 30.623 59.3099L30.6039 59.3003ZM31.8567 56.7278C31.5428 56.943 31.1891 57.0935 30.8165 57.1707C30.4438 57.2479 30.0594 57.2501 29.6858 57.1773C29.0939 57.0557 28.5572 56.7461 28.1556 56.2946C27.7541 55.8431 27.5092 55.2738 27.4576 54.6717C27.4247 54.3104 27.4636 53.9461 27.5719 53.5998C27.6802 53.2536 27.8559 52.9321 28.0888 52.6539C28.3222 52.3641 28.6122 52.1248 28.941 51.9505C29.2698 51.7763 29.6306 51.6707 30.0014 51.6402H30.4127C30.7674 51.6581 31.1152 51.7458 31.4359 51.8984C31.8798 52.1076 32.2609 52.4298 32.5412 52.8326C32.8215 53.2353 32.991 53.7047 33.033 54.1936C33.0815 54.682 33.0001 55.1745 32.7969 55.6213C32.5936 56.068 32.2759 56.4531 31.8758 56.7374L31.8567 56.7278ZM34.7257 26.2882C35.9524 25.8129 37.2403 25.5135 38.5509 25.3988C39.9205 25.2565 41.3047 25.4165 42.6057 25.8674C40.607 26.4221 35.9115 27.9331 34.7257 30.2474C34.6951 30.2961 34.6789 30.3524 34.6789 30.4099C34.6789 30.4675 34.6951 30.5238 34.7257 30.5725C34.7555 30.6206 34.7981 30.6595 34.8488 30.6848C34.8994 30.7102 34.9561 30.721 35.0125 30.716C36.5419 30.7526 38.0391 31.163 39.3734 31.9114C37.6711 32.227 34.1806 33.0877 33.1669 35.0577C33.1392 35.1056 33.1246 35.16 33.1246 35.2154C33.1246 35.2708 33.1392 35.3253 33.1669 35.3732C33.1963 35.4224 33.2385 35.4626 33.2891 35.4895C33.3396 35.5165 33.3965 35.5292 33.4537 35.5263C34.9251 35.533 36.3433 36.0772 37.4416 37.0564C35.988 37.1807 32.7078 37.6493 31.8662 39.2463C31.834 39.2979 31.817 39.3576 31.817 39.4185C31.817 39.4793 31.834 39.539 31.8662 39.5906C31.9004 39.643 31.9503 39.6832 32.0087 39.7055C32.0671 39.7278 32.131 39.7311 32.1914 39.7149C32.7881 39.595 33.4048 39.6193 33.9903 39.7856C34.5758 39.9519 35.1131 40.2555 35.5577 40.6712C34.6373 40.6875 33.7367 40.9406 32.9427 41.4063C32.1487 41.872 31.4881 42.5345 31.0247 43.3298C30.9943 43.3804 30.9783 43.4382 30.9783 43.4972C30.9783 43.5561 30.9943 43.614 31.0247 43.6645C31.0576 43.7142 31.1036 43.7538 31.1576 43.7791C31.2116 43.8044 31.2715 43.8144 31.3307 43.808C32.2344 43.7455 33.1386 43.9237 33.951 44.3244C32.3267 45.8953 31.0921 47.8242 30.3457 49.9571C29.6667 45.3668 27.5437 29.9222 34.8022 26.2978L34.7257 26.2882ZM22.5135 44.9364C23.2869 44.0184 24.2999 43.3331 25.4398 42.9568C25.4972 42.9404 25.549 42.9086 25.5894 42.8647C25.6299 42.8209 25.6576 42.7667 25.6693 42.7082C25.6786 42.6493 25.672 42.589 25.6501 42.5335C25.6282 42.478 25.592 42.4294 25.545 42.3926C24.5985 41.683 23.4839 41.2315 22.3104 41.0823C21.1369 40.9331 19.9447 41.0913 18.8508 41.5415C19.6254 39.1507 22.3509 38.6726 22.4752 38.6152C22.5363 38.6074 22.5937 38.5813 22.6398 38.5403C22.6859 38.4994 22.7185 38.4454 22.7334 38.3856C22.7475 38.3255 22.7452 38.2628 22.7267 38.2039C22.7081 38.145 22.6741 38.0922 22.6282 38.0509C20.8495 36.5591 16.613 37.7162 14.9777 38.2422C15.7783 36.4683 17.2249 35.0661 19.0229 34.3213C19.0773 34.3029 19.1256 34.27 19.1627 34.2262C19.1997 34.1824 19.2242 34.1293 19.2333 34.0727C19.2431 34.0169 19.2385 33.9596 19.2201 33.9061C19.2017 33.8526 19.1701 33.8046 19.1281 33.7666C16.9477 31.9018 12.2043 32.6956 10.1961 33.145C11.432 31.5312 13.0576 30.2577 14.9203 29.4441C14.9741 29.4248 15.0219 29.3916 15.0589 29.348C15.0958 29.3043 15.1206 29.2517 15.1307 29.1954C15.1424 29.1397 15.1388 29.0818 15.1203 29.0279C15.1018 28.974 15.069 28.9262 15.0255 28.8894C12.4339 26.709 5.94048 27.2923 3.54968 27.5888C7.16457 24.0887 13.1129 24.1078 13.1702 24.1078C23.6132 24.9111 28.5574 44.7547 29.6858 50.0432C27.7595 47.7872 25.3102 46.0372 22.5517 44.946L22.5135 44.9364ZM22.37 53.7824C22.1161 52.8429 22.1161 51.8529 22.37 50.9134C22.3878 50.8566 22.3891 50.7959 22.3739 50.7384C22.3587 50.6809 22.3275 50.6288 22.284 50.5883C22.2423 50.5464 22.1898 50.517 22.1323 50.5035C22.0749 50.4899 22.0147 50.4928 21.9588 50.5117C21.0319 50.8421 20.2055 51.4053 19.559 52.1472C18.9126 52.8891 18.4678 53.7848 18.2674 54.7483C17.9134 54.191 17.6997 53.5563 17.6448 52.8984C17.5898 52.2405 17.6952 51.579 17.9518 50.9708C17.9843 50.921 18.0017 50.8629 18.0017 50.8034C18.0017 50.744 17.9843 50.6858 17.9518 50.6361C17.9108 50.59 17.8576 50.5566 17.7984 50.5397C17.7391 50.5228 17.6762 50.523 17.6171 50.5404C15.7619 51.0855 14.6143 54.4805 14.2031 55.9436C13.3747 54.5876 13.0814 52.9714 13.3806 51.4107C13.3925 51.3558 13.3899 51.2987 13.3732 51.2451C13.3564 51.1915 13.326 51.1431 13.285 51.1047C13.2455 51.0626 13.1947 51.033 13.1386 51.0194C13.0826 51.0058 13.0238 51.0088 12.9694 51.0282C10.6934 51.688 9.07721 55.236 8.42691 56.9287C7.9007 55.3592 7.76609 53.6848 8.03482 52.0514C8.05068 51.996 8.05104 51.9372 8.03587 51.8816C8.0207 51.826 7.99057 51.7755 7.94875 51.7358C7.90802 51.6957 7.85713 51.6674 7.80155 51.6539C7.74596 51.6404 7.68775 51.6423 7.63315 51.6593C4.9459 52.4626 2.40208 57.1104 1.4362 59.0517C0.738089 54.9491 3.43489 50.8751 3.45402 50.8465C5.07976 48.7426 7.69052 47.7958 10.6742 47.5376C17.4163 46.9638 25.9753 49.9475 29.1407 51.1429C26.7055 51.4695 24.3838 52.3746 22.37 53.7824ZM27.9167 52.0132L27.7541 52.1662H27.4672L27.9167 52.0132ZM24.4452 55.8384C24.4138 55.471 24.4552 55.1009 24.5671 54.7495C24.679 54.3981 24.8591 54.0722 25.0973 53.7905C25.3354 53.5089 25.6267 53.277 25.9547 53.1082C26.2826 52.9394 26.6406 52.8371 27.0082 52.8069H27.2951V52.8547C27.2951 52.9025 27.2472 52.9599 27.2186 53.0077C27.1532 53.138 27.0957 53.2722 27.0464 53.4094L26.989 53.6102C26.9503 53.745 26.9216 53.8825 26.903 54.0214V54.2031C26.8838 54.4099 26.8838 54.618 26.903 54.8247C26.9176 54.9989 26.9464 55.1716 26.989 55.3412C26.989 55.3985 26.989 55.4559 27.0369 55.5133L27.1516 55.8384L27.2377 56.0201C27.2829 56.1156 27.334 56.2083 27.3907 56.2975L27.5054 56.4792C27.5606 56.5628 27.6213 56.6427 27.6871 56.7183L27.8306 56.8808C27.8991 56.9588 27.9725 57.0323 28.0506 57.1008L28.2131 57.2347C28.2951 57.3037 28.3814 57.3676 28.4713 57.4259L28.6339 57.5311C28.7717 57.6095 28.9157 57.6766 29.0642 57.732C28.6223 58.1074 28.0738 58.3348 27.4959 58.3822C27.1211 58.4176 26.7431 58.3773 26.3842 58.2638C26.0253 58.1503 25.6929 57.9659 25.4066 57.7215C25.1203 57.4772 24.886 57.1778 24.7176 56.8412C24.5492 56.5046 24.45 56.1376 24.4261 55.7619L24.4452 55.8384ZM52.3219 98.1938C52.5661 98.8138 52.6629 99.482 52.6049 100.146C52.5468 100.81 52.3353 101.451 51.9872 102.019C50.7344 104.199 46.9474 107.001 36.0454 107.939C22.6569 109.077 18.9942 105.749 17.9901 103.654C17.6536 103.002 17.4974 102.271 17.5377 101.538C17.5781 100.805 17.8135 100.096 18.2196 99.4848C18.7815 98.8459 19.2456 98.1272 19.5967 97.3522C20.553 95.4396 21.5572 93.4696 28.0219 91.4517C27.8975 91.9395 27.7637 92.408 27.6298 92.9245C27.472 93.4996 27.4856 94.1083 27.6691 94.6758C27.8526 95.2432 28.1979 95.7447 28.6626 96.1186C29.6185 96.8806 30.7153 97.4469 31.8902 97.7849C33.0651 98.1229 34.295 98.2261 35.5098 98.0886C36.2527 98.0253 36.9849 97.8712 37.6902 97.6296C38.7736 97.2887 39.7357 96.6429 40.4616 95.7694C41.1875 94.896 41.6463 93.8319 41.7833 92.7045V92.6376C41.7833 92.4367 41.6972 91.4422 41.5442 89.9025C43.8751 90.2805 46.0766 91.228 47.9534 92.6611C49.8301 94.0941 51.3241 95.9683 52.3028 98.1173L52.3219 98.1938ZM36.1984 54.0119C36.2299 54.3786 36.1888 54.7479 36.0775 55.0988C35.9662 55.4496 35.7869 55.7751 35.5497 56.0566C35.3126 56.3381 35.0224 56.5702 34.6955 56.7395C34.3687 56.9088 34.0118 57.0121 33.645 57.0434C33.3242 57.0745 33.0005 57.0485 32.6887 56.9669C32.7461 56.9191 32.7843 56.8617 32.8417 56.8043L32.9182 56.7183C33.0043 56.6131 33.0904 56.4983 33.1669 56.3835C33.2338 56.2784 33.2912 56.1636 33.3486 56.0584L33.4059 55.9341C33.4059 55.848 33.4729 55.7619 33.5016 55.6663C33.5303 55.5707 33.5016 55.5707 33.5494 55.5229C33.5773 55.4351 33.5997 55.3457 33.6163 55.2551V55.1117V54.8247C33.6207 54.7802 33.6207 54.7354 33.6163 54.6909C33.6259 54.5476 33.6259 54.4038 33.6163 54.2605C33.6163 54.1171 33.6163 53.9832 33.5494 53.8397C33.4824 53.6963 33.5494 53.7537 33.5494 53.7059C33.5494 53.6581 33.5015 53.5242 33.4729 53.4381L33.4155 53.2851C33.3844 53.2037 33.3493 53.1239 33.3103 53.046C33.2886 52.9963 33.263 52.9483 33.2338 52.9025C33.2338 52.826 33.1477 52.7495 33.0999 52.673L33.0138 52.5487C32.9552 52.4595 32.8879 52.3762 32.813 52.3001L32.7556 52.2236C32.6647 52.1263 32.569 52.0337 32.4687 51.9462L32.354 51.8602L32.1914 51.7263C32.4766 51.6015 32.7802 51.524 33.0903 51.4967C33.8224 51.4157 34.5569 51.6261 35.135 52.0825C35.7131 52.5389 36.0882 53.2045 36.1793 53.9354L36.1984 54.0119ZM53.9285 42.5361C53.8722 42.5412 53.818 42.5606 53.7712 42.5924C53.7244 42.6242 53.6864 42.6673 53.6607 42.7178C53.6331 42.7675 53.6186 42.8235 53.6186 42.8803C53.6186 42.9372 53.6331 42.9932 53.6607 43.0429C54.6173 44.6376 55.1628 46.445 55.2482 48.3026C53.9381 46.8682 50.8205 43.808 48.2002 44.0375C48.1447 44.0414 48.0913 44.0604 48.0458 44.0925C48.0003 44.1245 47.9644 44.1683 47.942 44.2192C47.9143 44.2689 47.8998 44.3249 47.8998 44.3818C47.8998 44.4387 47.9143 44.4946 47.942 44.5443C48.8808 46.0558 49.2218 47.8632 48.8983 49.6128C47.942 48.3122 45.3408 45.2233 43.2082 45.4146C43.1461 45.4173 43.0862 45.4389 43.0367 45.4765C42.9871 45.5141 42.9502 45.5659 42.9309 45.625C42.9073 45.6818 42.902 45.7445 42.9157 45.8045C42.9294 45.8645 42.9614 45.9187 43.0073 45.9597C43.526 46.4901 43.9056 47.1403 44.1125 47.8527C44.3194 48.5651 44.3471 49.3175 44.1932 50.0432C43.5993 49.1361 42.783 48.3962 41.8221 47.894C40.8612 47.3918 39.7877 47.144 38.7039 47.1742C38.6435 47.178 38.5852 47.1978 38.5348 47.2313C38.4845 47.2649 38.4438 47.3112 38.417 47.3655C38.3935 47.4203 38.3856 47.4805 38.394 47.5395C38.4024 47.5986 38.4269 47.6542 38.4648 47.7002C39.1199 48.5818 39.5172 49.628 39.6124 50.7221C37.8317 50.2782 35.9892 50.136 34.1614 50.3013C33.2758 50.3831 32.397 50.5269 31.5315 50.7317C35.3568 47.2411 49.5581 35.0194 57.8207 39.9636C57.8685 39.9636 62.3537 43.129 63.243 47.681C61.579 46.0553 57.0174 42.2205 53.9285 42.4882V42.5361Z" fill="#E5E5E5"/>
</svg>
