<svg width="16" height="13" viewBox="0 0 16 13" fill="none" xmlns="http://www.w3.org/2000/svg">
<path d="M15.3685 2.22238C14.8192 2.46335 14.2339 2.62307 13.6236 2.70062C14.2514 2.32578 14.7306 1.73676 14.9558 1.02678C14.3705 1.37577 13.7242 1.62227 13.0355 1.75984C12.4797 1.16804 11.6876 0.801514 10.8234 0.801514C9.14681 0.801514 7.79703 2.16237 7.79703 3.83067C7.79703 4.07071 7.81734 4.30152 7.8672 4.52125C5.34952 4.39846 3.12174 3.19178 1.62517 1.35361C1.36389 1.80692 1.21063 2.32578 1.21063 2.88434C1.21063 3.93315 1.75073 4.86285 2.5558 5.4011C2.06925 5.39187 1.59193 5.25061 1.18755 5.02811C1.18755 5.03734 1.18755 5.04934 1.18755 5.06135C1.18755 6.53299 2.23728 7.75536 3.61383 8.03695C3.36732 8.10435 3.09866 8.13666 2.81984 8.13666C2.62596 8.13666 2.43024 8.12558 2.24651 8.08496C2.63889 9.28425 3.75232 10.1659 5.07624 10.1946C4.04591 11.0006 2.73767 11.4862 1.32142 11.4862C1.07307 11.4862 0.834876 11.4751 0.59668 11.4446C1.93815 12.3097 3.52797 12.8036 5.24243 12.8036C10.8151 12.8036 13.8618 8.18744 13.8618 4.18611C13.8618 4.05224 13.8572 3.92299 13.8507 3.79466C14.4518 3.36812 14.9568 2.83541 15.3685 2.22238Z" fill="#444444"/>
</svg>
