<svg width="32" height="34" viewBox="0 0 32 34" fill="none" xmlns="http://www.w3.org/2000/svg">
<path d="M17.7311 0.830917C17.6034 0.875599 17.4055 0.984108 17.297 1.06709C17.1949 1.15007 15.2481 3.94582 12.9757 7.28413L8.84593 13.348L7.67784 13.3671L6.50975 13.3799L6.54167 13.1756C6.56081 13.0608 6.68209 11.9182 6.80337 10.6352C6.92465 9.35223 7.03954 8.18414 7.05869 8.03733C7.09699 7.77563 7.11614 7.75648 7.55018 7.52669C7.98422 7.2969 8.59699 6.77349 8.85231 6.40328L8.97997 6.21817L10.8247 6.40966C12.0757 6.53094 12.7332 6.57562 12.8481 6.53732C13.2055 6.41605 13.2311 5.86711 12.8864 5.7203C12.8034 5.682 11.897 5.57349 10.863 5.47136C8.7821 5.27349 8.62253 5.27987 8.31614 5.61817C8.21401 5.72668 7.98422 5.97562 7.79912 6.17349C7.60763 6.38413 7.33316 6.60115 7.10975 6.70966C6.54167 6.98413 6.34379 7.15648 6.24166 7.45648C6.17783 7.62243 6.03102 8.8735 5.86507 10.5522L5.5906 13.3799H5.2906H4.98421L5.01613 13.1374C5.03528 13.0097 5.23953 11.0118 5.46294 8.70116C5.69273 6.38413 5.90975 4.4437 5.94166 4.37348C6.03741 4.19476 6.21613 4.12455 6.56081 4.12455C6.72677 4.12455 8.43104 4.28412 10.3396 4.47561C13.4162 4.782 13.8374 4.80753 13.9906 4.73093C14.297 4.57136 14.2843 4.0671 13.9715 3.93306C13.8885 3.90114 12.7651 3.77348 11.463 3.64582C10.1672 3.51816 8.50763 3.35859 7.77359 3.28199C7.03316 3.21178 6.32464 3.17348 6.17145 3.19263C5.5906 3.28199 5.09272 3.77987 4.97783 4.39902C4.93953 4.58412 4.76081 6.26924 4.5757 8.14584L4.24378 11.5607L3.43952 11.599C2.75016 11.6246 2.59058 11.6565 2.32888 11.7905C1.78633 12.0714 1.47994 12.6012 1.47356 13.2842C1.46718 13.5905 1.45441 13.6097 1.16717 13.7948C1.0076 13.8969 0.777811 14.1076 0.662917 14.2608C0.235255 14.8225 0.254404 14.331 0.273553 23.5353L0.292702 31.8587L0.445895 32.1906C0.631002 32.6119 1.15441 33.1034 1.5693 33.2693C1.88207 33.3906 2.21399 33.3906 15.3566 33.3906H28.8247L29.1567 33.2374C29.5524 33.0587 30.0247 32.58 30.2162 32.1587C30.3503 31.8715 30.3567 31.7693 30.3758 29.414L30.395 26.9757H30.6311C31.1801 26.9757 31.6652 26.7012 31.8311 26.2927C31.9013 26.1268 31.9205 25.5268 31.9205 23.4012C31.9205 20.8544 31.9141 20.7012 31.7928 20.465C31.6013 20.0884 31.3333 19.9289 30.8226 19.9033L30.3886 19.8778V17.5672C30.3886 15.6267 30.3694 15.1991 30.2864 14.9118C30.1716 14.5288 29.9035 14.0948 29.6545 13.9033C29.5077 13.7884 29.495 13.731 29.495 13.3033C29.495 12.7352 29.3035 12.282 28.9333 11.9756C28.6652 11.7586 28.1928 11.5927 27.8226 11.5927H27.5737L28.3205 10.5012C28.7354 9.89478 29.1056 9.27563 29.1567 9.10967C29.3098 8.59903 29.1439 7.99265 28.7481 7.62882C28.6524 7.53946 27.8098 6.94584 26.8779 6.31392C25.946 5.682 23.8077 4.22029 22.1226 3.07135C20.4375 1.92241 18.9758 0.939426 18.8736 0.888363C18.6119 0.754318 18.0247 0.722404 17.7311 0.830917ZM18.5226 1.76922C18.9119 1.97347 27.9567 8.18414 28.1098 8.34371C28.3907 8.64371 28.346 8.79691 27.7269 9.71606C27.4141 10.1693 26.7375 11.1778 26.2077 11.9565L25.2503 13.3735L24.88 13.3799H24.5162L25.263 12.2884C25.6715 11.682 26.0417 11.082 26.0928 10.9416C26.1886 10.6544 26.1503 10.4373 25.8822 9.80542C25.7354 9.45436 25.7034 9.2884 25.6907 8.70116C25.6779 8.13307 25.646 7.9735 25.5375 7.80116C25.4481 7.64797 24.6566 7.0735 22.8183 5.82243C21.3949 4.85221 20.163 4.0288 20.0736 3.99689C19.7928 3.88838 19.4992 3.92667 18.9821 4.13731C18.5481 4.31604 18.4013 4.34157 17.8013 4.35434C16.997 4.37348 16.7672 4.45646 16.4928 4.84583C16.3843 4.99264 15.0566 6.93945 13.5374 9.16712C12.0183 11.3948 10.7417 13.2586 10.7034 13.3033C10.6523 13.3544 10.5055 13.3799 10.2949 13.3671L9.97572 13.348L13.863 7.6352C16.0013 4.49476 17.8141 1.87135 17.8843 1.80752C18.0375 1.68624 18.3311 1.66709 18.5226 1.76922ZM22.3141 6.60115L24.7396 8.25435L24.7779 8.9501C24.8098 9.49265 24.8545 9.74159 24.9886 10.0927C25.0843 10.3352 25.1673 10.5841 25.1737 10.6352C25.18 10.6927 24.7843 11.331 24.2928 12.0586L23.3992 13.3735L22.6013 13.3799H21.7971L21.7268 12.9522C21.6247 12.365 21.2098 11.5607 20.7758 11.0884C20.3162 10.5905 19.8247 10.2714 19.1673 10.0416C17.8332 9.58202 16.2375 9.95861 15.2545 10.9671C14.7055 11.5288 14.2906 12.3267 14.1885 13.0161L14.1438 13.348L12.9757 13.3671C12.0374 13.3799 11.814 13.3671 11.8523 13.3033C11.8842 13.2586 13.1225 11.4331 14.6098 9.24372L17.3162 5.27349H17.9162C18.3758 5.27349 18.6247 5.23519 19.0077 5.11391C19.2821 5.02455 19.5502 4.92881 19.5949 4.89689C19.6524 4.85859 19.7353 4.85859 19.7864 4.89051C19.8439 4.92242 20.98 5.68838 22.3141 6.60115ZM18.6758 10.8586C19.1928 10.999 19.6204 11.2416 20.0098 11.631C20.4119 12.0331 20.6545 12.4608 20.7758 12.9842L20.8651 13.3799H17.9672H15.063L15.1077 13.1374C15.4013 11.5224 17.08 10.4437 18.6758 10.8586ZM4.12889 12.748C4.10974 12.8565 4.09059 13.048 4.09059 13.1629V13.3799H3.2608H2.43101V13.1501C2.43101 12.9842 2.48207 12.8756 2.61612 12.7352C2.80122 12.5565 2.82037 12.5501 3.48421 12.5501H4.17357L4.12889 12.748ZM28.3013 12.6842C28.4864 12.8246 28.6588 13.2905 28.563 13.3671C28.5311 13.3927 28.0269 13.4054 27.4396 13.3927L26.3737 13.3735L26.6418 12.965L26.9098 12.5501H27.5226C28.046 12.5501 28.1609 12.5693 28.3013 12.6842ZM28.9652 14.5671C29.3673 14.8863 29.4311 15.0842 29.4311 15.9778V16.7629H15.3247H1.21824V15.965C1.21824 15.3969 1.24377 15.1097 1.3076 14.9884C1.42249 14.765 1.71611 14.4905 1.92037 14.4076C2.0225 14.3693 6.65018 14.3501 15.4013 14.3565L28.7162 14.3693L28.9652 14.5671ZM29.4311 18.8055V19.8906H27.0247C25.0971 19.8906 24.529 19.9097 24.2034 19.9863C23.0864 20.2544 22.129 21.1097 21.7077 22.2204C21.529 22.6991 21.4651 23.6757 21.58 24.1736C21.8673 25.4119 22.8119 26.4204 24.0694 26.8225C24.3694 26.9183 24.7651 26.9374 26.929 26.9629L29.4311 26.9885V28.0672V29.1459H17.9545C6.5289 29.1459 6.47145 29.1459 6.35656 29.2736C6.20975 29.4395 6.20975 29.7459 6.35656 29.9119C6.47145 30.0395 6.5289 30.0395 17.9545 30.0395H29.4311V30.8502C29.4311 31.5779 29.412 31.6927 29.2843 31.9225C29.2013 32.063 29.029 32.2353 28.8886 32.3183L28.6332 32.4651H15.3374C0.522491 32.4651 1.78633 32.5034 1.42249 32.031C1.25654 31.814 1.25015 31.7693 1.231 30.9204L1.20547 30.0395H2.55229C3.81612 30.0395 3.90548 30.0332 4.02676 29.9119C4.09697 29.8417 4.15442 29.7012 4.15442 29.5927C4.15442 29.4842 4.09697 29.3438 4.02676 29.2736C3.90548 29.1523 3.81612 29.1459 2.55867 29.1459H1.21824V23.4331V17.7203H15.3247H29.4311V18.8055ZM30.9503 23.414L30.963 26.0183H27.8545C26.029 26.0183 24.6247 25.9863 24.4651 25.9544C23.463 25.7183 22.6588 24.8693 22.4673 23.8416C22.2119 22.4438 23.246 21.0395 24.663 20.8544C24.88 20.8225 26.38 20.8033 27.9949 20.8097L30.9311 20.8161L30.9503 23.414Z" fill="#4086F4"/>
<path d="M24.5799 21.6076C23.7757 21.8565 23.1757 22.7438 23.2586 23.5608C23.3608 24.5757 24.1267 25.2778 25.1161 25.2778C26.7629 25.2842 27.5991 23.414 26.5267 22.1374C26.4374 22.0289 26.1884 21.8501 25.9714 21.748C25.6459 21.5821 25.5055 21.5501 25.1608 21.5565C24.931 21.5565 24.6693 21.5821 24.5799 21.6076ZM25.4991 22.5331C26.1693 22.814 26.2714 23.7523 25.6778 24.1927C25.4353 24.3778 24.9182 24.397 24.6565 24.2374C24.0118 23.8289 24.0501 22.8714 24.7331 22.565C25.0459 22.4246 25.2182 22.4182 25.4991 22.5331Z" fill="#4086F4"/>
</svg>
